<svg xmlns="http://www.w3.org/2000/svg" width="656" height="192"><path fill="#353331" fill-rule="evenodd" d="M11.49 122.67c4.13-4.27 9.18-6.43 15.01-6.43 6.48 0 13.64 2.68 21.29 7.98.26.18.43.41.67.6-3.11-1.04-6.11-1.59-8.98-1.59-5.88 0-10.97 2.17-15.14 6.47-10.89 11.24-13.2 35.15-6.78 62.35h1.51c.98-1.35 1.97-2.71 2.94-4.04 2.04-2.81 4.03-5.54 5.97-8.24.4 3.96 1.09 8.09 1.93 12.28h.91c-.92-4.58-1.67-9.07-2.05-13.36 5.01-6.96 9.58-13.5 13.4-19.52-1.73 7.04-2.21 15.41-1.4 24.62-1.94 2.69-3.95 5.45-6 8.26h1.03c1.74-2.38 3.44-4.72 5.1-7.02.23 2.29.58 4.64.98 7.02h.91c-.47-2.75-.87-5.47-1.11-8.1 4.79-6.64 9.17-12.89 12.82-18.64-1.64 6.74-2.09 14.74-1.32 23.54-.75 1.04-1.55 2.14-2.32 3.2h1.04c.47-.64.96-1.31 1.42-1.94.06.63.19 1.3.26 1.94h.93c-.13-1-.32-2.05-.41-3.03 4.58-6.35 8.76-12.32 12.25-17.82-1.44 6.02-1.86 13.11-1.32 20.85h.86c-.63-8.87.05-16.87 2.05-23.36 2.37-3.89 4.32-7.5 5.79-10.83.2-.23.39-.5.6-.72 3.38-3.49 7.51-5.26 12.25-5.26.03 0 .06.01.06.01.43 3.21-.51 7.13-2.5 11.67-2.44 2.75-4.33 6.29-5.64 10.51-3.36 5.48-7.55 11.52-12.19 17.98h1.02c3.84-5.36 7.41-10.48 10.41-15.19-1.07 4.51-1.55 9.63-1.47 15.19h.91c-.1-6.63.6-12.65 2.15-17.71 2.29-3.73 4.15-7.2 5.57-10.4.19-.22.37-.47.57-.69 3.25-3.34 7.21-5.05 11.76-5.05.02 0 .05.01.07.01.39 3.08-.51 6.84-2.42 11.19-2.34 2.65-4.16 6.06-5.42 10.11-2.4 3.9-5.23 8.11-8.35 12.54h.99c2.37-3.39 4.64-6.69 6.6-9.77-.7 2.99-1.11 6.28-1.29 9.77h.92c.21-4.5.84-8.66 1.95-12.27 2.2-3.59 3.99-6.92 5.35-10 .19-.21.35-.45.55-.65 3.12-3.22 6.92-4.85 11.3-4.85h.03c.38 2.96-.48 6.56-2.3 10.72-2.26 2.55-4.02 5.84-5.23 9.76-1.42 2.31-3.04 4.77-4.75 7.29h.99c1.06-1.55 2.08-3.08 3.01-4.54-.33 1.44-.59 2.97-.79 4.54h.96c.32-2.51.76-4.91 1.42-7.06 2.1-3.43 3.81-6.61 5.11-9.55.19-.22.36-.46.56-.66 2.98-3.1 6.63-4.67 10.83-4.67l.02.01c.36 2.84-.49 6.32-2.25 10.34-2.15 2.44-3.82 5.56-4.98 9.27-.46.76-.97 1.54-1.47 2.32h1.8c.16-.68.3-1.38.5-2.02 2.02-3.31 3.67-6.37 4.92-9.21.18-.2.33-.43.52-.62 2.87-2.96 6.37-4.46 10.4-4.46h.01c.34 2.71-.46 6.02-2.13 9.85-1.58 1.78-2.89 3.95-3.92 6.46h1.54c1.19-2.11 2.28-4.15 3.11-6.04.17-.19.32-.41.5-.59 2.75-2.84 6.11-4.28 9.97-4.29.32 2.61-.44 5.79-2.04 9.46-.39.43-.7.98-1.05 1.46h1.27c.16-.34.36-.71.51-1.05.16-.18.31-.39.47-.56 2.65-2.73 5.87-4.12 9.57-4.12.2 1.67-.09 3.6-.74 5.73h.81c.61-2.06.98-3.99.81-5.65.22.01.44.05.66.07.96.55 1.91 1.07 2.86 1.57.26.16.48.34.73.51 1.05.68 2.08 1.31 3.11 1.93.01.04.03.08.04.13-2.12.02-4.06.54-5.85 1.44h1.78c1.32-.46 2.7-.75 4.18-.75.03.23-.04.51-.03.75h.88c-.01-.21.05-.46.03-.67.2.02.4.05.61.06.37.22.74.41 1.11.61h5.17l-.53-.15c-27.06-22.98-32.89-47.9-25.85-63.08 3.27-7.04 9.07-11.09 15.9-11.09 1.12 0 2.24.11 3.36.32 2.13 2.41 4.35 4.69 6.69 6.8-.62-.06-1.25-.17-1.87-.17-6.97 0-12.84 4.05-16.12 11.11-6.35 13.67-1.99 35.43 19.46 56.26h1.2c-21.64-20.75-26.11-42.44-19.81-56.02 3.15-6.76 8.71-10.64 15.27-10.64.93 0 1.86.11 2.79.26.58.51 1.14 1.02 1.73 1.5 1.63 1.77 3.33 3.45 5.09 5.04-.58-.06-1.17-.16-1.75-.16-6.71 0-12.35 3.9-15.51 10.69-5.62 12.1-2.47 30.81 14.16 49.33h1.13c-16.77-18.44-20.02-37.08-14.43-49.1 3.01-6.49 8.35-10.21 14.65-10.21.89 0 1.78.11 2.68.25.55.49 1.09.98 1.66 1.44 1.56 1.69 3.18 3.3 4.86 4.82-.55-.06-1.1-.15-1.64-.15-6.45 0-11.89 3.74-14.92 10.28-4.92 10.6-2.76 26.47 9.72 42.67h1.06c-12.58-16.12-14.81-31.92-9.92-42.44 2.89-6.23 8.02-9.8 14.06-9.8.85 0 1.71.1 2.56.24.52.45 1.04.91 1.56 1.35 1.5 1.62 3.05 3.16 4.67 4.62-.51-.04-1.02-.14-1.52-.14-6.22 0-11.44 3.61-14.37 9.9-4.24 9.14-3 22.39 5.97 36.27h1c-9.02-13.8-10.32-26.97-6.11-36.03 2.77-5.99 7.7-9.43 13.51-9.43.81 0 1.62.11 2.44.23.53.47 1.05.94 1.59 1.38 1.4 1.52 2.87 2.97 4.38 4.34-.48-.04-.96-.13-1.44-.13-5.97 0-10.99 3.47-13.8 9.52-3.6 7.74-3.11 18.54 2.92 30.12h.95c-6.07-11.49-6.59-22.21-3.03-29.88 2.67-5.75 7.39-9.06 12.96-9.06.79 0 1.57.1 2.36.23.47.41.94.84 1.43 1.24 1.37 1.48 2.79 2.89 4.26 4.23-.44-.04-.89-.12-1.33-.12-5.74 0-10.6 3.34-13.3 9.15-2.96 6.38-3.01 14.91.65 24.21h.92c-3.68-9.22-3.65-17.67-.72-23.97 2.56-5.51 7.1-8.69 12.45-8.69.74 0 1.49.09 2.24.21.46.4.91.81 1.38 1.2 1.31 1.41 2.66 2.76 4.06 4.03-.41-.03-.83-.11-1.24-.11-5.52 0-10.19 3.21-12.78 8.81-2.26 4.86-2.78 11.02-1.16 17.83-.71.27-1.45.46-2.18.69h3.26c-.03-.1-.07-.21-.09-.31 1.64-.66 3.26-1.41 4.85-2.26.02.84.1 1.71.2 2.57h.89c-.12-1.03-.19-2.05-.2-3.05 2.67-1.48 5.25-3.22 7.74-5.18-.07.14-.15.27-.22.42-1.07 2.29-1.6 4.97-1.77 7.81h.86c.18-2.76.72-5.34 1.75-7.58.35-.75.76-1.43 1.19-2.08 1.66-1.39 3.28-2.9 4.88-4.46 1.51-.75 3.17-1.14 4.94-1.14.64 0 1.28.08 1.93.18.4.35.82.68 1.23 1.02.29.31.58.62.87.92-1.2 1.32-2.43 2.59-3.67 3.82-1.87.96-3.5 2.44-4.79 4.38-2.23 1.86-4.54 3.48-6.91 4.94h1.43c1.5-.97 2.99-2 4.43-3.13-.06.13-.13.24-.19.37-.4.85-.64 1.81-.9 2.76h.9c.26-.86.48-1.74.84-2.52.35-.75.75-1.42 1.17-2.06 1.58-1.32 3.11-2.74 4.62-4.22 1.46-.72 3.07-1.11 4.77-1.11.63 0 1.26.08 1.89.18.38.34.76.68 1.15 1 .27.29.53.57.8.85-1.14 1.26-2.31 2.48-3.5 3.65-1.81.93-3.37 2.36-4.61 4.22l-.02.01h1.19c1.38-1.18 2.74-2.41 4.06-3.71 1.39-.69 2.93-1.05 4.55-1.05.6 0 1.2.08 1.8.17.38.34.76.68 1.15 1 .24.26.48.52.72.77-.88.97-1.8 1.9-2.71 2.82h8.45c-.43-.59-.89-1.15-1.29-1.79.22.12.45.22.67.33.39.47.78.96 1.17 1.46h1.78l-.03-.03c.02-.02.04-.04.05-.07.09.04.19.07.27.1h1.86c-.56-.21-1.15-.38-1.7-.61.54-.64 1.09-1.27 1.62-1.93 2.05.6 4.17 1.09 6.34 1.51-.27.35-.55.69-.82 1.03h1.06c.22-.28.45-.56.67-.86 2.06.37 4.16.66 6.32.86h-.01 16.17c1.69-.14 3.39-.31 5.12-.54-.11.19-.22.36-.32.54h1c.14-.23.28-.46.42-.7 1.89-.26 3.79-.58 5.72-.94-.32.57-.65 1.1-.97 1.64h.99c.37-.62.74-1.21 1.11-1.85 1.82-.36 3.66-.76 5.53-1.2-.57 1.02-1.15 2.03-1.72 3.05h.98c.63-1.11 1.25-2.21 1.87-3.32 1.79-.44 3.6-.91 5.43-1.43-.24.44-.49.88-.74 1.31-.66 1.18-1.3 2.3-1.94 3.44h.99c.59-1.05 1.18-2.07 1.78-3.15.36-.64.72-1.29 1.08-1.93 1.76-.51 3.53-1.06 5.32-1.64-1.14 2.03-2.28 4.04-3.4 6.04-.85.24-1.69.45-2.54.68h3.15s.05-.08.07-.12c1.67-.49 3.37-1.01 5.08-1.57-.33.57-.64 1.13-.96 1.69h.98c.39-.69.77-1.37 1.17-2.07 1.68-.55 3.39-1.16 5.1-1.78-.76 1.28-1.5 2.57-2.24 3.85h.99c.83-1.43 1.66-2.87 2.51-4.3 1.74-.64 3.5-1.33 5.27-2.04-1.33 2.09-2.62 4.21-3.89 6.34h2.22c1.14-.43 2.27-.86 3.42-1.33-.28.44-.54.89-.81 1.33H317c.39-.62.76-1.25 1.15-1.86 1.83-.75 3.67-1.53 5.52-2.35-.98 1.37-1.91 2.8-2.85 4.21h1.02c1.12-1.66 2.23-3.33 3.4-4.92 2.31-1.03 4.65-2.13 7.01-3.28-2.2 2.42-4.29 5.02-6.29 7.73-.36.17-.72.31-1.08.47h1.83c2.17-.97 4.37-2 6.58-3.08-.89 1-1.77 2.03-2.63 3.08h1.06c1.17-1.4 2.36-2.77 3.59-4.07 8.49-4.21 17.32-9.13 26.48-14.79 2.67-.44 5.47-.65 8.36-.69-.72.45-1.43.88-2.15 1.34-2.23 1.44-4.44 2.83-6.63 4.19-2.85.48-5.56 1.19-8.1 2.12-6.51 2.4-12.17 6.64-17.25 11.9h1.95c7.66-3.86 15.59-8.29 23.81-13.37 2.54-.42 5.21-.63 7.97-.67-.68.43-1.35.84-2.03 1.27-2.14 1.39-4.26 2.73-6.37 4.03-2.74.46-5.35 1.14-7.79 2.05-4.13 1.52-7.88 3.86-11.37 6.69h1.23c3.25-2.55 6.72-4.66 10.51-6.06 1.77-.65 3.64-1.14 5.57-1.56-4.51 2.75-8.9 5.25-13.23 7.62h1.62c4.53-2.49 9.14-5.17 13.86-8.09 2.42-.39 4.97-.59 7.59-.63-.63.4-1.26.78-1.89 1.19-2.06 1.33-4.11 2.62-6.13 3.87-2.63.44-5.13 1.1-7.48 1.96-1.3.48-2.56 1.07-3.79 1.7h1.69c.82-.38 1.64-.74 2.48-1.05 1.66-.62 3.43-1.08 5.24-1.48-1.46.88-2.88 1.7-4.31 2.53h1.53c1.67-.99 3.33-1.96 5.03-3.01 2.32-.38 4.75-.57 7.26-.61-.59.37-1.19.73-1.79 1.12-1.36.88-2.69 1.68-4.03 2.5h1.51c1.03-.65 2.06-1.29 3.1-1.96.89-.58 1.78-1.12 2.67-1.67 1.91.01 3.84.11 5.79.31-1.83 1.05-3.68 2.18-5.53 3.32h1.45c1.77-1.08 3.54-2.16 5.3-3.16 1.79.21 3.58.46 5.39.79-1.46.77-2.94 1.57-4.42 2.37h1.55c1.33-.72 2.66-1.46 3.98-2.14 1.69.33 3.38.68 5.07 1.1-.7.33-1.42.7-2.12 1.04h1.7c.51-.24 1.03-.51 1.54-.74.91.23 1.82.49 2.73.74h2.65c-1.45-.43-2.91-.83-4.37-1.22 2.13-.98 4.22-1.91 6.29-2.78 1.65.5 3.3 1.01 4.94 1.57-1.98.75-4.01 1.58-6.07 2.43h1.97c1.74-.71 3.48-1.42 5.17-2.05 1.65.58 3.3 1.15 4.93 1.77-.27.08-.55.19-.82.28h3.59c-.19-.07-.38-.15-.57-.22 2.49-.79 4.88-1.49 7.16-2.11 1.81.73 3.6 1.47 5.35 2.21-.16.04-.35.09-.51.12h3.47c2.71-.54 5.4-1 8.05-1.39.9.39 1.85.79 2.73 1.18.17.07.32.14.49.21h1.85c-.64-.28-1.26-.55-1.91-.83-.56-.25-1.17-.51-1.74-.76 3.51-.48 6.95-.85 10.23-1.03 2.14.93 4.19 1.79 6.19 2.62h1.91c-2.05-.84-4.16-1.73-6.34-2.67 1.31-.05 2.65-.12 3.91-.12 4.58 0 8.66.34 12.1.98 1.94.71 3.75 1.29 5.5 1.81h2.61c-.11-.03-.2-.04-.31-.07-1.98-1-4.45-1.82-7.46-2.39-3.96-1.46-8.33-3.28-12.94-5.27 1.39-.06 2.81-.13 4.15-.13 4.77 0 9.02.35 12.6 1.02 2.79 1.02 5.37 1.85 7.77 2.49 1.77.93 3.1 1.99 3.81 3.23.2.36.35.74.45 1.12h.9c-.12-.48-.29-.95-.54-1.4-.5-.87-1.32-1.66-2.31-2.39 2.2.48 4.24.8 6.01.8.3 0 .57-.04.87-.06-.01.06-.01.12-.02.18-.49.52-.92 1.03-1.37 1.54-.23.21-.46.39-.69.6-.27.25-.5.49-.74.73h3.56c.56-.38 1.12-.78 1.68-1.15-.12.36-.22.71-.31 1.06-.06.03-.11.06-.16.09h1.54c1.07-.6 2.13-1.17 3.19-1.71-.03.55-.04 1.1-.02 1.65-.04.02-.09.04-.13.06h2c1.32-.53 2.63-1.05 3.9-1.49.02.08.02.16.04.24.12.42.3.84.46 1.25h.93c-.19-.46-.38-.92-.51-1.39-.03-.14-.03-.27-.07-.41 1.98-.66 3.88-1.21 5.71-1.68.4.92.89 1.83 1.44 2.72-1.17.18-2.51.49-3.8.76h3.6c.21-.03.43-.08.63-.11.02.04.06.08.06.08l1.07.03c-.06-.08-.14-.16-.2-.25 3.37-.46 6.18-.61 8.27-.62.28.29.6.58.89.87h1.13c-.29-.29-.63-.56-.91-.85 3.07.04 5.89.35 8.44.85h3.01c-3.44-1-7.54-1.59-12.12-1.59-1.07-1.18-2.04-2.39-2.87-3.62 3.53-.49 6.46-.64 8.65-.65 1.88 2.02 4.06 3.97 6.51 5.86h1.33c-2.51-1.89-4.8-3.83-6.73-5.84 9.06.11 16.28 2.35 19.6 5.84h1.1c-3.4-4.01-11.37-6.58-21.37-6.58-1.12-1.24-2.15-2.51-3.01-3.8 3.92-.54 7.16-.69 9.48-.69 12.14 0 21.39 3.65 22.98 9.06.2.66.2 1.34.14 2.01h.91c.05-.73.04-1.45-.18-2.17-1.68-5.74-11.27-9.61-23.85-9.61-2.42 0-5.81.16-9.93.75-.63-1.01-1.18-2.03-1.63-3.07 7.91-1.95 14.36-2.37 18.28-2.37 12.65 0 22.28 3.79 23.95 9.44.33 1.12.24 2.27-.06 3.42-.53.37-1.03.76-1.54 1.13-1.44.8-2.79 1.64-4.12 2.48h2.78c.39-.18.76-.37 1.16-.55-.18.19-.35.37-.54.55h4.88c.35-.46.66-.93 1.03-1.38 2.12-1.08 4.05-2.17 5.71-3.3-1.12 1.52-2.11 3.09-3.02 4.68h1.06c1.27-2.2 2.69-4.34 4.35-6.39 2.24-1.13 4.29-2.29 6.02-3.47-2.29 3.13-4.13 6.43-5.6 9.86h.97c1.79-4.07 4.1-7.95 7.05-11.59 2.36-1.19 4.51-2.41 6.33-3.65-3.49 4.74-6.07 9.84-7.76 15.24h.97c1.94-6.09 5.01-11.78 9.26-17.02 3.37-1.71 6.23-3.48 8.54-5.28 3.92-1.94 7.2-3.95 9.79-6.01 3.93-1.96 7.23-4 9.85-6.07 4.11-2.05 7.55-4.18 10.29-6.35 4.27-2.13 7.86-4.35 10.7-6.6 14.35-7.17 21.19-15.22 18.97-22.74-2.59-8.79-17.32-14.7-36.65-14.7-12.13 0-40.18 2.55-70.7 22.55 1.1-1.15 1.99-2.28 2.74-3.4.71-.37 1.37-.81 1.96-1.32 2.47-2.15 4.34-4.25 5.71-6.29.74-.39 1.42-.84 2.03-1.37 2.58-2.24 4.52-4.42 5.94-6.54.77-.41 1.48-.88 2.12-1.43 2.67-2.32 4.69-4.59 6.17-6.8.8-.42 1.54-.91 2.2-1.49 2.79-2.41 4.89-4.77 6.43-7.06.83-.44 1.6-.95 2.29-1.55 2.9-2.52 5.09-4.98 6.69-7.36.87-.46 1.67-.99 2.39-1.61 3.01-2.62 5.29-5.18 6.95-7.66.9-.48 1.73-1.02 2.47-1.67 3.15-2.73 5.52-5.39 7.25-7.98.93-.49 1.8-1.06 2.57-1.73 9.85-8.54 13.08-16.56 9.32-23.16-5.53-9.75-25.97-15.57-54.67-15.57-18.78 0-40.32 2.49-62.3 7.18C468.02 16.65 423.35-.05 383.26-.05c-14.52 0-27.89 2.2-39.72 6.57-41.63 15.35-68.51 63.34-92.22 105.68-6.67 11.91-12.96 23.17-19.46 33.6-3.28.22-6.52.35-9.65.35-15.9 0-30.18-3.15-42.59-9.21-2.32-2.77-4.72-5.12-7.18-6.97-2.49-2.99-5.06-5.52-7.7-7.5-2.56-3.07-5.2-5.67-7.91-7.71-2.67-3.2-5.43-5.92-8.25-8.05-2.78-3.34-5.66-6.17-8.6-8.38-8.13-9.76-17.1-15.11-25.88-15.11-8.44 0-15.57 4.92-19.54 13.5-8.02 17.25-1.98 45.1 26.71 71.3-1.68-1-3.34-1.85-4.96-2.51-.49-.57-1.07-1.09-1.75-1.56-2.79-1.94-5.5-3.38-8.14-4.45-.51-.58-1.11-1.13-1.82-1.62-2.93-2.02-5.78-3.57-8.55-4.68-.51-.59-1.12-1.13-1.83-1.62-3.05-2.12-6.02-3.73-8.89-4.89-.54-.6-1.16-1.17-1.9-1.67-3.17-2.2-6.25-3.88-9.23-5.08-.56-.63-1.22-1.22-1.98-1.75-3.31-2.3-6.52-4.05-9.64-5.3-.58-.65-1.25-1.26-2.05-1.81-3.43-2.38-6.77-4.2-10-5.5-.6-.68-1.3-1.31-2.13-1.89-7.83-5.42-15.19-8.17-21.9-8.17-6.12 0-11.41 2.26-15.74 6.73-11.99 12.38-14.01 39.48-5.82 69.8h.91c-8.18-30.19-6.24-57.13 5.64-69.38zm326.41 68.62c4.7-4.63 9.88-8.34 15.75-10.5 1.86-.68 3.84-1.2 5.87-1.64-7.43 4.54-14.65 8.6-21.62 12.14zM28.65 177.42c-1.38-17.62 1.8-32.21 9.48-40.14 3.81-3.94 8.47-5.93 13.84-5.93h.14c.47 3.63-.59 8.07-2.84 13.2-2.75 3.1-4.88 7.1-6.35 11.85-3.92 6.39-8.83 13.45-14.27 21.02zm18.75-28.95c-.66 1.08-1.28 2.22-1.84 3.44.56-1.22 1.18-2.36 1.84-3.44zm-5.84 34.22c-.77-9.91-.04-18.8 2.18-26.01 2.58-4.22 4.7-8.14 6.29-11.76.22-.24.41-.52.64-.75 3.66-3.79 8.13-5.7 13.29-5.7.04 0 .08 0 .12.01.45 3.48-.57 7.74-2.72 12.66-2.64 2.98-4.69 6.82-6.11 11.38-3.76 6.14-8.47 12.91-13.69 20.17zm17.75-27.31c-.33.57-.64 1.16-.94 1.76.3-.6.61-1.19.94-1.76zm11.1 7.3c.15-.29.3-.59.46-.87-.16.28-.31.58-.46.87zm2.59-5.24c-2.55 2.88-4.53 6.58-5.89 10.98-3.61 5.88-8.13 12.37-13.13 19.32-.73-9.5-.02-18.04 2.11-24.95 2.47-4.04 4.49-7.79 6.02-11.25.21-.25.41-.53.63-.76 3.51-3.63 7.8-5.48 12.77-5.48h.09c.43 3.35-.54 7.43-2.6 12.14zm43.63 21.51c1.28-3.32 1.86-6.25 1.6-8.74 2.21.11 4.52.61 6.93 1.57.79.94 1.28 2.04 1.53 3.26-3.86.02-7.22 1.37-10.06 3.91zm9.53 5.19c1.2-3.15 1.75-5.93 1.51-8.31 1.18.06 2.39.25 3.63.56 1.34 1.03 2.74 2.04 4.16 3.06.11.32.23.64.3.98-3.67.03-6.88 1.32-9.6 3.71zm3.81-8.8c-.8-.13-1.58-.2-2.36-.23-.14-.78-.37-1.51-.71-2.19.99.81 2.04 1.62 3.07 2.42zm-.83-1.66c1.19.66 2.38 1.38 3.61 2.23.09.06.15.15.24.21-.4-.12-.79-.23-1.18-.33-.91-.7-1.79-1.41-2.67-2.11zm4.17 3.29c.33.12.66.23.99.36.17.2.28.44.42.65-.46-.33-.95-.67-1.41-1.01zm2 12.18c1.14-3 1.67-5.66 1.44-7.93.48.03.97.08 1.46.15 1.01.69 1.95 1.4 2.99 2.09 1.09.71 2.16 1.36 3.24 2 .01.06.03.11.04.16-3.5.03-6.57 1.25-9.17 3.53zm5.4-8c-.8-.61-1.58-1.23-2.35-1.85 1.06.6 2.14 1.24 3.23 2 .07.04.11.1.18.15-.36-.11-.71-.21-1.06-.3zm.09 1.07c-.25-.16-.47-.33-.72-.5.04.01.09.03.13.04.2.15.39.31.59.46zm-1.91-1.5c-.09-.01-.19-.01-.28-.03-.8-.55-1.59-1.09-2.37-1.64-.07-.19-.1-.39-.18-.56.91.74 1.88 1.49 2.83 2.23zm-1.88-.19c-.1 0-.21-.02-.32-.03-.02-.07-.03-.15-.04-.22.12.08.24.17.36.25zm5.2 1.8c.29.11.58.21.88.32.14.18.24.39.36.58-.41-.3-.84-.6-1.24-.9zm2.09.06c-29.89-25.03-36.34-52.31-28.64-68.87 3.55-7.64 9.83-12.01 17.24-12.01 3.51 0 7.06.99 10.57 2.85.57.82 1.15 1.6 1.71 2.47.67 1.07 1.39 2.08 2.1 3.1-1.84-.51-3.69-.85-5.53-.85-7.52 0-13.87 4.37-17.4 12-7.08 15.25-1.83 39.81 23.31 62.98-1.14-.65-2.26-1.19-3.36-1.67zm2.94 3.48c-.76-.52-1.52-1.05-2.26-1.57-.06-.16-.08-.34-.16-.49.86.7 1.76 1.39 2.65 2.08-.08-.01-.15-.01-.23-.02zm1.48 1.03l.04.01c.07.06.13.11.2.16-.08-.06-.16-.11-.24-.17zm.56-.58c-.72-.55-1.41-1.1-2.1-1.66.97.56 1.94 1.12 2.93 1.81.06.04.09.09.14.12-.33-.1-.65-.19-.97-.27zm1.49 1.17c.26.09.52.19.78.29.12.15.2.33.31.49-.36-.26-.74-.52-1.09-.78zm2.62 1.85c-.05-.13-.07-.28-.13-.4.33.27.69.54 1.03.81-.3-.13-.6-.28-.9-.41zm3.44 1.4l-1.1-.86c.64.37 1.27.75 1.92 1.18-.27-.09-.55-.22-.82-.32zm-6.56-73.72c-7.24 0-13.34 4.22-16.74 11.56-6.82 14.65-1.78 38.21 22.3 60.46-1.05-.59-2.08-1.09-3.1-1.52-28.72-24.06-34.92-50.28-27.53-66.19 3.4-7.34 9.44-11.55 16.55-11.55 2.04 0 4.1.4 6.15 1.06 1.6 2.25 3.29 4.39 5.05 6.43-.9-.12-1.79-.25-2.68-.25zm-1.05-5.75c.9.35 1.79.77 2.69 1.25.54.79 1.1 1.53 1.63 2.37.65 1.01 1.33 1.97 2 2.94-.44-.12-.88-.27-1.33-.36-1.73-1.98-3.41-4.02-4.99-6.2zm5.86 7.18c.37.1.72.19 1.09.3.91 1.29 1.86 2.54 2.83 3.75-1.34-1.29-2.65-2.65-3.92-4.05zm7.11 6.64c-1.63-1.89-3.22-3.83-4.72-5.9.85.33 1.69.72 2.53 1.16.52.77 1.06 1.49 1.57 2.3.61.96 1.26 1.87 1.9 2.79-.43-.12-.86-.27-1.28-.35zm1.18 1.35c-.11-.12-.21-.25-.32-.37.35.09.7.18 1.05.29.39.56.8 1.1 1.2 1.64-.65-.51-1.29-1.03-1.93-1.56zm6.54 5.98c-.1-.11-.2-.22-.3-.34l.69.45c-.13-.03-.26-.08-.39-.11zm-2.13-2.55c-.8-1-1.59-2.01-2.36-3.06.79.31 1.59.68 2.38 1.1.5.73 1.01 1.41 1.5 2.19.34.52.7 1.01 1.05 1.53-.87-.57-1.73-1.15-2.57-1.76zm3.84 4.5c-.29-.31-.56-.65-.85-.96.33.08.64.16.96.27.46.63.92 1.25 1.39 1.86-.5-.39-1.01-.77-1.5-1.17zm5.72 5.11c-.06-.08-.13-.16-.2-.24.16.11.31.21.47.31-.09-.02-.18-.06-.27-.07zm-1.71-2.02c-.8-.99-1.58-2-2.34-3.04.8.47 1.62.92 2.44 1.37.33.5.68.95 1.01 1.46.38.61.79 1.17 1.19 1.76-.77-.51-1.55-1.01-2.3-1.55zm3.35 3.88c-.27-.29-.51-.59-.77-.88.29.08.58.15.87.25.41.58.84 1.14 1.27 1.7-.46-.36-.92-.7-1.37-1.07zm5.53 4.92c-.04-.04-.08-.08-.11-.12.08.05.16.1.24.16-.04-.01-.09-.03-.13-.04zm-1.64-1.92c-.75-.93-1.48-1.89-2.2-2.86.73.43 1.48.84 2.23 1.25.32.48.65.91.97 1.41.35.55.73 1.06 1.09 1.6-.7-.46-1.4-.91-2.09-1.4zm-.72-4.19c.69.64 1.36 1.37 2.04 2.09-.34-.2-.68-.44-1.03-.63-.34-.48-.67-.99-1.01-1.46zm2.53 3.66c-.04-.05-.08-.1-.11-.16.48.25.98.47 1.47.71.86 1.03 1.7 2.11 2.54 3.27-.61-.28-1.22-.55-1.83-.75-.7-1.01-1.4-2.01-2.07-3.07zm1.45 4.3c-.26-.28-.51-.58-.76-.87.25.07.5.13.75.21.37.52.75 1.03 1.13 1.54-.37-.3-.76-.58-1.12-.88zm5.24 4.66l-.02-.01s.02.01.03.01h-.01zm-1.58-1.85c-.71-.88-1.4-1.77-2.07-2.69.68.4 1.38.79 2.08 1.17.31.46.62.87.93 1.35.32.51.67.98 1 1.48-.65-.43-1.31-.86-1.94-1.31zm343.31-9.78c-.41.09-.8.18-1.25.24-.01-1.27-.32-2.49-.97-3.64-.79-1.39-2.12-2.63-3.79-3.76 3.41.79 6.53 1.28 9.23 1.28.52 0 .97-.06 1.45-.09-.08.87-.26 1.75-.63 2.67-1.35 1.06-2.69 2.16-4.04 3.3zm3.22-1.68c-.15.26-.32.52-.49.78-.29.14-.6.26-.91.38.46-.39.93-.78 1.4-1.16zm76.27 15.03c.32-1.46.29-2.91-.13-4.34-2.22-7.54-14.82-12.59-31.35-12.59-10.3 0-34.07 2.14-59.99 18.99.69-.75 1.29-1.49 1.8-2.22 28.74-20.68 55.78-23.19 67.08-23.19 16.75 0 29.51 5.04 31.72 12.54.68 2.28.33 4.63-.93 6.99-2.86 1.22-5.61 2.49-8.2 3.82zm7.57-2.76c-.46.7-.99 1.39-1.6 2.09-.99.41-1.99.81-3.03 1.21-1.26.48-2.44 1-3.65 1.5.15-.33.28-.67.39-1 2.51-1.32 5.12-2.59 7.89-3.8zm-14.32 7.49c1.68-1.04 3.43-2.06 5.24-3.04-.12.3-.36.59-.52.89-1.62.7-3.18 1.42-4.72 2.15zm4.1-1.1c-.43.66-.96 1.32-1.54 1.97-.91.37-1.82.75-2.77 1.11-1.21.46-2.33.95-3.49 1.44.13-.31.23-.61.34-.91 2.38-1.25 4.85-2.46 7.46-3.61zm-7.1 2.08c.2-1.23.23-2.46-.13-3.68-2.14-7.24-14.25-12.11-30.16-12.11-9.67 0-31.76 1.99-56.03 17.24.22-.5.48-1.01.74-1.51 27.38-19.48 53.07-21.87 63.85-21.87 16.1 0 28.34 4.83 30.46 12.04.47 1.59.33 3.21-.18 4.84-3.03 1.6-5.89 3.29-8.55 5.05zm-4.02 3.84c.54-.41 1.1-.81 1.65-1.21.29-.16.58-.32.87-.47-.12.26-.33.53-.47.8-.69.29-1.38.58-2.05.88zm1.43.18c-.42.62-.92 1.24-1.47 1.86-.87.35-1.74.71-2.65 1.06-.71.27-1.36.56-2.05.84.72-.65 1.48-1.29 2.24-1.92 1.29-.63 2.57-1.25 3.93-1.84zm-.38-1.93c-2.23 1.25-4.38 2.53-6.39 3.86.18-1.17.2-2.35-.14-3.5-2.06-6.97-13.71-11.66-29.01-11.66-8.65 0-27.58 1.65-48.93 13.63.17-.6.45-1.21.68-1.81 24.45-15.7 46.76-17.7 56.47-17.7 15.47 0 27.24 4.66 29.28 11.57.41 1.39.3 2.81-.07 4.23-.66.45-1.26.93-1.89 1.38zm-6.51 5.24c-.09.08-.18.15-.26.22.01-.03.01-.06.02-.09.08-.04.16-.09.24-.13zm-2.76.65c-2.14 1.19-4.2 2.41-6.14 3.69.18-1.12.19-2.23-.13-3.33-1.98-6.71-13.18-11.22-27.88-11.22-7.58 0-23.38 1.32-41.65 10.27.09-.67.23-1.33.39-2 21.45-12.25 40.49-13.89 49.14-13.89 14.87 0 26.17 4.47 28.12 11.11.4 1.33.29 2.69-.07 4.06-.62.42-1.18.87-1.78 1.31zm1.36.12c-.11.24-.3.48-.43.73-.61.26-1.23.52-1.83.78.48-.37.99-.73 1.49-1.09.25-.14.51-.28.77-.42zm-7.74 5c-.04.04-.08.07-.12.11l.01-.05c.04-.02.07-.04.11-.06zm-2.58.56c-2.03 1.13-3.99 2.3-5.83 3.52.16-1.08.17-2.14-.14-3.19-1.9-6.44-12.68-10.78-26.82-10.78-6.47 0-19.17 1.02-34.22 7.25-.01-.73-.03-1.45.04-2.19 18.34-9.12 34.21-10.44 41.78-10.44 14.26 0 25.11 4.28 27 10.66.38 1.28.27 2.59-.07 3.9-.6.41-1.16.85-1.74 1.27zm1.3.14c-.09.22-.26.44-.38.66-.54.23-1.1.46-1.63.69.44-.33.89-.65 1.33-.97.23-.13.46-.25.68-.38zm-9.86 5.29c-1.95 1.09-3.82 2.2-5.58 3.36.15-1.01.15-2.02-.14-3.02-1.84-6.2-12.21-10.38-25.8-10.38-5.29 0-14.91.71-26.57 4.59-.15-.79-.32-1.58-.37-2.38 15.07-6.32 27.79-7.34 34.23-7.34 13.7 0 24.14 4.11 25.94 10.24.36 1.22.27 2.47-.06 3.73-.57.39-1.1.8-1.65 1.2zm1.2.21c-.09.19-.23.38-.33.57-.48.2-.97.4-1.43.6.36-.27.73-.54 1.1-.81l.66-.36zm-78.41-1.64l-.06.01c-.03-.97-.28-1.91-.78-2.8-.59-1.03-1.57-1.95-2.76-2.8 2.56.57 4.92.94 6.97.94.37 0 .69-.05 1.04-.07-.01.09-.01.18-.03.27-.58.61-1.07 1.2-1.6 1.8-.23.22-.47.4-.71.62-.75.68-1.39 1.36-2.07 2.03zm1.41.43c-.04.03-.09.07-.14.1l.05-.05c.04-.04.07-.04.09-.05zm-1.14 1.87c-.2.2-.42.4-.63.6.04-.07.06-.13.1-.19l.53-.41zm-3.25 6.26c.14-.45.34-.92.52-1.38 1.18-.75 2.35-1.45 3.51-2.13-.1.5-.24 1.01-.3 1.52-1.23.62-2.48 1.29-3.73 1.99zm3.7-1.12c-.04.59-.05 1.17-.03 1.76-1.38.59-2.79 1.23-4.22 1.93.08-.53.19-1.05.32-1.58 1.32-.76 2.63-1.44 3.93-2.11zm-3.17-2.98c-.04.02-.09.04-.13.05.08-.06.15-.12.22-.18-.03.04-.06.09-.09.13zm-.07-1.77c-.25.23-.5.42-.76.65-.71.66-1.33 1.3-1.98 1.95l-.02.01c-.03-.94-.27-1.84-.75-2.7-.56-.97-1.48-1.84-2.6-2.65 2.43.54 4.68.89 6.62.89.35 0 .66-.04.98-.06 0 .08 0 .17-.02.25-.53.56-.99 1.11-1.47 1.66zm-2.76 5.08c-.07.07-.15.14-.22.21l.02-.04c.08-.07.14-.12.2-.17zm-138.28-22.35c-7.46 2.75-13.95 7.64-19.75 13.74-2.66 1.31-5.28 2.56-7.87 3.74 2.34-3.1 4.78-6.05 7.35-8.76 9.57-4.74 19.51-10.28 29.83-16.66 3.06-.5 6.28-.75 9.61-.79-.85.54-1.7 1.05-2.55 1.6-2.52 1.63-5.01 3.2-7.48 4.73-3.21.54-6.27 1.34-9.14 2.4zm7.29-1.28c-8.55 5.23-16.84 9.89-24.85 13.93 5.35-5.3 11.26-9.55 17.95-12.02 2.19-.81 4.51-1.41 6.9-1.91zm-133.54 19.95c.03-.04.07-.08.1-.12 2.1.9 4.28 1.69 6.51 2.37-.54.67-1.09 1.31-1.64 1.97-.63-.28-1.23-.59-1.84-.88-.05-.04-.1-.09-.15-.12-.97-1.17-1.97-2.27-2.98-3.22zm.3 1.46l-.07-.04c-.03-.05-.07-.09-.1-.14.06.06.12.12.17.18zm-15.78-14.61c.34.17.7.33 1.05.5.6.72 1.19 1.44 1.78 2.24-.06.06-.11.12-.16.19-.31-.13-.62-.26-.93-.36-.59-.84-1.18-1.69-1.74-2.57zm1.71 3.98v.01c-.23-.18-.44-.36-.66-.54-.13-.14-.25-.29-.37-.43.14.05.29.08.43.13.2.28.4.56.6.83zm.24-3.74c-.05-.04-.1-.09-.15-.12-1.27-1.53-2.56-2.93-3.89-4.12 2.6 1.14 5.3 2.11 8.08 2.96-.63.78-1.28 1.53-1.92 2.29-.72-.31-1.42-.67-2.12-1.01zm-6.22-3.43c-.63-.89-1.24-1.77-1.84-2.7l-.02-.03c.38.19.77.36 1.15.54.73.88 1.45 1.8 2.16 2.79-.48-.22-.97-.43-1.45-.6zm.12 1.63c-.2-.16-.4-.3-.59-.45-.22-.25-.44-.5-.67-.75.17.05.34.09.51.14.25.35.49.71.75 1.06zm-4.16-8.51c5.38 2.35 11.16 4.08 17.26 5.24-.84 1.11-1.69 2.19-2.55 3.26-3.65-1.09-7.13-2.45-10.45-4.04-.06-.05-.12-.11-.18-.15-1.33-1.6-2.69-3.06-4.08-4.31zm1.44 2.56c-.2-.11-.4-.25-.6-.36-.2-.29-.4-.59-.6-.87.4.39.8.81 1.2 1.23zm-7.97-8.93c8.27 3.64 17.41 5.91 27.28 6.81-1 1.42-2.02 2.83-3.06 4.21-7.06-1.28-13.62-3.38-19.66-6.27-.07-.06-.14-.13-.22-.19-1.42-1.7-2.86-3.24-4.34-4.56zm1.71 2.83c-.24-.15-.49-.32-.73-.45-.25-.35-.49-.72-.74-1.07.5.48.99 1 1.47 1.52zm330.56-9.64c-.92.84-1.71 1.66-2.54 2.49l-.24.03c-.02-1.21-.32-2.37-.94-3.47-.75-1.32-2.01-2.51-3.59-3.58 3.25.75 6.24 1.21 8.82 1.21.48 0 .91-.06 1.37-.09-.04.35-.06.69-.14 1.04-.92.8-1.83 1.53-2.74 2.37zm2.3-.95c-.01.03-.01.06-.03.09-.22.17-.44.33-.66.51.23-.21.46-.39.69-.6zm-.85 1.71c-.13.22-.27.44-.42.67-.24.12-.51.21-.78.31.4-.33.8-.66 1.2-.98zm-7.1 5.05c-.28.26-.57.48-.85.73-.88.81-1.64 1.6-2.44 2.4-.07.01-.13.02-.2.02-.02-1.16-.31-2.27-.91-3.32-.71-1.27-1.91-2.39-3.41-3.43 3.11.72 5.96 1.16 8.42 1.16.46 0 .87-.06 1.3-.08-.01.14-.01.27-.03.41-.68.71-1.27 1.41-1.88 2.11zm1.34-.12c0 .01 0 .02-.01.03-.06.05-.13.1-.19.15.06-.06.13-.12.2-.18zm-.82 1.64c-.12.19-.25.39-.38.59-.21.1-.44.18-.67.27.35-.29.7-.58 1.05-.86zm-1.94 1.95c-.25.18-.5.39-.75.58l.35-.5c.13-.03.27-.05.4-.08zm-.83 1.62c-.54.57-1.14 1.14-1.78 1.72.12-.2.21-.4.34-.6.48-.38.96-.75 1.44-1.12zm-4.01 1.21c-.28.25-.56.47-.84.73-.85.77-1.58 1.53-2.35 2.3-.05.01-.1.01-.15.02-.02-1.12-.29-2.19-.87-3.21-.67-1.19-1.81-2.25-3.22-3.23 2.95.67 5.66 1.09 8.01 1.09.44 0 .82-.05 1.23-.08-.01.13-.01.25-.03.37-.64.68-1.2 1.34-1.78 2.01zm.45 1.54c-.1.17-.22.33-.33.5-.17.09-.37.15-.55.23.29-.24.58-.49.88-.73zm-1.16 2.95l-.09.24c-.1.06-.2.13-.3.2.14-.15.26-.29.39-.44zm-14.08 10.22l-.07.01c-.02-1.02-.28-2.01-.81-2.94-.62-1.08-1.65-2.05-2.9-2.94 2.68.61 5.15.99 7.29.99.39 0 .73-.05 1.1-.07-.01.1-.01.2-.03.31-.59.62-1.11 1.24-1.65 1.85-.25.23-.5.43-.76.66-.78.72-1.46 1.42-2.17 2.13zm1.53.4c-.09.07-.18.15-.27.22.04-.06.08-.12.13-.19.04-.01.1-.02.14-.03zm-1.01 1.77c-.29.3-.62.6-.95.89.06-.09.1-.18.16-.27.26-.21.53-.41.79-.62zm-149.85-17.36c-7.77 2.86-14.53 7.96-20.57 14.3-2.78 1.38-5.52 2.68-8.23 3.92 2.43-3.24 4.97-6.31 7.66-9.14 9.96-4.94 20.32-10.71 31.07-17.36 3.2-.52 6.57-.78 10.05-.82-.9.57-1.8 1.11-2.7 1.69-2.61 1.69-5.21 3.33-7.78 4.92-3.34.56-6.52 1.39-9.5 2.49zm7.65-1.37c-8.95 5.48-17.63 10.35-26 14.58 5.57-5.54 11.74-9.99 18.74-12.57 2.29-.85 4.74-1.48 7.26-2.01zm150.45 7.9c-.28.25-.55.47-.83.72-.81.74-1.52 1.48-2.25 2.21-.04.01-.08.01-.12.02-.02-1.07-.29-2.09-.84-3.06-.64-1.14-1.73-2.16-3.06-3.09 2.82.64 5.41 1.04 7.65 1.04.42 0 .78-.05 1.17-.07-.02.11-.02.22-.03.33-.61.64-1.14 1.27-1.69 1.9zm.37 1.58c-.08.14-.19.27-.28.41-.13.07-.29.11-.43.18.24-.2.47-.4.71-.59zm-1.15 2.99c-.06.03-.12.07-.17.11.07-.08.14-.17.21-.25-.01.05-.03.09-.04.14zm4.46.66c-.05.7-.06 1.39-.03 2.09-1.6.68-3.23 1.42-4.88 2.23.08-.63.22-1.26.37-1.89 1.53-.87 3.04-1.67 4.54-2.43zm-5.11-1.92c-.15.11-.29.23-.44.34.07-.1.13-.19.21-.29.07-.02.15-.03.23-.05zm-.92 1.7c-.38.39-.82.78-1.25 1.18.08-.12.12-.25.2-.37.35-.28.7-.55 1.05-.81zm-156.48-24.46c-8.4 3.09-15.71 8.6-22.24 15.46-3.05 1.52-6.07 2.95-9.04 4.31 2.66-3.55 5.44-6.91 8.37-10.01 10.78-5.34 21.99-11.59 33.62-18.78 3.5-.58 7.19-.86 11.01-.9-1 .63-1.99 1.23-2.99 1.88-2.85 1.84-5.67 3.62-8.47 5.35-3.6.6-7.04 1.5-10.26 2.69zm8.41-1.57c-9.79 6-19.28 11.33-28.44 15.95 6.07-6.07 12.78-10.93 20.41-13.75 2.54-.93 5.25-1.63 8.03-2.2zm-125.22 28.4c2.45.19 4.93.32 7.47.34-1 1.51-2.02 3.01-3.06 4.5-2.48-.21-4.9-.51-7.26-.91.97-1.29 1.92-2.61 2.85-3.93zm-3.76 3.76c-2.49-.46-4.92-1-7.26-1.67.83-1.05 1.67-2.11 2.48-3.19 2.47.45 4.99.78 7.57 1.02-.91 1.29-1.85 2.57-2.79 3.84zm12.25-3.42c2.38-.01 4.84-.09 7.32-.25-1.07 1.71-2.17 3.42-3.29 5.11-2.43 0-4.8-.12-7.14-.29 1.06-1.51 2.09-3.03 3.11-4.57zm8.38-.33c2.34-.17 4.72-.44 7.12-.75-1.14 1.91-2.29 3.81-3.44 5.66-2.37.17-4.7.24-6.99.26 1.13-1.72 2.24-3.44 3.31-5.17zm99.56-33.7c-8.74 3.22-16.34 8.95-23.14 16.09-3.2 1.58-6.35 3.08-9.47 4.5 2.78-3.71 5.69-7.23 8.76-10.46 11.22-5.56 22.88-12.06 34.98-19.54 3.67-.6 7.53-.9 11.53-.94-1.06.67-2.12 1.31-3.18 1.99-2.95 1.92-5.88 3.76-8.79 5.56-3.76.63-7.33 1.56-10.69 2.8zm8.85-1.69c-10.25 6.28-20.19 11.86-29.78 16.7 6.33-6.35 13.34-11.44 21.31-14.37 2.68-.99 5.53-1.73 8.47-2.33zm-9.67-12.87c-9.46 3.49-17.68 9.69-25.04 17.42-3.5 1.73-6.96 3.38-10.37 4.93 3.04-4.06 6.21-7.9 9.56-11.43 12.15-6.02 24.77-13.06 37.86-21.15 4.02-.66 8.24-.99 12.62-1.03-1.18.75-2.35 1.45-3.53 2.22-3.19 2.06-6.36 4.06-9.5 6-4.08.68-7.96 1.69-11.6 3.04zm9.75-1.92c-11.23 6.88-22.09 12.98-32.58 18.25 6.9-6.93 14.54-12.49 23.23-15.69 2.95-1.09 6.1-1.91 9.35-2.56zm58.26 28.82c3.23-1.19 6.37-2.27 9.43-3.26 2.43.92 4.84 1.87 7.22 2.83-3.11.86-6.38 1.83-9.77 2.92-2.27-.86-4.57-1.69-6.88-2.49zm13.74 5.97c-2.98.83-6.11 1.76-9.35 2.8-2.18-.82-4.38-1.6-6.59-2.37 3.1-1.14 6.11-2.18 9.03-3.13 2.33.89 4.64 1.79 6.91 2.7zm-82.17-40.6c-9.84 3.63-18.4 10.08-26.05 18.12-3.67 1.81-7.29 3.54-10.86 5.16 3.16-4.23 6.47-8.24 9.97-11.93 12.65-6.26 25.8-13.59 39.44-22.02 4.19-.69 8.59-1.03 13.16-1.07-1.24.78-2.47 1.53-3.71 2.33-3.33 2.15-6.63 4.23-9.9 6.25-4.24.71-8.27 1.76-12.05 3.16zm10.19-2.03c-11.73 7.19-23.08 13.55-34.03 19.06 7.19-7.24 15.15-13.05 24.21-16.39 3.1-1.14 6.4-1.99 9.82-2.67zm-10.66-6.01c-10.23 3.78-19.13 10.5-27.1 18.87-3.82 1.89-7.61 3.69-11.34 5.38 3.31-4.42 6.77-8.62 10.42-12.47 13.16-6.51 26.83-14.13 41.01-22.9 4.38-.72 8.99-1.08 13.77-1.11-1.3.82-2.61 1.6-3.92 2.45-3.46 2.24-6.88 4.4-10.29 6.5-4.41.74-8.6 1.83-12.55 3.28zm10.71-2.16c-12.27 7.52-24.13 14.18-35.58 19.94 7.5-7.57 15.81-13.65 25.27-17.14 3.25-1.2 6.72-2.09 10.31-2.8zm62.06-2.22c3.01.92 6.02 1.89 9.01 2.92-3.74 1.4-7.55 2.9-11.45 4.53-2.93-.89-5.86-1.72-8.8-2.48 3.8-1.77 7.54-3.42 11.24-4.97zm-12.38 4.68c-3.04-.77-6.07-1.47-9.09-2.07 3.75-1.93 7.48-3.78 11.16-5.51 3.07.79 6.14 1.64 9.21 2.56-3.71 1.57-7.47 3.24-11.28 5.02zm12.32-5.46c-3.07-.93-6.14-1.8-9.21-2.6 3.97-1.84 7.88-3.56 11.74-5.18 3.15.96 6.29 1.97 9.42 3.05-3.91 1.46-7.89 3.03-11.95 4.73zm-10.35-2.89c-3.17-.8-6.34-1.53-9.5-2.16 3.92-2.01 7.81-3.95 11.64-5.75 3.22.82 6.43 1.71 9.63 2.68-3.87 1.64-7.79 3.37-11.77 5.23zm-10.69-2.39c-3.4-.65-6.77-1.19-10.13-1.6 4-2.26 7.96-4.38 11.89-6.42 3.3.64 6.61 1.38 9.93 2.21-3.85 1.82-7.76 3.78-11.69 5.81zm-11.41-1.75c-3.69-.42-7.34-.67-10.95-.73 4.13-2.56 8.24-5.05 12.32-7.37 3.52.4 7.05.94 10.61 1.6-3.97 2.07-7.96 4.21-11.98 6.5zm-12.34-.77c-.18 0-.35-.01-.52-.01-4.5 0-8.81.35-12.97.96 3.13-1.95 6.28-3.94 9.46-5.99 1.66-1.08 3.31-2.08 4.97-3.12 3.78.03 7.63.27 11.51.68-4.13 2.36-8.29 4.88-12.45 7.48zm-4.61-5.58c-3.61 2.33-7.18 4.58-10.72 6.77-4.59.77-8.95 1.91-13.05 3.42-10.65 3.92-19.9 10.91-28.19 19.61-4.01 1.99-7.97 3.87-11.88 5.65 11.2-14.99 24.1-27.47 39.96-33.32 8.35-3.07 17.77-4.64 27.98-4.7-1.37.86-2.73 1.68-4.1 2.57zm-12.58 7.89c-12.8 7.86-25.2 14.81-37.16 20.82 7.82-7.9 16.49-14.24 26.36-17.88 3.41-1.26 7.04-2.2 10.8-2.94zm-40.81 23.45c-3.48 3.79-6.79 7.89-9.95 12.18-2.94 1.32-5.85 2.58-8.74 3.77 2.37-3.63 4.8-7.18 7.32-10.61 3.74-1.68 7.54-3.47 11.37-5.34zm53.51-22.04c1.6-1.03 3.2-2 4.79-3 3.62.03 7.29.26 11 .65-3.96 2.27-7.95 4.68-11.95 7.18-.15 0-.31-.02-.47-.02-4.3 0-8.42.34-12.4.91 2.99-1.86 6-3.76 9.03-5.72zm17.04-2.21c3.37.39 6.76.9 10.17 1.54-3.81 1.98-7.63 4.04-11.49 6.23-3.54-.4-7.04-.63-10.5-.7 3.96-2.45 7.9-4.84 11.82-7.07zm11.36 1.77c3.16.61 6.32 1.32 9.48 2.11-3.69 1.74-7.44 3.62-11.21 5.57-3.24-.62-6.46-1.14-9.66-1.53 3.83-2.16 7.62-4.2 11.39-6.15zm-1.55 8.44c3.01.58 6.04 1.26 9.07 2.01-3.54 1.67-7.13 3.47-10.74 5.34-3.1-.6-6.18-1.09-9.24-1.47 3.66-2.07 7.3-4.01 10.91-5.88zm10.2 2.3c2.94.76 5.89 1.57 8.82 2.46-3.55 1.5-7.15 3.09-10.8 4.8-2.91-.74-5.81-1.4-8.7-1.98 3.59-1.85 7.16-3.63 10.68-5.28zm9.93 2.8c2.88.88 5.75 1.8 8.61 2.78-3.59 1.35-7.24 2.78-10.96 4.35-2.8-.85-5.61-1.65-8.41-2.38 3.63-1.69 7.22-3.27 10.76-4.75zm-2.27 7.91c2.75.84 5.5 1.73 8.23 2.66-3.43 1.29-6.92 2.67-10.49 4.16-2.68-.81-5.36-1.57-8.04-2.27 3.48-1.61 6.91-3.12 10.3-4.55zm9.32 3.04c2.75.96 5.48 1.94 8.2 2.96-3.49 1.14-7.08 2.38-10.76 3.75-2.63-.91-5.27-1.77-7.92-2.59 3.57-1.48 7.05-2.84 10.48-4.12zm-.02-.78c-2.74-.94-5.5-1.84-8.27-2.7 3.72-1.55 7.37-2.97 10.94-4.31 2.88 1 5.74 2.03 8.57 3.09-3.64 1.19-7.39 2.49-11.24 3.92zm2.65-7.79c-2.87-.99-5.76-1.93-8.65-2.82 3.89-1.62 7.7-3.11 11.43-4.5 3 1.04 5.99 2.11 8.95 3.23-3.8 1.24-7.71 2.6-11.73 4.09zm2.76-8.11c-3-1.03-6.02-2.01-9.05-2.95 4.06-1.69 8.04-3.25 11.94-4.7 3.14 1.09 6.27 2.22 9.36 3.38-3.96 1.3-8.05 2.72-12.25 4.27zm2.87-8.42c-3.13-1.09-6.29-2.11-9.45-3.09 4.24-1.77 8.39-3.39 12.46-4.91 3.29 1.14 6.56 2.31 9.79 3.53-4.14 1.35-8.41 2.84-12.8 4.47zm-10.55-3.43c-3.21-.98-6.41-1.88-9.62-2.72 4.14-1.92 8.23-3.72 12.26-5.42 3.29 1.01 6.57 2.07 9.84 3.19-4.08 1.53-8.24 3.17-12.48 4.95zm-10.77-3.01c-3.32-.84-6.63-1.6-9.94-2.26 4.09-2.1 8.16-4.13 12.17-6.01 3.36.86 6.72 1.8 10.08 2.81-4.05 1.71-8.15 3.52-12.31 5.46zm-11.13-2.49c-3.54-.68-7.07-1.24-10.57-1.67 4.18-2.36 8.31-4.57 12.43-6.71 3.44.67 6.9 1.44 10.36 2.31-4.03 1.9-8.11 3.95-12.22 6.07zm-11.87-1.82c-3.86-.43-7.68-.69-11.45-.76 4.31-2.68 8.61-5.28 12.88-7.71 3.68.42 7.38.99 11.1 1.68-4.15 2.16-8.32 4.4-12.53 6.79zm-12.84-.8c-.18 0-.36-.01-.54-.01-10.58 0-20.33 1.62-28.97 4.79-16.44 6.07-29.7 19.12-41.17 34.7-3.07 1.37-6.11 2.69-9.12 3.93 13.58-20.9 29.47-39.39 50.17-47.02 8.87-3.28 18.88-4.94 29.77-4.94 4.23 0 8.53.28 12.87.74-4.31 2.47-8.66 5.1-13.01 7.81zm-71.59 40.7c-2.46 3.39-4.82 6.9-7.12 10.47-2.64 1.07-5.25 2.1-7.84 3.07 1.97-3.28 3.97-6.53 6.03-9.73 2.95-1.21 5.92-2.47 8.93-3.81zm-7.82 11.54c-1.94 3.03-3.82 6.12-5.67 9.22-2.42.89-4.81 1.75-7.18 2.54 1.67-2.92 3.38-5.85 5.12-8.76 2.55-.95 5.13-1.95 7.73-3zm1.36-.54c2.82-1.16 5.66-2.37 8.54-3.64-2.35 3.24-4.61 6.59-6.81 10-2.52 1.03-5.02 2.02-7.5 2.95 1.88-3.14 3.8-6.25 5.77-9.31zm10.13-4.37c3.56-1.6 7.18-3.3 10.83-5.09-3.33 3.63-6.48 7.55-9.51 11.65-2.8 1.26-5.58 2.46-8.32 3.59 2.26-3.47 4.59-6.87 7-10.15zm62.35-26.32c1.53-.99 3.06-1.92 4.59-2.87 3.46.02 6.98.24 10.54.61-3.8 2.18-7.61 4.49-11.44 6.88-.16 0-.31-.01-.47-.01-4.11 0-8.06.32-11.87.87 2.87-1.78 5.74-3.6 8.65-5.48zm16.39-2.11c3.21.37 6.45.86 9.7 1.47-3.64 1.9-7.31 3.86-11 5.96-3.38-.37-6.71-.6-10.01-.67 3.78-2.35 7.56-4.62 11.31-6.76zm-1.08 8.18c3.07.35 6.17.82 9.28 1.4-3.48 1.82-6.99 3.7-10.53 5.71-3.23-.36-6.42-.58-9.58-.64 3.62-2.24 7.24-4.43 10.83-6.47zm10.47 1.63c2.89.56 5.78 1.2 8.68 1.93-3.39 1.6-6.82 3.32-10.28 5.1-2.96-.57-5.91-1.04-8.84-1.4 3.5-1.98 6.98-3.84 10.44-5.63zm9.83 2.22c2.81.72 5.62 1.5 8.42 2.34-3.4 1.44-6.84 2.96-10.34 4.6-2.77-.71-5.54-1.34-8.31-1.9 3.44-1.76 6.86-3.46 10.23-5.04zm-1.81 7.71c2.69.69 5.37 1.43 8.06 2.24-3.26 1.38-6.56 2.83-9.91 4.4-2.65-.67-5.3-1.28-7.93-1.81 3.29-1.69 6.56-3.32 9.78-4.83zm9.16 2.57c2.63.81 5.26 1.66 7.88 2.55-3.29 1.24-6.64 2.55-10.06 3.99-2.55-.78-5.12-1.51-7.68-2.18 3.33-1.54 6.62-2.99 9.86-4.36zm8.96 2.93c2.63.91 5.24 1.85 7.83 2.83-3.33 1.09-6.77 2.28-10.3 3.59-2.51-.87-5.03-1.69-7.56-2.47 3.42-1.42 6.76-2.73 10.03-3.95zm8.91 3.24c2.66 1.01 5.3 2.04 7.91 3.1-3.4.93-6.98 2-10.68 3.19-2.49-.94-5-1.85-7.53-2.73 3.53-1.3 6.97-2.48 10.3-3.56zm-11.37 3.96c2.52.87 5.02 1.77 7.5 2.7-3.19 1.04-6.48 2.18-9.86 3.44-2.4-.83-4.82-1.62-7.24-2.37 3.27-1.36 6.47-2.6 9.6-3.77zm8.58 3.11c2.54.97 5.07 1.96 7.56 2.96-3.26.9-6.68 1.92-10.23 3.06-2.37-.9-4.78-1.77-7.19-2.61 3.38-1.25 6.67-2.38 9.86-3.41zm-1.59 6.44c3.56-1.13 6.99-2.15 10.24-3.03 2.65 1.08 5.27 2.16 7.84 3.26-3.32.72-6.94 1.61-10.78 2.64-2.4-.97-4.84-1.93-7.3-2.87zm2.69-6.8c3.72-1.18 7.3-2.24 10.7-3.16 2.77 1.12 5.51 2.26 8.2 3.4-3.47.76-7.25 1.69-11.27 2.77-2.51-1.02-5.06-2.02-7.63-3.01zm2.8-7.07c3.88-1.24 7.62-2.35 11.17-3.31 2.9 1.18 5.77 2.37 8.58 3.56-3.62.79-7.58 1.76-11.76 2.89-2.63-1.07-5.3-2.12-7.99-3.14zm-1.07-.42c-2.6-.98-5.23-1.94-7.87-2.86 3.68-1.36 7.27-2.59 10.75-3.71 2.78 1.05 5.55 2.13 8.27 3.23-3.55.98-7.29 2.1-11.15 3.34zm-5.34-10.35c3.86-1.42 7.6-2.7 11.24-3.88 2.91 1.11 5.8 2.24 8.66 3.39-3.71 1.02-7.62 2.19-11.66 3.49-2.72-1.03-5.47-2.03-8.24-3zm2.66-7.79c4.03-1.48 7.94-2.82 11.74-4.05 3.04 1.15 6.06 2.34 9.04 3.54-3.87 1.07-7.95 2.28-12.17 3.64-2.85-1.08-5.72-2.12-8.61-3.13zm2.76-8.1c4.2-1.55 8.29-2.96 12.25-4.24 3.18 1.21 6.34 2.45 9.45 3.7-4.05 1.11-8.3 2.39-12.71 3.8-2.97-1.12-5.97-2.21-8.99-3.26zm2.86-8.43c4.39-1.62 8.66-3.09 12.8-4.43 3.33 1.26 6.62 2.56 9.88 3.87-4.22 1.16-8.67 2.49-13.27 3.97-3.11-1.18-6.25-2.31-9.41-3.41zm3-8.78c4.58-1.69 9.03-3.22 13.35-4.62 3.48 1.32 6.93 2.68 10.33 4.05-4.4 1.21-9.05 2.6-13.85 4.14-3.25-1.23-6.54-2.42-9.83-3.57zm-1.09-.38c-3.28-1.13-6.57-2.2-9.88-3.22 4.43-1.85 8.76-3.55 13.01-5.13 3.43 1.19 6.85 2.42 10.23 3.7-4.32 1.4-8.78 2.95-13.36 4.65zm-10.98-3.56c-3.35-1.02-6.7-1.97-10.06-2.84 4.33-2.01 8.6-3.89 12.8-5.66 3.44 1.05 6.87 2.16 10.29 3.33-4.26 1.6-8.6 3.31-13.03 5.17zm-11.2-3.13c-3.47-.88-6.93-1.68-10.38-2.36 4.27-2.2 8.51-4.31 12.7-6.28 3.51.9 7.02 1.88 10.52 2.93-4.22 1.79-8.5 3.68-12.84 5.71zm-11.58-2.59c-3.71-.72-7.4-1.3-11.06-1.75 4.36-2.46 8.68-4.78 12.98-7 3.6.7 7.22 1.5 10.83 2.41-4.2 1.98-8.46 4.12-12.75 6.34zm-12.35-1.9c-4.69-.52-9.34-.84-13.9-.84-11.03 0-21.16 1.68-30.14 4.99-21.25 7.83-37.42 26.87-51.2 48.25-2.77 1.13-5.51 2.21-8.22 3.23 15.67-26.17 34.02-50.95 59.26-60.26 9.23-3.4 19.64-5.12 30.97-5.12 8.55 0 17.39.99 26.31 2.67-4.33 2.25-8.68 4.59-13.08 7.08zm-95.93 53.47c-2.03 3.17-4 6.4-5.93 9.64-2.54.94-5.05 1.83-7.54 2.66 1.75-3.05 3.54-6.11 5.35-9.15 2.68-1 5.39-2.05 8.12-3.15zm-6.52 10.63c-1.72 2.9-3.41 5.8-5.06 8.7-2.4.79-4.77 1.54-7.12 2.23 1.55-2.76 3.11-5.53 4.7-8.32 2.46-.81 4.96-1.69 7.48-2.61zm-5.59 9.63c-1.51 2.65-3 5.29-4.46 7.91-2.32.66-4.61 1.28-6.87 1.85.95-1.69 1.89-3.38 2.86-5.11.46-.81.92-1.64 1.38-2.46 2.34-.68 4.7-1.41 7.09-2.19zm1.2-.38c2.35-.78 4.73-1.61 7.13-2.49-1.64 2.77-3.26 5.55-4.85 8.33-2.28.75-4.54 1.46-6.77 2.12 1.48-2.64 2.97-5.29 4.49-7.96zm8.39-2.94c2.44-.9 4.91-1.87 7.39-2.87-1.85 2.91-3.65 5.86-5.42 8.83-2.31.86-4.61 1.68-6.88 2.44 1.61-2.81 3.25-5.61 4.91-8.4zm8.77-3.41c2.68-1.1 5.39-2.25 8.12-3.46-2.24 3.1-4.4 6.31-6.51 9.57-2.4.98-4.78 1.92-7.14 2.81 1.8-3.01 3.64-5.99 5.53-8.92zm9.72-4.19c3.41-1.53 6.86-3.16 10.35-4.87-3.18 3.48-6.2 7.23-9.1 11.16-2.68 1.2-5.33 2.34-7.96 3.43 2.16-3.33 4.4-6.58 6.71-9.72zm59.92-25.29c1.48-.95 2.95-1.84 4.42-2.76 3.31.02 6.66.23 10.06.58-3.64 2.09-7.29 4.3-10.96 6.59-.14 0-.28-.01-.42-.01-3.94 0-7.7.31-11.33.82 2.72-1.7 5.46-3.43 8.23-5.22zm3.83 5.12c3.17.02 6.38.22 9.63.56-3.48 1.99-6.98 4.11-10.49 6.3-.14 0-.28-.01-.42-.01-3.75 0-7.35.3-10.83.79 2.61-1.62 5.23-3.28 7.87-4.99 1.42-.91 2.83-1.77 4.24-2.65zm10.88.7c2.94.34 5.9.79 8.88 1.34-3.34 1.75-6.7 3.55-10.09 5.48-3.08-.35-6.14-.56-9.16-.62 3.47-2.15 6.93-4.24 10.37-6.2zm10.08 1.57c2.76.54 5.52 1.15 8.29 1.84-3.24 1.54-6.53 3.19-9.84 4.9-2.83-.55-5.65-1-8.45-1.34 3.36-1.9 6.69-3.68 10-5.4zm-1.37 7.5c2.63.51 5.27 1.1 7.92 1.76-3.11 1.47-6.26 3.05-9.43 4.68-2.7-.52-5.39-.95-8.06-1.28 3.21-1.81 6.4-3.52 9.57-5.16zm9.06 2.05c2.57.66 5.14 1.37 7.7 2.14-3.12 1.32-6.27 2.72-9.48 4.21-2.53-.64-5.06-1.22-7.59-1.73 3.15-1.61 6.28-3.17 9.37-4.62zm8.81 2.48c2.52.77 5.03 1.58 7.52 2.43-3.14 1.18-6.35 2.44-9.62 3.81-2.44-.74-4.89-1.43-7.34-2.07 3.19-1.48 6.34-2.87 9.44-4.17zm-2.03 7.02c2.41.74 4.81 1.51 7.2 2.33-3.01 1.13-6.08 2.34-9.21 3.65-2.34-.71-4.68-1.37-7.02-1.98 3.05-1.42 6.06-2.75 9.03-4zm8.27 2.71c2.4.83 4.79 1.69 7.16 2.58-3.06 1-6.2 2.09-9.43 3.29-2.29-.79-4.6-1.55-6.91-2.26 3.12-1.3 6.18-2.49 9.18-3.61zm4.58 9.11c-2.93.96-5.94 2-9.03 3.15-2.21-.76-4.42-1.46-6.64-2.14 3-1.25 5.93-2.4 8.81-3.47 2.3.8 4.59 1.61 6.86 2.46zm-2.48 6.28c-2.8.91-5.68 1.91-8.64 3.01-2.1-.72-4.21-1.39-6.33-2.05 2.86-1.19 5.66-2.28 8.41-3.31 2.2.76 4.39 1.54 6.56 2.35zm1.07.42c2.21.84 4.42 1.7 6.59 2.57-2.85.79-5.84 1.68-8.94 2.68-2.08-.79-4.18-1.54-6.29-2.27 2.96-1.09 5.84-2.08 8.64-2.98zm1.1-.36c3.26-1.04 6.4-1.97 9.38-2.78 2.42.99 4.81 1.98 7.16 2.97-3.05.67-6.36 1.48-9.87 2.43-2.19-.89-4.42-1.77-6.67-2.62zm2.5-6.29c3.39-1.08 6.67-2.05 9.79-2.9 2.53 1.03 5.03 2.07 7.49 3.11-3.18.7-6.64 1.55-10.3 2.54-2.3-.94-4.63-1.85-6.98-2.75zm10.98-3.21c3.86-1.03 7.49-1.9 10.81-2.61 2.9 1.23 5.65 2.44 8.44 3.66-3.86.59-7.75 1.26-11.7 2.1-2.48-1.05-5-2.1-7.55-3.15zm3.02-6.66c4.04-1.08 7.84-1.99 11.31-2.73 3.02 1.29 5.91 2.56 8.83 3.83-4.03.61-8.11 1.31-12.24 2.2-2.58-1.11-5.22-2.21-7.9-3.3zm3.16-6.94c4.22-1.12 8.18-2.07 11.8-2.84 3.16 1.34 6.18 2.67 9.23 4-4.21.64-8.46 1.37-12.77 2.29-2.7-1.15-5.46-2.3-8.26-3.45zm3.26-7.21c4.41-1.18 8.55-2.17 12.34-2.98 3.31 1.41 6.46 2.8 9.66 4.19-4.4.67-8.84 1.43-13.35 2.4-2.83-1.21-5.72-2.42-8.65-3.61zm-1.09-.45c-2.75-1.11-5.53-2.21-8.34-3.29 4.05-1.29 7.96-2.44 11.67-3.45 3.03 1.23 6.02 2.48 8.96 3.72-3.78.83-7.91 1.84-12.29 3.02zm-5.32-10.94c4.23-1.35 8.31-2.56 12.19-3.61 3.17 1.29 6.3 2.59 9.38 3.9-3.95.86-8.26 1.91-12.84 3.15-2.87-1.17-5.79-2.32-8.73-3.44zm3.15-7.96c4.42-1.41 8.69-2.68 12.73-3.77 3.31 1.34 6.59 2.71 9.8 4.07-4.13.9-8.63 2-13.41 3.29-3-1.22-6.04-2.42-9.12-3.59zm3.28-8.29c4.61-1.47 9.07-2.79 13.29-3.94 3.46 1.41 6.88 2.83 10.23 4.26-4.3.94-9.01 2.08-14 3.43-3.14-1.27-6.31-2.52-9.52-3.75zm3.41-8.62c4.82-1.54 9.46-2.92 13.87-4.11 3.62 1.47 7.19 2.96 10.7 4.45-4.5.98-9.41 2.17-14.62 3.58-3.28-1.33-6.6-2.64-9.95-3.92zm3.55-8.97c5.03-1.6 9.87-3.04 14.47-4.29 3.78 1.54 7.52 3.1 11.18 4.65-4.69 1.03-9.81 2.27-15.25 3.74-3.42-1.39-6.9-2.76-10.4-4.1zm-1.08-.42c-3.4-1.28-6.83-2.52-10.27-3.73 4.78-1.76 9.42-3.36 13.93-4.82 3.63 1.38 7.23 2.8 10.79 4.23-4.6 1.26-9.44 2.71-14.45 4.32zm-11.36-4.11c-3.42-1.18-6.87-2.3-10.32-3.37 4.62-1.92 9.14-3.69 13.57-5.34 3.58 1.24 7.15 2.53 10.69 3.86-4.51 1.47-9.16 3.08-13.94 4.85zm-11.42-3.71c-3.5-1.06-7-2.05-10.51-2.96 4.51-2.1 8.96-4.06 13.34-5.9 3.6 1.1 7.19 2.26 10.75 3.48-4.43 1.66-8.96 3.45-13.58 5.38zm-11.66-3.25c-3.62-.92-7.24-1.75-10.85-2.47 4.45-2.29 8.88-4.5 13.25-6.54 3.66.94 7.33 1.96 10.99 3.06-4.4 1.86-8.86 3.83-13.39 5.95zm-12.04-2.7c-9.27-1.78-18.44-2.85-27.33-2.85-11.46 0-22.01 1.75-31.35 5.2-25.74 9.49-44.32 34.78-60.14 61.34-2.66.98-5.29 1.92-7.9 2.79 17.67-30.9 38.22-62.36 67.88-73.29 9.59-3.54 20.43-5.33 32.22-5.33 12.89 0 26.38 2.15 39.92 5.54-4.38 2.06-8.83 4.29-13.3 6.6zm-119.41 64.67c-1.79 3.03-3.56 6.07-5.29 9.1-2.51.83-5 1.61-7.45 2.33 1.61-2.88 3.24-5.78 4.9-8.69 2.59-.85 5.2-1.77 7.84-2.74zm-5.82 10.03c-1.57 2.77-3.13 5.53-4.66 8.26-2.42.7-4.82 1.35-7.2 1.94 1-1.77 1.99-3.54 3-5.34.47-.85.96-1.71 1.43-2.56 2.45-.71 4.93-1.48 7.43-2.3zm-5.16 9.15c-.34.62-.69 1.24-1.04 1.86-1.07 1.91-2.12 3.79-3.18 5.66-2.36.57-4.71 1.09-7.02 1.55 1.35-2.35 2.7-4.74 4.06-7.17 2.37-.58 4.76-1.21 7.18-1.9zm-4.7 8.38c-1.3 2.3-2.58 4.57-3.86 6.8-2.33.44-4.64.83-6.9 1.16 1.25-2.11 2.5-4.26 3.75-6.45 2.31-.45 4.65-.95 7.01-1.51zm1.14-.27c2.25-.55 4.54-1.16 6.85-1.81-.33.58-.66 1.17-.99 1.75-1.03 1.83-2.04 3.63-3.04 5.43-2.27.54-4.5 1.04-6.71 1.48 1.29-2.25 2.58-4.53 3.89-6.85zm6.69.22c.44-.78.88-1.57 1.32-2.36 2.23-.64 4.48-1.34 6.75-2.08-1.44 2.53-2.86 5.05-4.27 7.55-2.2.64-4.38 1.23-6.53 1.76.9-1.61 1.81-3.22 2.73-4.87zm9.27-4.82c2.25-.74 4.52-1.54 6.81-2.38-1.57 2.65-3.11 5.3-4.63 7.96-2.18.72-4.34 1.4-6.48 2.03 1.42-2.53 2.84-5.06 4.3-7.61zm8.08-2.83c2.32-.86 4.67-1.78 7.04-2.73-1.77 2.77-3.49 5.59-5.17 8.43-2.21.81-4.39 1.59-6.55 2.32 1.53-2.68 3.09-5.35 4.68-8.02zm8.41-3.28c2.57-1.04 5.15-2.14 7.76-3.3-2.13 2.96-4.2 6.02-6.2 9.14-2.3.93-4.58 1.83-6.83 2.68 1.71-2.87 3.47-5.71 5.27-8.52zm9.35-4.03c3.25-1.45 6.54-3.01 9.87-4.63-3.04 3.32-5.92 6.89-8.68 10.64-2.55 1.15-5.09 2.24-7.59 3.28 2.07-3.18 4.2-6.28 6.4-9.29zm11.91-5.63c11.69-5.79 23.83-12.56 36.44-20.35 3.83-.63 7.86-.95 12.03-.98-1.12.7-2.23 1.37-3.35 2.1-3.07 1.98-6.12 3.9-9.14 5.77-3.91.66-7.63 1.63-11.13 2.92-9.09 3.35-17 9.31-24.08 16.74-3.34 1.66-6.64 3.23-9.9 4.71 2.9-3.87 5.93-7.54 9.13-10.91zm34.13-12.33c-10.73 6.57-21.11 12.39-31.13 17.44 6.6-6.63 13.92-11.94 22.23-15.01 2.81-1.04 5.81-1.81 8.9-2.43zm11.16 1.11c1.36-.87 2.71-1.69 4.06-2.54 3.03.03 6.11.21 9.21.53-3.33 1.92-6.69 3.95-10.05 6.05-.13 0-.25-.01-.37-.01-3.6 0-7.05.28-10.38.75 2.49-1.55 5-3.14 7.53-4.78zm14.53-1.86c2.81.32 5.64.75 8.49 1.28-3.2 1.67-6.42 3.4-9.66 5.24-2.95-.33-5.87-.53-8.75-.59 3.32-2.06 6.63-4.06 9.92-5.93zm-.93 7.26c2.68.31 5.38.72 8.1 1.22-3.06 1.6-6.15 3.26-9.25 5.03-2.82-.32-5.6-.51-8.35-.57 3.18-1.97 6.35-3.88 9.5-5.68zm9.3 1.45c2.51.49 5.04 1.05 7.57 1.68-2.98 1.41-5.99 2.92-9.03 4.49-2.58-.5-5.15-.91-7.71-1.23 3.08-1.73 6.13-3.37 9.17-4.94zm8.72 1.97c2.45.63 4.9 1.31 7.35 2.05-2.99 1.26-6.01 2.6-9.08 4.03-2.42-.61-4.84-1.17-7.24-1.65 3.01-1.55 6.01-3.04 8.97-4.43zm-1.67 6.87c2.36.6 4.71 1.23 7.07 1.94-2.86 1.21-5.76 2.5-8.7 3.87-2.33-.59-4.66-1.09-6.98-1.56 2.89-1.49 5.77-2.92 8.61-4.25zm8.15 2.28c2.3.71 4.61 1.43 6.9 2.21-2.89 1.09-5.83 2.24-8.83 3.5-2.24-.68-4.49-1.29-6.74-1.88 2.93-1.36 5.82-2.63 8.67-3.83zm-1.87 6.49c2.2.68 4.4 1.37 6.59 2.11-2.76 1.04-5.56 2.14-8.43 3.35-2.14-.66-4.29-1.24-6.44-1.8 2.8-1.3 5.56-2.51 8.28-3.66zm-1.79 6.24c2.1.65 4.2 1.3 6.29 2.01-2.64 1-5.33 2.05-8.07 3.2-2.05-.62-4.09-1.17-6.14-1.71 2.67-1.24 5.32-2.4 7.92-3.5zm7.36 2.4c2.09.72 4.18 1.46 6.25 2.23-2.68.88-5.44 1.84-8.27 2.88-2-.69-4.01-1.32-6.03-1.95 2.74-1.14 5.42-2.18 8.05-3.16zm7.32 2.65c2.11.81 4.22 1.62 6.29 2.46-2.72.75-5.58 1.61-8.54 2.56-1.99-.75-4-1.46-6.01-2.17 2.83-1.04 5.58-1.98 8.26-2.85zm1.11-.36c3.11-.99 6.11-1.88 8.96-2.65 2.31.94 4.6 1.88 6.84 2.83-2.91.64-6.08 1.42-9.42 2.32-2.1-.85-4.23-1.68-6.38-2.5zm10.14-2.96c3.54-.95 6.87-1.75 9.92-2.4 2.64 1.13 5.15 2.23 7.7 3.34-3.53.55-7.1 1.16-10.71 1.93-2.26-.96-4.57-1.92-6.91-2.87zm2.82-6.16c3.69-.98 7.16-1.81 10.34-2.5 2.76 1.18 5.39 2.33 8.06 3.5-3.69.56-7.42 1.2-11.19 2.01-2.36-1.01-4.77-2.02-7.21-3.01zm11.61-2.77c3.98-.83 7.9-1.48 11.78-2.05 1.19.53 2.46 1.07 3.64 1.58 2.01.89 3.99 1.75 5.95 2.6-4.24.28-8.66.79-13.17 1.44-2.71-1.18-5.4-2.37-8.2-3.57zm15.86-1.09c-.86-.38-1.78-.77-2.66-1.15 4.8-.67 9.49-1.17 13.97-1.42 5.38 2.33 10.45 4.46 15.2 6.29-3.72-.51-7.85-.8-12.4-.8-2.23 0-4.56.09-6.92.22-2.35-1.02-4.74-2.07-7.19-3.14zm-3.9-1.69c-2.84-1.24-5.65-2.48-8.59-3.74 4.16-.87 8.26-1.55 12.31-2.15 1.25.55 2.56 1.11 3.78 1.64 2.13.94 4.21 1.85 6.27 2.74-4.43.29-9.06.82-13.77 1.51zm-5.08-10.53c4.34-.9 8.62-1.61 12.86-2.23 1.3.57 2.67 1.15 3.94 1.71 2.23.98 4.4 1.93 6.55 2.86-4.61.3-9.44.86-14.36 1.57-2.97-1.3-5.91-2.59-8.99-3.91zm3.64-7.04c4.55-.95 9.02-1.7 13.45-2.35 1.35.59 2.78 1.21 4.11 1.79 2.33 1.02 4.61 2.02 6.87 3-4.83.31-9.89.89-15.04 1.64-3.09-1.36-6.17-2.71-9.39-4.08zm3.81-7.35c4.74-1 9.41-1.77 14.03-2.45 1.42.62 2.91 1.26 4.3 1.87 2.44 1.07 4.83 2.11 7.18 3.13-5.04.32-10.32.93-15.69 1.71-3.24-1.41-6.46-2.82-9.82-4.26zm-1.15-.49c-2.95-1.26-5.97-2.52-9.03-3.76 4.6-1.23 8.93-2.27 12.88-3.12 3.46 1.48 6.76 2.93 10.1 4.39-4.59.69-9.24 1.49-13.95 2.49zm-5.49-11.57c4.81-1.29 9.33-2.37 13.45-3.26 3.63 1.55 7.08 3.07 10.57 4.59-4.8.73-9.65 1.56-14.57 2.61-3.09-1.32-6.25-2.64-9.45-3.94zm3.69-8.12c5.02-1.35 9.73-2.48 14.04-3.4 3.76 1.61 7.44 3.2 11.07 4.79-5.02.76-10.09 1.62-15.24 2.72-3.23-1.37-6.53-2.75-9.87-4.11zm3.84-8.46c5.24-1.4 10.16-2.58 14.66-3.54 3.93 1.68 7.77 3.34 11.57 5-5.25.79-10.55 1.7-15.92 2.84-3.37-1.43-6.82-2.87-10.31-4.3zm3.99-8.79c5.47-1.47 10.61-2.7 15.3-3.7 4.11 1.75 8.13 3.5 12.09 5.22-5.47.83-11 1.77-16.61 2.97-3.53-1.5-7.13-3-10.78-4.49zm4.17-9.15c5.71-1.53 11.06-2.81 15.95-3.86 4.3 1.83 8.49 3.65 12.63 5.46-5.71.85-11.48 1.84-17.33 3.09-3.69-1.57-7.44-3.14-11.25-4.69zm-1.1-.45c-3.58-1.45-7.21-2.88-10.87-4.28 5.24-1.68 10.3-3.18 15.1-4.48 3.95 1.61 7.85 3.24 11.68 4.86-4.89 1.07-10.23 2.36-15.91 3.9zm-11.95-4.7c-3.55-1.34-7.13-2.64-10.73-3.89 4.98-1.84 9.83-3.52 14.54-5.03 3.79 1.44 7.55 2.91 11.26 4.41-4.79 1.32-9.84 2.83-15.07 4.51zm-11.82-4.27c-3.58-1.24-7.18-2.41-10.79-3.52 4.82-2.02 9.54-3.86 14.16-5.59 3.75 1.3 7.48 2.65 11.18 4.04-4.71 1.53-9.56 3.22-14.55 5.07zm-11.89-3.86c-3.66-1.12-7.32-2.15-10.98-3.1 4.71-2.19 9.35-4.24 13.93-6.16 3.76 1.15 7.51 2.36 11.23 3.64-4.63 1.73-9.35 3.59-14.18 5.62zm-12.12-3.39c-13.88-3.53-27.73-5.77-40.97-5.77-11.93 0-22.89 1.81-32.61 5.4-30.15 11.12-50.87 43.08-68.68 74.31-2.63.87-5.22 1.68-7.79 2.44 19.69-35.12 42.19-73.73 76.28-86.3 9.99-3.68 21.28-5.56 33.54-5.56 17.44 0 35.93 3.75 54.21 9.27-4.59 1.94-9.25 4-13.98 6.21zM277.42 137c-1.65 2.9-3.27 5.77-4.87 8.63-2.53.73-5.04 1.41-7.52 2.02 1.03-1.84 2.07-3.69 3.12-5.57.5-.89 1.01-1.79 1.51-2.68 2.56-.74 5.15-1.54 7.76-2.4zm-5.37 9.53c-.36.65-.74 1.31-1.1 1.96-1.12 1.99-2.21 3.94-3.31 5.89-2.48.6-4.92 1.14-7.34 1.62 1.41-2.46 2.82-4.95 4.25-7.49 2.47-.6 4.97-1.27 7.5-1.98zm-4.89 8.7c-1.36 2.41-2.7 4.78-4.04 7.12-2.44.46-4.85.87-7.22 1.21 1.31-2.21 2.62-4.46 3.93-6.74 2.42-.47 4.86-1 7.33-1.59zm-4.52 7.94c-1.24 2.16-2.49 4.3-3.74 6.4-2.4.32-4.79.6-7.12.79 1.22-1.97 2.43-3.98 3.64-6.01 2.38-.33 4.78-.73 7.22-1.18zm-3.11 7.01c2.27-.31 4.58-.69 6.91-1.13-1.2 2.07-2.39 4.12-3.58 6.12-2.3.32-4.58.58-6.81.76 1.17-1.88 2.33-3.8 3.48-5.75zm8.03-1.34c2.2-.43 4.43-.92 6.69-1.45-1.24 2.2-2.47 4.37-3.7 6.51-2.22.42-4.42.8-6.59 1.11 1.2-2.03 2.4-4.08 3.6-6.17zm7.83-1.72c2.15-.53 4.32-1.1 6.52-1.73-.31.55-.63 1.11-.93 1.66-.99 1.76-1.96 3.49-2.92 5.21-2.16.53-4.29 1-6.4 1.42 1.24-2.16 2.48-4.34 3.73-6.56zm6.41.21c.42-.75.85-1.51 1.27-2.26 2.13-.62 4.28-1.28 6.45-1.99-1.38 2.42-2.74 4.83-4.08 7.23-2.11.61-4.19 1.17-6.25 1.68.86-1.54 1.73-3.09 2.61-4.66zm8.93-4.64c2.15-.71 4.31-1.47 6.5-2.26-1.51 2.53-2.99 5.07-4.43 7.61-2.08.69-4.14 1.34-6.18 1.94 1.35-2.42 2.72-4.84 4.11-7.29zm7.76-2.71c2.22-.83 4.47-1.71 6.73-2.62-1.7 2.66-3.34 5.36-4.96 8.08-2.1.78-4.19 1.52-6.26 2.22 1.47-2.57 2.97-5.13 4.49-7.68zm8.1-3.16c2.44-1 4.9-2.04 7.39-3.14-2.05 2.83-4.02 5.76-5.94 8.74-2.19.9-4.36 1.76-6.51 2.56 1.65-2.75 3.33-5.47 5.06-8.16zm8.98-3.87c3.09-1.39 6.23-2.87 9.4-4.41-2.9 3.17-5.66 6.6-8.3 10.18-2.44 1.1-4.85 2.14-7.24 3.13 1.98-3.05 4.02-6.02 6.14-8.9zm1.77 6.28c2.95-1.32 5.95-2.74 8.97-4.21-2.77 3.04-5.41 6.31-7.93 9.74-2.33 1.04-4.63 2.03-6.91 2.98 1.9-2.91 3.85-5.76 5.87-8.51zm53.21-22.47c1.3-.84 2.59-1.62 3.89-2.43 2.89.02 5.83.2 8.8.5-3.2 1.84-6.41 3.78-9.63 5.8-.12-.01-.24-.01-.35-.01-3.44 0-6.73.27-9.91.71 2.38-1.49 4.78-3 7.2-4.57zm3.36 4.59c2.76.02 5.56.19 8.4.48-3.06 1.75-6.13 3.61-9.21 5.53-.1 0-.22-.01-.32-.01-3.27 0-6.41.25-9.45.67 2.27-1.41 4.55-2.85 6.86-4.34 1.24-.8 2.48-1.55 3.72-2.33zm9.62.64c2.57.3 5.16.67 7.77 1.15-2.93 1.54-5.89 3.12-8.86 4.82-2.7-.3-5.37-.48-8-.53 3.04-1.89 6.07-3.72 9.09-5.44zm8.95 1.4c2.41.47 4.83.98 7.26 1.58-2.86 1.35-5.75 2.8-8.66 4.31-2.48-.48-4.94-.85-7.39-1.15 2.95-1.67 5.88-3.23 8.79-4.74zm-1.23 6.65c2.31.45 4.63.94 6.95 1.51-2.73 1.29-5.49 2.68-8.27 4.12-2.37-.46-4.73-.81-7.07-1.11 2.81-1.58 5.61-3.08 8.39-4.52zm8.06 1.81c2.25.58 4.5 1.18 6.75 1.85-2.74 1.16-5.51 2.39-8.31 3.7-2.23-.56-4.44-1.05-6.66-1.49 2.77-1.42 5.51-2.79 8.22-4.06zm-1.49 6.32c2.15.55 4.3 1.13 6.45 1.77-2.62 1.11-5.27 2.28-7.96 3.54-2.13-.54-4.24-1-6.36-1.42 2.65-1.36 5.28-2.67 7.87-3.89zm-1.42 6.08c2.05.53 4.09 1.07 6.14 1.69-2.5 1.06-5.03 2.18-7.6 3.38-2.03-.51-4.04-.95-6.06-1.36 2.53-1.29 5.04-2.54 7.52-3.71zm-1.37 5.84c1.95.5 3.91 1.02 5.86 1.61-2.4 1.01-4.82 2.09-7.28 3.24-1.93-.49-3.85-.91-5.78-1.3 2.42-1.24 4.83-2.43 7.2-3.55zm1.03-.47c2.56-1.18 5.08-2.29 7.57-3.34 2 .61 4.01 1.24 6 1.92-2.52.95-5.09 1.96-7.71 3.06-1.95-.6-3.9-1.12-5.86-1.64zm14.64-1.04c2 .69 4 1.4 5.97 2.14-2.56.83-5.19 1.75-7.9 2.75-1.91-.66-3.83-1.27-5.76-1.86 2.62-1.09 5.18-2.09 7.69-3.03zm7.04 2.55c2.04.78 4.06 1.56 6.06 2.37-2.62.72-5.34 1.53-8.18 2.44-1.91-.72-3.84-1.4-5.78-2.08 2.71-1 5.34-1.9 7.9-2.73zm1.11-.36c2.97-.94 5.84-1.79 8.57-2.53 2.2.89 4.39 1.79 6.52 2.7-2.76.61-5.81 1.38-8.98 2.23-2.01-.81-4.06-1.61-6.11-2.4zm9.76-2.85c3.38-.89 6.56-1.66 9.47-2.28 2.52 1.07 4.91 2.13 7.34 3.19-3.37.52-6.77 1.11-10.22 1.84-2.15-.92-4.36-1.84-6.59-2.75zm10.73-2.56c3.64-.76 7.23-1.35 10.79-1.87 1.1.48 2.27.98 3.36 1.46 1.83.8 3.63 1.59 5.41 2.36-3.88.26-7.93.72-12.05 1.32-2.48-1.08-4.93-2.16-7.51-3.27zm3.12-6.01c3.81-.8 7.57-1.42 11.28-1.97 1.14.5 2.35 1.02 3.48 1.51 1.93.85 3.82 1.68 5.7 2.49-4.06.27-8.3.75-12.62 1.38-2.59-1.13-5.16-2.27-7.84-3.41zm15.2-1.07c-.81-.36-1.68-.73-2.51-1.09 4.59-.64 9.08-1.12 13.36-1.35 5.13 2.22 9.97 4.24 14.5 5.99-3.54-.47-7.46-.74-11.78-.74-2.15 0-4.39.09-6.65.21-2.26-.98-4.57-1.99-6.92-3.02zm12.62-2.5c1.82-.08 3.66-.17 5.4-.17 5.83 0 11.02.44 15.39 1.25 3.39 1.25 6.52 2.25 9.44 3.04 2.19 1.13 3.84 2.45 4.71 3.98.5.89.75 1.84.76 2.83-.38.03-.75.07-1.16.07-2.67 0-5.86-.58-9.41-1.53-2.39-1.22-5.38-2.21-9.03-2.9-4.92-1.82-10.35-4.09-16.1-6.57zm40.35 5.06c-2.77 0-6.1-.61-9.8-1.6-2.48-1.26-5.6-2.3-9.39-3.02-5.14-1.89-10.81-4.27-16.8-6.86 1.91-.08 3.84-.17 5.68-.17 6.06 0 11.46.45 16.01 1.29 3.53 1.3 6.79 2.35 9.84 3.16 2.28 1.19 3.99 2.56 4.9 4.16.53.93.78 1.93.79 2.96-.41.03-.79.08-1.23.08zm-30.31-12.36c-2.32 0-4.75.1-7.2.23-2.45-1.06-4.95-2.15-7.5-3.28-.91-.39-1.89-.81-2.8-1.21 5-.7 9.9-1.22 14.57-1.48 5.65 2.45 10.98 4.68 15.95 6.59-3.9-.53-8.23-.85-13.02-.85zm-10.49-9.85c-.96-.42-1.99-.86-2.97-1.29 5.24-.72 10.37-1.27 15.26-1.54 5.92 2.57 11.5 4.9 16.7 6.9-4.1-.57-8.65-.9-13.69-.9-2.42 0-4.95.1-7.51.23-2.54-1.1-5.14-2.23-7.79-3.4zm14.07-2.88c2.11-.09 4.23-.2 6.24-.2 6.59 0 12.47.5 17.41 1.42 3.8 1.4 7.31 2.52 10.59 3.4 2.48 1.29 4.35 2.78 5.33 4.51.58 1.02.86 2.11.86 3.24-.45.04-.87.09-1.36.09-3.02 0-6.64-.67-10.66-1.75-2.68-1.35-6.02-2.47-10.1-3.24-5.59-2.06-11.77-4.65-18.31-7.47zm6.24-.91c-2.5 0-5.12.11-7.78.25-2.65-1.15-5.35-2.33-8.12-3.54-1.02-.45-2.1-.92-3.13-1.36 5.46-.77 10.81-1.34 15.91-1.62 6.21 2.69 12.06 5.14 17.51 7.24-4.29-.61-9.08-.97-14.39-.97zm-11.33-10.66c-1.07-.47-2.23-.97-3.32-1.44 5.72-.8 11.3-1.4 16.63-1.69 6.51 2.82 12.63 5.39 18.33 7.57-4.49-.64-9.51-1.02-15.08-1.02-2.62 0-5.36.11-8.14.26-2.75-1.2-5.55-2.42-8.42-3.68zm-4.55-1.98c-3.38-1.48-6.74-2.95-10.26-4.47 4.95-1.03 9.83-1.84 14.65-2.54 1.47.64 3.02 1.3 4.45 1.93 2.56 1.12 5.07 2.22 7.55 3.29-5.27.34-10.78.97-16.39 1.79zm-6.15-12.41c5.18-1.08 10.27-1.93 15.32-2.67 1.54.68 3.1 1.36 4.62 2.02 2.68 1.17 5.3 2.32 7.89 3.45-5.5.34-11.26 1.01-17.12 1.86-3.53-1.54-7.04-3.09-10.71-4.66zm4.28-8.25c5.4-1.14 10.73-2.03 16-2.8 1.6.7 3.22 1.41 4.79 2.1 2.81 1.23 5.56 2.43 8.26 3.61-5.73.36-11.75 1.05-17.87 1.94-3.68-1.61-7.35-3.22-11.18-4.85zm4.46-8.61c5.64-1.18 11.2-2.11 16.7-2.92 1.67.73 3.36 1.47 5 2.18 2.93 1.29 5.81 2.55 8.64 3.79-5.98.37-12.25 1.1-18.63 2.02-3.84-1.68-7.72-3.36-11.71-5.07zm4.63-8.95c5.89-1.24 11.69-2.2 17.43-3.04 1.73.76 3.49 1.52 5.2 2.27 3.07 1.34 6.08 2.67 9.04 3.95-6.23.39-12.78 1.15-19.44 2.12-4.01-1.75-8.07-3.52-12.23-5.3zm4.82-9.31c6.14-1.29 12.19-2.3 18.17-3.18 1.82.8 3.67 1.6 5.46 2.39 3.19 1.4 6.34 2.77 9.42 4.12-6.51.4-13.34 1.19-20.29 2.2-4.18-1.83-8.42-3.67-12.76-5.53zm5.01-9.69c6.41-1.35 12.73-2.4 18.97-3.31 1.89.82 3.8 1.66 5.66 2.47 3.36 1.47 6.65 2.91 9.89 4.32-6.79.42-13.93 1.24-21.18 2.3-4.37-1.91-8.8-3.84-13.34-5.78zm11.93 5.97c-5.96.9-11.98 1.92-18.09 3.23-3.84-1.64-7.76-3.28-11.74-4.9 5.96-1.59 11.54-2.93 16.64-4.03 4.49 1.91 8.87 3.82 13.19 5.7zm-30.93-2.12c-3.74-1.52-7.53-3.01-11.35-4.47 5.47-1.75 10.76-3.31 15.76-4.67 4.12 1.68 8.2 3.38 12.19 5.07-5.1 1.11-10.67 2.46-16.6 4.07zm-12.43-4.89c-3.7-1.4-7.45-2.75-11.21-4.07 5.2-1.92 10.26-3.66 15.17-5.25 3.96 1.51 7.9 3.05 11.78 4.62-5.01 1.37-10.28 2.95-15.74 4.7zm-12.29-4.45c-3.74-1.29-7.5-2.51-11.28-3.67 5.03-2.1 9.96-4.03 14.78-5.83 3.92 1.36 7.82 2.76 11.67 4.22-4.91 1.6-9.97 3.35-15.17 5.28zm-12.37-4.01c-18.6-5.66-37.45-9.52-55.24-9.52-12.41 0-23.81 1.88-33.91 5.6-34.6 12.76-57.25 51.87-77.09 87.28-2.65.76-5.27 1.46-7.87 2.11 1.09-1.93 2.17-3.86 3.28-5.84 20.99-37.49 44.78-79.98 81.46-93.51 10.39-3.83 22.13-5.77 34.9-5.77 22.26 0 46.15 5.85 69.27 13.79-4.83 1.81-9.76 3.75-14.8 5.86zm-166.74 84.25c-.38.68-.78 1.38-1.16 2.07-1.16 2.07-2.3 4.1-3.44 6.13-2.59.63-5.15 1.19-7.68 1.69 1.47-2.56 2.94-5.17 4.43-7.82 2.59-.63 5.21-1.32 7.85-2.07zm-5.08 9.05c-1.41 2.52-2.82 5-4.22 7.44-2.55.49-5.07.91-7.56 1.27 1.37-2.31 2.74-4.66 4.11-7.05 2.52-.49 5.08-1.04 7.67-1.66zm-4.69 8.25c-1.3 2.27-2.6 4.51-3.9 6.7-2.53.34-5.02.63-7.47.83 1.27-2.06 2.54-4.16 3.8-6.29 2.49-.34 5.02-.76 7.57-1.24zm-4.38 7.48c-1.19 2-2.39 3.99-3.6 5.92-2.48.18-4.93.25-7.33.27 1.18-1.79 2.34-3.59 3.47-5.4 2.44-.18 4.94-.46 7.46-.79zm-11.95 6.22c-2.56 0-5.04-.13-7.48-.31 1.11-1.58 2.18-3.17 3.24-4.78 2.51 0 5.08-.08 7.67-.26-1.11 1.79-2.27 3.57-3.43 5.35zm-8.45-.38c-2.59-.22-5.13-.53-7.59-.95 1.01-1.35 2.01-2.73 2.98-4.11 2.56.2 5.15.34 7.81.35-1.05 1.58-2.11 3.15-3.2 4.71zm-8.5-1.12c-2.6-.48-5.14-1.04-7.59-1.74.88-1.1 1.75-2.21 2.6-3.34 2.58.46 5.22.81 7.92 1.06-.96 1.36-1.94 2.7-2.93 4.02zm-.43.59c-.8 1.05-1.62 2.08-2.43 3.11-2.45-.73-4.82-1.59-7.11-2.56.65-.77 1.31-1.54 1.96-2.34 2.45.72 4.99 1.29 7.58 1.79zm-2.01 3.91c2.35.68 4.78 1.23 7.25 1.7-.76 1.01-1.53 1.99-2.31 2.97-2.35-.7-4.61-1.51-6.81-2.44.63-.74 1.26-1.47 1.87-2.23zm8.17 1.88c2.35.43 4.77.75 7.24.97-.88 1.24-1.77 2.46-2.67 3.67-2.38-.43-4.7-.95-6.95-1.59.8-1 1.6-2.01 2.38-3.05zm8.21 1.05c2.33.19 4.71.31 7.13.33-.95 1.44-1.93 2.88-2.92 4.3-2.37-.2-4.69-.48-6.94-.87.92-1.23 1.83-2.49 2.73-3.76zm8.15.33c2.29-.01 4.63-.07 7-.24-1.02 1.64-2.07 3.27-3.14 4.89-2.33 0-4.59-.11-6.82-.28 1-1.44 1.99-2.9 2.96-4.37zm8.06-.31c2.23-.17 4.51-.42 6.81-.73-1.09 1.83-2.19 3.65-3.29 5.42-2.27.16-4.5.22-6.69.24 1.08-1.64 2.14-3.29 3.17-4.93zm7.91-.89c2.16-.3 4.36-.66 6.59-1.08-1.14 1.98-2.28 3.94-3.42 5.86-2.2.3-4.37.55-6.51.72 1.12-1.8 2.23-3.64 3.34-5.5zm7.71-1.29c2.1-.41 4.23-.87 6.38-1.38-1.19 2.1-2.36 4.18-3.54 6.22-2.12.41-4.22.76-6.29 1.06 1.15-1.93 2.3-3.9 3.45-5.9zm7.51-1.65c2.05-.5 4.13-1.05 6.23-1.65-.29.52-.59 1.05-.88 1.57-.95 1.69-1.88 3.35-2.81 5-2.05.5-4.09.95-6.1 1.35 1.18-2.05 2.37-4.15 3.56-6.27zm6.19.2c.4-.72.81-1.45 1.21-2.17 2.03-.59 4.09-1.23 6.16-1.9-1.32 2.32-2.62 4.62-3.91 6.91-2.01.58-4 1.12-5.96 1.61.83-1.47 1.65-2.95 2.5-4.45zm8.57-4.45c2.04-.68 4.11-1.41 6.2-2.17-1.44 2.43-2.85 4.86-4.24 7.29-1.98.65-3.95 1.27-5.9 1.85 1.3-2.32 2.61-4.64 3.94-6.97zm7.46-2.62c2.11-.78 4.25-1.62 6.41-2.49-1.62 2.55-3.19 5.13-4.74 7.72-2 .74-4 1.46-5.96 2.12 1.4-2.45 2.84-4.9 4.29-7.35zm7.78-3.03c2.32-.95 4.67-1.94 7.04-2.99-1.96 2.71-3.84 5.51-5.68 8.36-2.08.85-4.15 1.67-6.2 2.44 1.57-2.63 3.18-5.24 4.84-7.81zm2.04 5.89c2.22-.91 4.45-1.86 6.72-2.86-1.87 2.59-3.67 5.27-5.42 7.99-1.99.81-3.97 1.59-5.92 2.33 1.5-2.52 3.04-5.01 4.62-7.46zm8.3-3.58c2.81-1.26 5.66-2.61 8.55-4.01-2.65 2.91-5.17 6.03-7.58 9.3-2.21.99-4.41 1.94-6.59 2.84 1.82-2.78 3.69-5.5 5.62-8.13zm10.57-5c10.36-5.14 21.13-11.14 32.3-18.05 3.36-.55 6.88-.82 10.53-.86-.95.6-1.89 1.17-2.84 1.78-2.73 1.77-5.44 3.47-8.12 5.13-3.47.59-6.77 1.44-9.88 2.58-8.08 2.98-15.1 8.28-21.39 14.88-2.9 1.44-5.78 2.81-8.61 4.1 2.54-3.39 5.2-6.6 8.01-9.56zm30.03-10.88c-9.37 5.73-18.45 10.83-27.21 15.26 5.81-5.81 12.25-10.46 19.56-13.16 2.42-.89 4.99-1.56 7.65-2.1zm10.18.93c1.19-.77 2.38-1.49 3.57-2.23 2.64.02 5.32.18 8.03.46-2.91 1.67-5.85 3.45-8.79 5.28-.1 0-.21-.01-.31-.01-3.13 0-6.13.24-9.03.64 2.16-1.35 4.34-2.72 6.53-4.14zm12.83-1.61c2.46.28 4.93.64 7.42 1.1-2.81 1.46-5.63 2.98-8.48 4.59-2.56-.28-5.1-.45-7.62-.5 2.91-1.8 5.81-3.55 8.68-5.19zm-.84 6.44c2.35.27 4.72.61 7.1 1.05-2.69 1.41-5.4 2.86-8.12 4.41-2.46-.28-4.89-.43-7.3-.49 2.78-1.72 5.56-3.39 8.32-4.97zm8.26 1.29c2.21.43 4.41.9 6.63 1.45-2.61 1.23-5.26 2.56-7.92 3.94-2.26-.44-4.51-.77-6.74-1.05 2.69-1.52 5.37-2.96 8.03-4.34zm-1.13 6.15c2.1.41 4.21.85 6.33 1.38-2.49 1.18-5.02 2.45-7.57 3.76-2.16-.41-4.3-.74-6.43-1 2.57-1.45 5.13-2.82 7.67-4.14zm-1.07 5.9c2 .39 4.01.82 6.03 1.31-2.39 1.14-4.81 2.35-7.25 3.61-2.05-.39-4.09-.7-6.13-.95 2.47-1.39 4.91-2.71 7.35-3.97zm-1.05 5.68c1.91.38 3.83.78 5.75 1.25-2.28 1.08-4.59 2.24-6.91 3.44-1.96-.37-3.91-.66-5.85-.91 2.35-1.32 4.69-2.57 7.01-3.78zm6.88 1.55c1.86.48 3.73.98 5.59 1.53-2.29.97-4.6 2-6.95 3.1-1.84-.47-3.67-.87-5.51-1.24 2.31-1.18 4.6-2.32 6.87-3.39zm1.03-.47c2.45-1.13 4.86-2.19 7.24-3.2 1.91.59 3.83 1.19 5.73 1.83-2.42.91-4.88 1.88-7.38 2.93-1.86-.56-3.73-1.07-5.59-1.56zm14.03-.98c1.92.66 3.83 1.33 5.72 2.04-2.44.8-4.95 1.69-7.53 2.64-1.84-.63-3.7-1.22-5.55-1.79 2.5-1.04 4.95-2 7.36-2.89zm6.76 2.45c1.94.74 3.87 1.48 5.77 2.25-2.5.69-5.1 1.47-7.81 2.34-1.82-.69-3.66-1.34-5.51-1.99 2.59-.95 5.1-1.81 7.55-2.6zm1.11-.36c2.85-.91 5.59-1.72 8.2-2.43 2.1.86 4.18 1.72 6.22 2.58-2.64.58-5.56 1.32-8.59 2.14-1.92-.78-3.87-1.54-5.83-2.29zm15.56.64c2.29.98 4.48 1.94 6.69 2.9-3.08.48-6.19 1.02-9.34 1.69-1.95-.83-3.96-1.66-5.97-2.49 3.05-.81 5.98-1.53 8.62-2.1zm-6.17-3.38c3.23-.85 6.27-1.58 9.05-2.18 2.41 1.02 4.69 2.03 7.01 3.04-3.22.5-6.48 1.06-9.77 1.76-2.06-.87-4.17-1.75-6.29-2.62zm10.31-2.45c3.48-.72 6.92-1.3 10.31-1.8 1.06.47 2.18.95 3.22 1.4 1.74.77 3.45 1.51 5.14 2.25-3.7.24-7.57.69-11.5 1.26-2.37-1.03-4.72-2.06-7.17-3.11zm13.97-1.02c-.72-.32-1.49-.65-2.22-.97 4.2-.58 8.31-1.02 12.24-1.24 4.64 2.01 9.02 3.85 13.13 5.45-3.21-.42-6.75-.66-10.64-.66-1.98 0-4.05.09-6.14.2-2.08-.91-4.2-1.83-6.37-2.78zm3.62-5.8c-.77-.34-1.61-.7-2.4-1.05 4.4-.6 8.71-1.06 12.81-1.29 4.89 2.12 9.5 4.05 13.82 5.73-3.38-.45-7.11-.71-11.22-.71-2.06 0-4.21.09-6.39.2-2.16-.93-4.37-1.9-6.62-2.88zm12.16-2.39c1.73-.07 3.48-.16 5.14-.16 5.59 0 10.58.42 14.78 1.2 3.25 1.19 6.26 2.15 9.07 2.91 2.1 1.09 3.69 2.36 4.53 3.83.48.85.72 1.76.73 2.71-.37.02-.71.06-1.1.06-2.57 0-5.64-.56-9.06-1.48-2.29-1.16-5.17-2.12-8.66-2.78-4.72-1.74-9.92-3.92-15.43-6.29zm38.49 9.2c-.06.1-.15.21-.22.32-.1.05-.21.08-.32.13.18-.15.36-.31.54-.45zm-1.04 2.73c0 .02-.01.04-.01.04-.03.03-.06.05-.06.05s.04-.06.07-.09zm-.06 3.05c1.46-.83 2.9-1.59 4.33-2.31-.04.65-.06 1.31-.03 1.96-1.53.65-3.08 1.36-4.65 2.13.08-.59.21-1.18.35-1.78zm4.31.45c.06.74.23 1.47.38 2.2-1.69.58-3.42 1.24-5.2 1.97-.01-.65-.03-1.3.03-1.95 1.62-.81 3.22-1.54 4.79-2.22zm.05-3.64c-1.36.68-2.75 1.43-4.14 2.21.16-.53.4-1.06.6-1.59 1.31-.84 2.6-1.61 3.88-2.36-.11.58-.27 1.16-.34 1.74zm-3.1-.55c.19-.43.43-.86.65-1.3 1.15-.82 2.29-1.6 3.43-2.36-.16.49-.31.97-.44 1.45-1.2.7-2.42 1.45-3.64 2.21zm3.98.96c1.7-.85 3.37-1.61 5.02-2.33.07.78.24 1.55.4 2.32-1.77.61-3.59 1.3-5.45 2.07-.02-.68-.04-1.37.03-2.06zm5.07-6.09c-1.43.73-2.89 1.51-4.35 2.33.16-.56.42-1.13.64-1.7 1.37-.87 2.72-1.68 4.08-2.47-.13.61-.3 1.23-.37 1.84zm-3.27-.53c.2-.46.45-.93.69-1.4 1.21-.86 2.42-1.69 3.62-2.48-.17.52-.34 1.04-.47 1.55-1.28.73-2.56 1.53-3.84 2.33zm1.78-3.39c.09-.16.16-.32.26-.48.41-.32.83-.64 1.24-.95-.46.47-.97.95-1.5 1.43zm1.79-2.64c.09-.13.17-.26.27-.38.1-.03.2-.04.3-.07-.19.14-.38.3-.57.45zm2.59-6.85c-2.89 0-6.35-.63-10.2-1.67-2.58-1.31-5.82-2.39-9.78-3.14-5.36-1.97-11.29-4.45-17.56-7.16 2.02-.08 4.06-.18 5.99-.18 6.32 0 11.95.47 16.69 1.36 3.65 1.34 7.03 2.42 10.18 3.26 2.4 1.24 4.2 2.68 5.14 4.35.56.98.82 2.01.83 3.1-.42.03-.83.08-1.29.08zm7.79-3c.73-.57 1.46-1.13 2.19-1.69-.75.8-1.56 1.61-2.51 2.43-.02.02-.05.03-.05.03.11-.24.26-.51.37-.77zm.44-1.31c.01-.06.03-.12.05-.18.65-.57 1.29-1.14 1.94-1.69.19-.04.4-.07.58-.12-.86.63-1.72 1.32-2.57 1.99zm4.61-8.82c-3.14 0-6.9-.69-11.07-1.81-2.8-1.42-6.3-2.58-10.57-3.4-5.84-2.14-12.29-4.85-19.12-7.79 2.24-.1 4.48-.21 6.61-.21 6.85 0 12.96.51 18.1 1.47 3.95 1.45 7.6 2.62 11.01 3.54 2.59 1.34 4.55 2.9 5.57 4.71.61 1.07.89 2.21.9 3.4-.48.04-.93.09-1.43.09zm-15.73-12.39c-6.08-2.24-12.81-5.06-19.92-8.13 2.34-.11 4.69-.22 6.93-.22 7.13 0 13.49.54 18.84 1.54 4.11 1.51 7.91 2.72 11.46 3.67 2.7 1.4 4.74 3.03 5.8 4.91.64 1.12.93 2.32.93 3.56-.49.04-.97.09-1.51.09-3.26 0-7.17-.71-11.51-1.88-2.91-1.48-6.56-2.69-11.02-3.54zm-12.99-9.06c-2.73 0-5.58.12-8.47.27-2.87-1.25-5.8-2.52-8.79-3.84-1.13-.49-2.34-1.01-3.48-1.51 5.96-.83 11.8-1.45 17.36-1.76 6.82 2.95 13.23 5.64 19.2 7.92-4.71-.68-9.97-1.08-15.82-1.08zm-12.31-11.54c-1.19-.52-2.47-1.07-3.68-1.6 6.22-.87 12.3-1.53 18.1-1.85 7.09 3.08 13.8 5.91 20.01 8.29-4.9-.72-10.37-1.13-16.46-1.13-2.85 0-5.82.12-8.83.28-2.98-1.3-6.02-2.63-9.14-3.99zm5.14-8.31c-1.26-.55-2.56-1.12-3.83-1.68 6.48-.91 12.83-1.59 18.88-1.92 7.4 3.21 14.42 6.18 20.9 8.66-5.12-.75-10.86-1.19-17.25-1.19-2.96 0-6.05.12-9.18.29-3.11-1.35-6.28-2.74-9.52-4.16zm5.35-8.64c-1.32-.58-2.69-1.17-4.03-1.76 6.77-.95 13.39-1.66 19.7-2.01 7.76 3.37 15.1 6.47 21.89 9.06-5.37-.8-11.39-1.26-18.09-1.26-3.08 0-6.3.13-9.56.3-3.23-1.4-6.54-2.85-9.91-4.33zm5.56-8.98c-1.39-.61-2.83-1.24-4.24-1.86 7.06-.99 13.96-1.73 20.55-2.1 8.03 3.49 15.63 6.7 22.66 9.39-5.54-.81-11.81-1.24-18.7-1.24-3.21 0-6.57.13-9.96.31-3.37-1.46-6.81-2.96-10.31-4.5zm5.82-9.35c-1.47-.64-2.98-1.3-4.47-1.95 7.36-1.04 14.57-1.82 21.44-2.19 8.4 3.64 16.36 7 23.71 9.81-5.8-.86-12.38-1.31-19.61-1.31-3.33 0-6.82.14-10.34.32-3.5-1.51-7.08-3.08-10.73-4.68zm6.02-9.73c-1.54-.67-3.13-1.37-4.69-2.05 7.68-1.09 15.19-1.89 22.35-2.28 8.8 3.81 17.12 7.32 24.8 10.25-6.06-.9-12.95-1.38-20.51-1.38-3.48 0-7.11.15-10.78.34-3.65-1.58-7.37-3.21-11.17-4.88zm-5.92-2.59c-4.57-1.99-9.19-4-13.93-6.03 6.69-1.4 13.27-2.5 19.78-3.45 1.97.85 3.96 1.72 5.89 2.57 3.51 1.53 6.95 3.04 10.34 4.51-7.08.44-14.52 1.3-22.08 2.4zm-1.41.2c-6.22.93-12.5 2-18.87 3.36-4.02-1.71-8.12-3.42-12.27-5.11 6.21-1.67 12.04-3.06 17.36-4.21 4.69 2 9.26 3.99 13.78 5.96zm-32.24-2.2c-3.9-1.59-7.86-3.15-11.86-4.67 5.71-1.82 11.21-3.46 16.43-4.87 4.31 1.75 8.57 3.53 12.75 5.3-5.32 1.16-11.14 2.57-17.32 4.24zm-12.93-5.09c-3.87-1.46-7.79-2.88-11.71-4.25 5.42-2 10.7-3.82 15.82-5.47 4.14 1.57 8.24 3.18 12.29 4.82-5.21 1.43-10.71 3.07-16.4 4.9zm-12.79-4.62c-23.44-8.1-47.7-14.1-70.34-14.1-12.89 0-24.76 1.97-35.28 5.85-36.99 13.64-60.86 56.26-81.92 93.87-1.2 2.16-2.39 4.27-3.58 6.38-2.71.66-5.39 1.25-8.04 1.77 2.81-4.9 5.64-9.94 8.54-15.12 21.85-39.01 46.6-83.22 84.76-97.3 10.82-3.98 23.03-6 36.33-6 27.45 0 57.28 8.54 85.36 19.14-5.12 1.66-10.4 3.49-15.83 5.51zm-191.6 92.85c-1.48 2.63-2.95 5.23-4.41 7.77-2.67.52-5.31.96-7.91 1.33 1.43-2.41 2.86-4.86 4.29-7.36 2.65-.51 5.32-1.09 8.03-1.74zm-4.88 8.59c-1.36 2.37-2.72 4.71-4.08 7-2.64.35-5.25.66-7.81.86 1.33-2.15 2.66-4.34 3.98-6.56 2.6-.36 5.24-.8 7.91-1.3zm-4.56 7.78c-1.25 2.09-2.5 4.17-3.76 6.2-2.6.19-5.16.26-7.66.27 1.23-1.87 2.44-3.76 3.62-5.64 2.56-.2 5.17-.49 7.8-.83zm-12.45 6.5c-2.67 0-5.26-.13-7.82-.32 1.16-1.65 2.29-3.32 3.4-5 2.62-.01 5.31-.09 8.02-.27-1.18 1.87-2.38 3.73-3.6 5.59zm-8.79-.39c-2.7-.23-5.36-.55-7.93-.99 1.06-1.42 2.1-2.86 3.12-4.31 2.67.22 5.39.36 8.17.37-1.1 1.66-2.22 3.3-3.36 4.93zm-19.88 3.35c.28.41.56.78.83 1.2.24.39.51.75.77 1.13-.51-.34-1.03-.67-1.53-1.03-.58-.73-1.15-1.47-1.71-2.22.54.31 1.09.62 1.64.92zm-.16-1.73c.32.32.65.66.97 1-.16-.09-.32-.2-.48-.28-.17-.24-.33-.49-.49-.72zm6.13 4.87c.05-.05.09-.11.14-.17 2.3.98 4.67 1.84 7.11 2.59-.6.74-1.21 1.46-1.82 2.18-.68-.29-1.32-.63-1.98-.94-.08-.06-.16-.13-.23-.19-1.06-1.26-2.13-2.44-3.22-3.47zm.58 1.74c-.11-.06-.22-.13-.32-.19-.12-.16-.23-.33-.35-.5.22.22.44.46.67.69zm5.11 3.81c.04-.04.08-.08.11-.13 2.2.94 4.47 1.76 6.81 2.47-.56.7-1.14 1.38-1.72 2.06-.64-.28-1.28-.58-1.91-.88-.04-.04-.09-.08-.14-.11-1.03-1.24-2.07-2.4-3.15-3.41zm.46 1.63c-.07-.04-.15-.09-.22-.13-.08-.11-.16-.23-.24-.35.15.16.31.32.46.48zm5.54 3.1c.59-.7 1.19-1.4 1.77-2.12 2.24.66 4.57 1.19 6.94 1.64-.73.96-1.47 1.9-2.22 2.83-2.24-.66-4.39-1.47-6.49-2.35zm9.61-.3c2.26.4 4.57.71 6.92.92-.83 1.18-1.68 2.35-2.54 3.5-2.27-.42-4.49-.92-6.64-1.53.76-.95 1.52-1.91 2.26-2.89zm7.9 1c2.23.18 4.5.3 6.82.31-.91 1.39-1.85 2.76-2.8 4.12-2.26-.19-4.47-.48-6.62-.84.88-1.18 1.75-2.38 2.6-3.59zm7.84.32c2.18-.01 4.43-.08 6.7-.23-.98 1.55-1.98 3.1-2.99 4.64-2.23 0-4.41-.08-6.55-.24.97-1.38 1.91-2.77 2.84-4.17zm7.75-.3c2.13-.17 4.3-.4 6.49-.69-1.04 1.75-2.09 3.48-3.14 5.17-2.17.15-4.29.22-6.38.24 1.03-1.57 2.04-3.15 3.03-4.72zm7.59-.85c2.07-.29 4.17-.64 6.29-1.03-1.09 1.89-2.17 3.76-3.26 5.59-2.1.29-4.18.53-6.22.69 1.07-1.72 2.13-3.48 3.19-5.25zm7.41-1.25c2-.39 4.03-.83 6.09-1.31-1.14 2.01-2.26 3.99-3.38 5.94-2.03.39-4.03.73-6 1.01 1.09-1.85 2.19-3.73 3.29-5.64zm7.23-1.59c1.96-.47 3.94-1 5.95-1.57-.28.49-.56.99-.83 1.48-.93 1.65-1.81 3.2-2.72 4.81-1.96.47-3.89.9-5.8 1.28 1.12-1.97 2.26-3.97 3.4-6zm5.94.19c.39-.69.78-1.39 1.17-2.08 1.94-.56 3.9-1.17 5.87-1.81-1.25 2.21-2.5 4.41-3.72 6.6-1.93.56-3.83 1.07-5.72 1.54.8-1.43 1.59-2.79 2.4-4.25zm8.24-4.27c1.95-.65 3.92-1.35 5.91-2.07-1.37 2.32-2.72 4.64-4.05 6.96-1.89.62-3.76 1.22-5.62 1.76 1.24-2.2 2.49-4.42 3.76-6.65zm7.18-2.52c2.01-.74 4.04-1.54 6.09-2.37-1.54 2.43-3.04 4.9-4.52 7.38-1.91.7-3.81 1.38-5.68 2.01 1.34-2.34 2.72-4.68 4.11-7.02zm2.25 5.55c1.92-.72 3.86-1.48 5.82-2.26-1.48 2.32-2.91 4.68-4.33 7.05-1.82.67-3.63 1.32-5.41 1.92 1.28-2.24 2.59-4.48 3.92-6.71zm7.18-2.8c2.11-.87 4.25-1.77 6.4-2.72-1.79 2.47-3.5 5.03-5.18 7.63-1.9.78-3.78 1.52-5.64 2.22 1.44-2.4 2.91-4.78 4.42-7.13zm7.97-3.44c2.68-1.2 5.39-2.48 8.13-3.81-2.52 2.78-4.92 5.76-7.22 8.88-2.11.95-4.2 1.85-6.28 2.71 1.74-2.66 3.53-5.26 5.37-7.78zm1.58 5.57c2.56-1.15 5.14-2.36 7.75-3.63-2.41 2.65-4.7 5.5-6.9 8.49-2.02.9-4.01 1.76-5.98 2.58 1.66-2.55 3.37-5.03 5.13-7.44zm47.25-19.94c1.14-.74 2.28-1.43 3.42-2.14 2.52.02 5.08.17 7.66.43-2.79 1.6-5.61 3.31-8.43 5.07-.09 0-.19-.02-.28-.02-2.98 0-5.84.24-8.61.62 2.07-1.29 4.14-2.6 6.24-3.96zm2.94 4.08c2.42.02 4.87.16 7.34.41-2.67 1.53-5.36 3.16-8.05 4.84-.09 0-.19-.01-.28-.01-2.85 0-5.58.22-8.23.58 1.97-1.23 3.95-2.48 5.94-3.77 1.1-.71 2.19-1.37 3.28-2.05zm8.57.57c2.24.26 4.49.58 6.76 1-2.56 1.34-5.15 2.73-7.75 4.21-2.34-.26-4.66-.41-6.95-.46 2.66-1.65 5.3-3.25 7.94-4.75zm-.77 5.95c2.14.25 4.29.55 6.46.95-2.46 1.29-4.94 2.62-7.43 4.04-2.24-.25-4.45-.39-6.64-.44 2.55-1.58 5.08-3.11 7.61-4.55zm-.75 5.73c2.04.24 4.09.52 6.16.9-2.35 1.23-4.71 2.5-7.09 3.85-2.13-.23-4.23-.37-6.32-.42 2.43-1.5 4.85-2.96 7.25-4.33zm-.71 5.5c1.95.22 3.9.5 5.87.86-2.24 1.17-4.5 2.39-6.78 3.68-2.03-.22-4.04-.35-6.03-.4 2.32-1.44 4.64-2.83 6.94-4.14zm7.05 1.1c1.82.35 3.65.74 5.49 1.19-2.18 1.03-4.4 2.14-6.62 3.29-1.87-.35-3.73-.63-5.58-.87 2.25-1.26 4.49-2.46 6.71-3.61zm6.6 1.49c1.8.46 3.59.93 5.38 1.47-2.18.92-4.38 1.92-6.63 2.96-1.77-.45-3.55-.83-5.32-1.19 2.21-1.14 4.41-2.23 6.57-3.24zm1.03-.47c2.34-1.08 4.64-2.1 6.91-3.06 1.84.57 3.67 1.14 5.5 1.76-2.3.86-4.63 1.81-7.01 2.8-1.8-.54-3.6-1.03-5.4-1.5zm13.44-.93c1.83.63 3.65 1.27 5.46 1.95-2.34.77-4.73 1.61-7.19 2.52-1.76-.6-3.53-1.16-5.3-1.71 2.39-.99 4.73-1.9 7.03-2.76zm6.53 2.37c1.84.7 3.68 1.41 5.48 2.14-2.39.66-4.87 1.4-7.46 2.23-1.72-.65-3.46-1.27-5.21-1.88 2.46-.9 4.86-1.74 7.19-2.49zm1.13-.35c2.72-.87 5.33-1.64 7.83-2.32 1.99.81 3.96 1.62 5.89 2.44-2.53.56-5.31 1.26-8.21 2.04-1.81-.73-3.66-1.45-5.51-2.16zm14.87.6c2.18.94 4.26 1.85 6.37 2.78-2.95.45-5.92.97-8.94 1.61-1.86-.79-3.77-1.59-5.69-2.37 2.93-.78 5.73-1.47 8.26-2.02zm1.25-.26c3.19-.66 6.33-1.19 9.44-1.64.97.42 2 .86 2.96 1.28 1.58.7 3.14 1.37 4.67 2.05-3.39.22-6.93.63-10.54 1.15-2.15-.94-4.29-1.88-6.53-2.84zm2.77-5.34c3.33-.7 6.62-1.25 9.87-1.72 1.01.44 2.08.9 3.08 1.33 1.66.73 3.29 1.45 4.91 2.15-3.55.23-7.26.66-11.03 1.21-2.26-.99-4.49-1.97-6.83-2.97zm13.39-1.01c-.68-.3-1.41-.61-2.1-.91 4.01-.55 7.94-.97 11.69-1.18 4.43 1.92 8.6 3.67 12.52 5.19-3.05-.39-6.41-.61-10.09-.61-1.9 0-3.89.08-5.9.19-2-.87-4.03-1.76-6.12-2.68zm11.36-2.14c1.56-.07 3.13-.15 4.61-.15 5.18 0 9.79.39 13.67 1.11 2.99 1.1 5.76 1.99 8.35 2.68 1.93 1.01 3.39 2.18 4.16 3.54.44.77.66 1.59.68 2.45-.32.02-.63.06-.98.06-2.36 0-5.18-.52-8.33-1.36-2.13-1.07-4.79-1.96-8.03-2.58-4.32-1.59-9.09-3.58-14.13-5.75zm35.65 4.41c-2.46 0-5.4-.54-8.68-1.42-2.21-1.12-4.99-2.04-8.36-2.68-4.51-1.66-9.49-3.74-14.75-6.01 1.64-.07 3.3-.15 4.87-.15 5.38 0 10.18.4 14.22 1.15 3.12 1.15 6 2.07 8.7 2.79 2.02 1.05 3.54 2.27 4.34 3.68.46.82.69 1.68.71 2.58-.35.02-.68.06-1.05.06zm5.08-1.22c-.04.08-.11.15-.16.23-.07.03-.15.06-.22.09.13-.1.26-.21.38-.32zm-.98 5.51c1.39-.8 2.76-1.52 4.13-2.21-.04.62-.05 1.24-.03 1.85-1.46.62-2.93 1.3-4.43 2.03.08-.56.2-1.11.33-1.67zm4.11.44c.07.7.22 1.39.37 2.08-1.62.56-3.28 1.19-4.97 1.89-.01-.62-.03-1.23.03-1.85 1.55-.77 3.07-1.48 4.57-2.12zm.05-3.53c-1.3.65-2.61 1.37-3.94 2.11.15-.49.38-.99.56-1.49 1.25-.79 2.47-1.53 3.7-2.24-.11.54-.26 1.08-.32 1.62zm-2.93-.55c.17-.4.39-.8.6-1.2 1.09-.78 2.17-1.53 3.26-2.24-.15.45-.29.9-.41 1.34-1.14.66-2.3 1.38-3.45 2.1zm9.11 1.67c.03.1.03.21.05.31.2.73.5 1.45.79 2.17-1.88.48-3.82 1.04-5.84 1.71-.14-.71-.29-1.43-.34-2.15 1.82-.76 3.6-1.44 5.34-2.04zm.73-1.04c-.15-.74-.31-1.49-.36-2.25 1.91-.8 3.78-1.51 5.6-2.14.03.11.03.22.06.32.2.77.51 1.53.82 2.28-1.97.5-4 1.09-6.12 1.79zm113.57-35.75c-2.31-7.82-15.41-13.08-32.6-13.08-10.73 0-35.51 2.23-62.5 19.82.75-.81 1.39-1.61 1.95-2.4 29.9-21.52 58.05-24.14 69.81-24.14 17.44 0 30.71 5.25 33.01 13.06 1.01 3.44-.16 7.02-3.3 10.56-1.02.42-2.06.84-3.15 1.26-1.32.5-2.56 1.05-3.83 1.58 1.02-2.24 1.26-4.47.61-6.66zm-91.84 2.33c-.04.04-.1.06-.14.1.15-.29.31-.59.44-.87.8-.64 1.6-1.25 2.4-1.86-.8.87-1.68 1.74-2.7 2.63zm.74-2.1c.02-.08.05-.16.07-.24.68-.59 1.35-1.18 2.03-1.75.22-.05.46-.09.67-.15-.92.68-1.85 1.42-2.77 2.14zm.29-1.47c0-.07 0-.13.01-.2.07-.01.16 0 .23-.01l-.24.21zm6.12-4.05c.89-.7 1.78-1.38 2.66-2.05-.87.95-1.81 1.9-2.93 2.88-.07.06-.15.09-.22.15.17-.33.36-.66.49-.98zm.45-1.33c.17-.61.28-1.2.32-1.79.95-.1 1.83-.26 2.64-.49-.98.72-1.97 1.52-2.96 2.28zm.38-2.49c-.01-1.32-.33-2.59-1.01-3.79-.83-1.46-2.23-2.77-3.99-3.95 3.57.83 6.84 1.34 9.67 1.34.54 0 1.02-.07 1.53-.1-.15 1.69-.82 3.46-2.02 5.3-1.2.61-2.58 1.01-4.18 1.2zm4.67-7.11c-3.39 0-7.46-.74-11.98-1.95-3.03-1.55-6.83-2.81-11.47-3.69-6.35-2.34-13.37-5.28-20.79-8.48 2.46-.11 4.94-.23 7.29-.23 7.42 0 14.04.56 19.6 1.6 4.3 1.58 8.32 2.88 12.03 3.88 2.76 1.44 4.84 3.12 5.94 5.05.67 1.18.97 2.42.97 3.73-.52.03-1.02.09-1.59.09zm-17.01-13.41c-6.65-2.44-13.96-5.5-21.74-8.86 2.6-.12 5.2-.24 7.67-.24 7.71 0 14.57.58 20.36 1.66 4.51 1.65 8.71 3.03 12.6 4.07 2.86 1.5 5.02 3.24 6.16 5.25.69 1.22 1.01 2.52 1.01 3.88-.56.04-1.09.1-1.69.1-3.51 0-7.68-.73-12.36-1.98-3.16-1.62-7.14-2.95-12.01-3.88zm6.65-8.09c-6.92-2.54-14.54-5.73-22.64-9.23 2.72-.13 5.44-.25 8.04-.25 8.03 0 15.19.6 21.22 1.73 4.66 1.71 9.02 3.13 13.05 4.21 2.99 1.57 5.24 3.39 6.44 5.49.72 1.27 1.05 2.63 1.05 4.05-.58.04-1.14.11-1.77.11-3.65 0-7.98-.76-12.84-2.05-3.29-1.7-7.46-3.09-12.55-4.06zm6.94-8.41c-7.22-2.65-15.17-5.98-23.62-9.63 2.86-.13 5.72-.26 8.44-.26 8.35 0 15.79.62 22.06 1.79 4.98 1.83 9.61 3.34 13.89 4.47 3.01 1.61 5.21 3.49 6.42 5.63.76 1.33 1.1 2.76 1.1 4.24-.61.05-1.19.11-1.84.11-3.81.01-8.32-.78-13.39-2.13-3.42-1.77-7.76-3.22-13.06-4.22zm7.23-8.75c-7.53-2.77-15.81-6.24-24.62-10.05 2.99-.14 5.98-.28 8.83-.28 8.7 0 16.45.65 22.98 1.88 5.16 1.9 9.98 3.46 14.41 4.64 3.14 1.68 5.44 3.64 6.71 5.87.79 1.4 1.14 2.89 1.13 4.44-.63.05-1.24.12-1.92.12h-.01c-3.88 0-8.46-.79-13.59-2.14-3.6-1.9-8.29-3.41-13.92-4.48zm14.67-6.62c.6.18 1.19.37 1.76.57-.57-.2-1.16-.39-1.76-.57zm-7.16-2.49c-7.84-2.88-16.48-6.5-25.67-10.48 3.14-.14 6.28-.28 9.27-.28 9.04 0 17.1.67 23.89 1.94 5.37 1.98 10.39 3.61 15.01 4.83 3.27 1.75 5.66 3.79 6.98 6.12.83 1.46 1.2 3.01 1.19 4.64-.67.05-1.31.12-2.03.12-4.04 0-8.81-.82-14.15-2.22-3.74-1.98-8.62-3.55-14.49-4.67zm14.24-7.23c1.12.32 2.18.67 3.21 1.03-1.03-.36-2.09-.71-3.21-1.03zm-6.37-2.23c-8.19-3.01-17.22-6.79-26.82-10.94 3.29-.15 6.57-.3 9.7-.3 9.42 0 17.82.7 24.9 2.03 5.58 2.05 10.78 3.74 15.57 5.01 3.42 1.83 5.91 3.96 7.29 6.39.87 1.52 1.25 3.14 1.24 4.83-.7.05-1.37.13-2.13.13-4.21 0-9.19-.86-14.76-2.33-3.88-2.04-8.93-3.67-14.99-4.82zm14.1-7.76c1.59.44 3.06.93 4.46 1.44-1.4-.51-2.87-1-4.46-1.44zm-5.98-2.1c-8.53-3.14-17.93-7.08-27.93-11.4 3.44-.16 6.87-.32 10.14-.32 26.17 0 44.75 5.23 49.72 13.98.9 1.59 1.3 3.28 1.28 5.05-.73.06-1.44.14-2.23.14-4.38 0-9.56-.89-15.36-2.42-4.03-2.13-9.29-3.83-15.62-5.03zm-3.75-.63c-6.34-.95-13.56-1.46-21.49-1.46-3.62 0-7.39.15-11.21.36-3.8-1.65-7.68-3.35-11.64-5.08-1.61-.71-3.28-1.43-4.91-2.15 8.02-1.14 15.85-1.98 23.33-2.39 9.2 3.99 17.89 7.66 25.92 10.72zm-50.61-8.93c-4.72-2.06-9.49-4.14-14.39-6.24 6.91-1.45 13.77-2.66 20.52-3.65 2.08.91 4.18 1.83 6.23 2.72 3.67 1.61 7.28 3.19 10.82 4.73-7.44.45-15.22 1.28-23.18 2.44zm-1.38.21c-6.44.97-12.99 2.14-19.6 3.55-4.19-1.78-8.47-3.57-12.81-5.34 6.49-1.73 12.57-3.19 18.13-4.38 4.86 2.07 9.6 4.13 14.28 6.17zm-33.5-2.24c-4.08-1.65-8.21-3.28-12.38-4.87 5.96-1.9 11.71-3.61 17.16-5.09 4.5 1.83 8.95 3.69 13.3 5.54-5.55 1.21-11.62 2.68-18.08 4.42zm-13.45-5.28c-28.38-10.75-58.62-19.48-86.47-19.48-13.42 0-25.77 2.04-36.71 6.07-38.48 14.19-63.3 58.53-85.2 97.65-3.01 5.36-5.93 10.58-8.83 15.63-2.8.54-5.56 1.01-8.28 1.39 4.57-7.7 9.12-15.81 13.85-24.26 22.73-40.6 48.49-86.6 88.2-101.23 11.26-4.16 23.98-6.26 37.79-6.26 33.18 0 69.68 11.98 102.78 25.37-5.44 1.49-11.18 3.21-17.13 5.12zM250.34 144.03c-1.42 2.48-2.84 4.92-4.26 7.31-2.76.37-5.49.69-8.17.91 1.39-2.25 2.78-4.54 4.16-6.86 2.72-.38 5.48-.83 8.27-1.36zm-4.74 8.09c-1.31 2.19-2.62 4.36-3.93 6.48-2.71.19-5.39.27-8.01.29 1.29-1.96 2.56-3.93 3.79-5.9 2.67-.2 5.4-.5 8.15-.87zm-12.97 6.8c-2.79 0-5.5-.13-8.17-.33 1.21-1.73 2.39-3.48 3.55-5.24 2.74-.01 5.55-.09 8.39-.28-1.23 1.95-2.49 3.91-3.77 5.85zm-9.15-.41c-10.94-.92-20.85-3.51-29.68-7.75-.08-.05-.15-.12-.22-.18-1.51-1.8-3.04-3.43-4.61-4.82 11.23 4.96 23.98 7.52 38.02 7.59-1.15 1.74-2.32 3.46-3.51 5.16zm-32.52-9.66c-.3-.18-.59-.38-.89-.54-.29-.43-.58-.87-.88-1.27.6.56 1.18 1.18 1.77 1.81zm.58 1.58c-.03-.04-.06-.07-.08-.11.44.23.91.43 1.36.65.81.97 1.61 2 2.4 3.09-.56-.25-1.13-.5-1.7-.7-.67-.96-1.34-1.92-1.98-2.93zm1.32 4.05c-.22-.24-.43-.49-.64-.73.22.06.45.11.67.19.33.46.66.91 1 1.35-.34-.27-.69-.53-1.03-.81zm3.56 2.74c-.66-.81-1.29-1.64-1.92-2.49.64.38 1.29.74 1.94 1.09.29.44.59.84.88 1.29.3.46.62.89.92 1.34-.61-.4-1.23-.8-1.82-1.23zm1.71-.43l-.04-.06c.41.21.84.4 1.26.6.76.92 1.52 1.89 2.27 2.92-.53-.23-1.05-.46-1.57-.64-.65-.92-1.3-1.84-1.92-2.82zm1.25 3.87c-.2-.21-.38-.44-.58-.65.2.05.4.1.61.17.29.41.59.81.88 1.21-.3-.24-.61-.48-.91-.73zm1.61.29c.59.35 1.2.69 1.81 1.02.28.42.58.81.86 1.25.27.43.56.82.84 1.24-.54-.37-1.1-.72-1.63-1.11-.64-.78-1.27-1.57-1.88-2.4zm-7.82 27.69c-1.64.89-3.3 1.68-5.01 2.37-1.52-6.58-1.01-12.54 1.17-17.24 2.47-5.3 6.82-8.35 11.94-8.35.72 0 1.44.09 2.16.21.45.39.89.79 1.35 1.17 1.23 1.34 2.51 2.61 3.84 3.82-.38-.03-.76-.11-1.14-.11-5.33 0-9.82 3.1-12.31 8.48-1.31 2.81-1.98 6.08-2 9.65zm14.7-11.23c-1.97 1-3.67 2.56-5.02 4.6-2.82 2.35-5.75 4.41-8.79 6.15.08-3.3.74-6.32 1.95-8.93 2.37-5.09 6.55-8.01 11.47-8.01.68 0 1.37.09 2.06.2.45.39.9.79 1.36 1.17.26.29.51.58.78.86-1.25 1.37-2.52 2.69-3.81 3.96zm5.56-1.32c-1.26 0-2.47.18-3.61.53.82-.84 1.62-1.71 2.42-2.59.74.75 1.49 1.46 2.26 2.15-.36-.02-.71-.09-1.07-.09zm1.41-1.35c-.5-.63-.99-1.27-1.48-1.92l.02-.03c.48.28.96.55 1.45.81.25.39.52.74.78 1.14.22.36.47.69.7 1.04-.49-.33-.98-.69-1.47-1.04zm1.62-.25c.32.16.64.3.95.45.57.69 1.14 1.38 1.7 2.14l-.14.17c-.29-.12-.57-.24-.87-.34-.55-.79-1.11-1.59-1.64-2.42zm.64 2.89c.12.03.25.06.37.1.19.27.38.54.57.8-.17-.14-.35-.28-.52-.42l-.42-.48zm2.06 4.06c-1.19 0-2.35.18-3.44.5.78-.8 1.55-1.62 2.31-2.46.69.7 1.39 1.39 2.11 2.05-.33-.03-.65-.09-.98-.09zm1.42-1.22c-.5-.63-.99-1.27-1.47-1.91v-.01c.45.27.91.52 1.37.77.25.38.51.71.75 1.1.2.31.42.6.63.91-.43-.28-.86-.56-1.28-.86zm1.54-.26c.28.14.57.27.85.41.55.65 1.09 1.31 1.63 2.04-.04.04-.08.09-.12.14-.27-.11-.54-.22-.81-.31-.52-.75-1.05-1.5-1.55-2.28zm.61 2.76c.1.03.2.05.3.08.16.23.32.47.49.7-.13-.11-.25-.21-.38-.31-.14-.15-.27-.32-.41-.47zm1.94 3.86c-1.13 0-2.21.16-3.24.47.73-.75 1.44-1.52 2.15-2.3.65.65 1.29 1.29 1.96 1.91-.29-.02-.58-.08-.87-.08zm1.44-1.12c-.49-.59-.97-1.2-1.44-1.82.43.25.85.5 1.28.74.23.34.47.65.69 1 .2.31.43.57.63.88-.38-.27-.78-.52-1.16-.8zm1.43-.27c.26.13.51.26.78.39.52.63 1.04 1.26 1.55 1.96-.03.03-.06.07-.06.07-.29-.07-.54-.17-.8-.26-.5-.71-1-1.42-1.47-2.16zm.63 2.68l.35.09c.14.21.28.41.43.6 0 0-.02.03-.03.04-.09-.07-.19-.14-.27-.21-.16-.17-.32-.35-.48-.52zm1.79 3.65c-1.07 0-2.09.16-3.07.44.69-.7 1.36-1.43 2.03-2.16.61.61 1.21 1.22 1.85 1.8-.27-.02-.54-.08-.81-.08zm1.4-1.06c-.46-.56-.91-1.13-1.34-1.71.37.21.74.42 1.12.63.23.35.47.66.7 1.02.16.25.33.48.49.72-.32-.22-.65-.43-.97-.66zm.14-2.04l.03.02s-.01 0-.01-.01l-.02-.01zm4.56 2.7c-.58-.25-1.14-.54-1.71-.82-.06-.04-.13-.1-.19-.15-.93-1.11-1.87-2.15-2.84-3.06.03-.04.06-.07.09-.1 2.01.85 4.07 1.63 6.2 2.28-.51.63-1.03 1.24-1.55 1.85zm1.98-2.4c-2.14-.64-4.21-1.39-6.21-2.23.56-.67 1.13-1.33 1.68-2.02 2.15.62 4.37 1.13 6.63 1.56-.69.91-1.39 1.8-2.1 2.69zm7.21 1.71c-2.17-.4-4.3-.87-6.35-1.46.72-.91 1.45-1.82 2.15-2.76 2.16.38 4.37.68 6.62.89-.79 1.12-1.6 2.23-2.42 3.33zm.91.17c.84-1.13 1.67-2.27 2.49-3.43 2.13.18 4.3.29 6.52.3-.87 1.32-1.76 2.63-2.67 3.92-2.16-.18-4.28-.44-6.34-.79zm7.32.87c.92-1.32 1.82-2.65 2.71-4 2.08 0 4.22-.06 6.39-.21-.93 1.49-1.89 2.98-2.87 4.46-2.13 0-4.2-.1-6.23-.25zm7.26.22c.98-1.5 1.95-3 2.89-4.51 2.03-.15 4.11-.38 6.2-.65-.99 1.67-1.99 3.32-3 4.94-2.07.14-4.1.2-6.09.22zm13.07-.96c-2 .27-3.98.5-5.93.66 1.02-1.65 2.04-3.33 3.05-5.03 1.97-.27 3.97-.6 6-.98-1.04 1.81-2.08 3.6-3.12 5.35zm6.82-1.13c-1.93.37-3.84.69-5.72.96 1.05-1.77 2.09-3.57 3.14-5.39 1.91-.37 3.84-.79 5.79-1.25-1.07 1.89-2.15 3.84-3.21 5.68zm6.66-1.45c-1.87.45-3.72.86-5.55 1.23 1.07-1.86 2.16-3.82 3.24-5.73 1.88-.46 3.78-.97 5.7-1.51-.26.46-.53.93-.78 1.4-.89 1.58-1.74 3.06-2.61 4.61zm6.58-1.74c-1.84.53-3.65 1.02-5.44 1.47.76-1.37 1.51-2.67 2.29-4.07.37-.66.75-1.33 1.12-1.99 1.84-.54 3.71-1.12 5.59-1.73-1.2 2.12-2.39 4.23-3.56 6.32zm1.17-.33c1.19-2.11 2.38-4.23 3.6-6.37 1.85-.61 3.73-1.28 5.62-1.96-1.31 2.21-2.6 4.43-3.87 6.65-1.8.6-3.59 1.16-5.35 1.68zm7.7 3.35c-1.71.57-3.42 1.11-5.1 1.61 1.13-2.02 2.27-4.05 3.44-6.09 1.77-.59 3.56-1.22 5.36-1.88-1.25 2.12-2.49 4.24-3.7 6.36zm6.36-2.21c-1.73.64-3.46 1.26-5.16 1.83 1.23-2.15 2.48-4.29 3.76-6.42 1.82-.68 3.67-1.41 5.53-2.16-1.41 2.22-2.78 4.48-4.13 6.75zm1.26-.46c1.38-2.3 2.79-4.58 4.24-6.82 2.01-.83 4.03-1.69 6.08-2.59-1.7 2.36-3.34 4.81-4.95 7.29-1.8.74-3.59 1.45-5.37 2.12zm7.12 2.9c-1.71.7-3.42 1.38-5.1 2.01 1.31-2.19 2.65-4.36 4.03-6.5 1.91-.79 3.84-1.61 5.79-2.47-1.62 2.26-3.19 4.59-4.72 6.96zm7.1-3.04c-1.92.86-3.82 1.68-5.71 2.47 1.59-2.43 3.22-4.8 4.91-7.1 2.43-1.09 4.89-2.25 7.38-3.46-2.3 2.54-4.49 5.25-6.58 8.09zm1.58-.72c2.22-2.96 4.55-5.77 7-8.35 9.21-4.56 18.77-9.89 28.69-16.02 2.92-.48 5.98-.72 9.15-.76-.79.51-1.59.99-2.39 1.5-2.42 1.57-4.82 3.08-7.2 4.55-3.08.52-6.01 1.29-8.77 2.31-7.18 2.64-13.42 7.35-19 13.21-2.52 1.25-5.02 2.43-7.48 3.56zm33.41-17.96c-8.16 4.99-16.08 9.44-23.73 13.31 5.12-5.07 10.78-9.13 17.18-11.49 2.07-.76 4.28-1.34 6.55-1.82zm-22.66 18.42c4.9-4.83 10.31-8.71 16.44-10.96 1.96-.73 4.04-1.28 6.19-1.73-7.79 4.75-15.34 9-22.63 12.69zm24.48-13.82c-2.96.5-5.78 1.24-8.43 2.21-6.91 2.54-12.9 7.07-18.27 12.7-2.41 1.2-4.79 2.33-7.14 3.4 2.13-2.83 4.36-5.51 6.71-7.99 8.84-4.38 18.02-9.5 27.55-15.39 2.8-.46 5.73-.69 8.77-.73-.76.48-1.52.94-2.28 1.43-2.32 1.51-4.63 2.96-6.91 4.37zm1.82-.23c1.88-1.17 3.76-2.36 5.66-3.59 1.06-.68 2.11-1.32 3.17-1.98 2.3.02 4.63.15 6.99.39-2.56 1.47-5.14 3.03-7.72 4.64-.09 0-.18-.01-.27-.01-2.71 0-5.3.21-7.83.55zm-.02 5.48c1.79-1.11 3.58-2.24 5.39-3.41 1.01-.65 2.01-1.26 3.02-1.89 2.2.02 4.42.14 6.67.37-2.44 1.4-4.9 2.89-7.36 4.43-.08-.01-.17-.02-.26-.02-2.58 0-5.05.21-7.46.52zm-.02 5.28c1.7-1.05 3.4-2.13 5.12-3.24.98-.63 1.95-1.22 2.92-1.83 2.09.02 4.21.14 6.36.35-2.34 1.35-4.7 2.77-7.06 4.25-.08-.01-.16-.02-.24-.02-2.46 0-4.81.19-7.1.49zm6.97 4.63c-.08 0-.15-.01-.22-.01-2.35 0-4.6.18-6.79.46 1.62-1.01 3.25-2.03 4.89-3.09.93-.6 1.85-1.16 2.78-1.74 2 .02 4.02.12 6.07.33-2.24 1.28-4.48 2.64-6.73 4.05zm7.08.45c-1.93-.22-3.85-.34-5.75-.39 2.22-1.37 4.43-2.69 6.62-3.95 1.86.22 3.73.48 5.61.82-2.15 1.12-4.3 2.28-6.48 3.52zm6.6 1c-1.8-.34-3.57-.61-5.35-.83 2.15-1.21 4.27-2.35 6.39-3.45 1.77.34 3.54.71 5.32 1.15-2.11 1-4.22 2.02-6.36 3.13zm6.2 1.38c-1.69-.43-3.38-.8-5.08-1.14 2.11-1.08 4.2-2.12 6.27-3.09 1.71.44 3.42.89 5.13 1.4-2.08.89-4.18 1.83-6.32 2.83zm7.37-3.27c-1.71-.52-3.43-.98-5.15-1.43 2.24-1.04 4.44-2.01 6.62-2.92 1.75.53 3.5 1.08 5.23 1.67-2.19.83-4.43 1.73-6.7 2.68zm1.09.35c2.27-.94 4.5-1.83 6.69-2.65 1.73.6 3.46 1.21 5.17 1.85-2.23.73-4.53 1.54-6.89 2.42-1.65-.57-3.31-1.1-4.97-1.62zm11.01 3.8c-1.64-.63-3.3-1.21-4.96-1.8 2.35-.86 4.65-1.66 6.88-2.38 1.75.67 3.5 1.34 5.22 2.03-2.28.64-4.66 1.35-7.14 2.15zm3.04-4.54c2.6-.82 5.1-1.56 7.49-2.2 1.89.77 3.77 1.54 5.61 2.32-2.41.53-5.07 1.21-7.84 1.95-1.73-.7-3.49-1.39-5.26-2.07zm11.79 4.79c-1.77-.76-3.59-1.51-5.42-2.26 2.78-.74 5.46-1.4 7.87-1.92 2.09.89 4.07 1.76 6.08 2.64-2.81.43-5.65.93-8.53 1.54zm9.95-1.74c-2.06-.9-4.1-1.8-6.24-2.71 3.04-.63 6.04-1.13 9.01-1.57.94.41 1.93.83 2.84 1.24 1.51.66 2.99 1.3 4.45 1.94-3.24.22-6.62.6-10.06 1.1zm26.23-.84c-2.76-.34-5.79-.53-9.09-.53-1.75 0-3.58.08-5.43.17-1.85-.8-3.73-1.62-5.65-2.46-.6-.27-1.26-.55-1.87-.81 3.68-.51 7.28-.89 10.71-1.08 4 1.73 7.77 3.32 11.33 4.71zm-5.44-5.59c-1.83 0-3.74.07-5.67.17-1.92-.83-3.87-1.68-5.87-2.56-.64-.28-1.34-.58-1.99-.86 3.84-.53 7.61-.94 11.21-1.14 4.2 1.83 8.19 3.5 11.92 4.95-2.9-.36-6.11-.56-9.6-.56zm28.68 4.86c-2.27 0-4.99-.5-8.02-1.31-2.04-1.03-4.58-1.88-7.68-2.47-4.15-1.53-8.72-3.44-13.55-5.52 1.47-.06 2.97-.14 4.38-.14 4.96 0 9.38.37 13.1 1.06 2.9 1.07 5.58 1.93 8.09 2.6 1.84.96 3.24 2.08 3.97 3.37.42.74.63 1.53.65 2.35-.31.02-.61.06-.94.06zm1.84-.13c-.03-.89-.26-1.75-.73-2.56-.52-.92-1.4-1.75-2.45-2.52 2.31.51 4.45.84 6.3.84.33 0 .61-.04.92-.06-.01.07-.01.14-.02.22-.52.55-.97 1.09-1.45 1.63-.22.2-.45.38-.67.59-.69.62-1.28 1.24-1.9 1.86zm2.68-.79v0zm3.08 2.04c-1.17.58-2.35 1.23-3.54 1.89.13-.43.32-.86.49-1.3 1.12-.71 2.22-1.37 3.33-2.02-.1.48-.23.95-.28 1.43zm.48-2.45c-1.02.59-2.06 1.23-3.09 1.88.15-.34.35-.68.52-1.02.97-.7 1.94-1.36 2.91-2-.13.38-.24.76-.34 1.14zm.37 4.6c-.01-.58-.03-1.16.02-1.75 1.48-.73 2.94-1.4 4.37-2.02.06.66.21 1.32.35 1.98-1.55.53-3.13 1.13-4.74 1.79zm1.66-7.74c.16-.37.37-.74.55-1.11 1.04-.73 2.07-1.44 3.09-2.12-.13.42-.26.83-.37 1.24-1.08.62-2.18 1.3-3.27 1.99zm3.93 5.65c-.13-.68-.28-1.36-.32-2.04 1.74-.73 3.44-1.38 5.1-1.96.03.09.03.19.05.28.19.7.48 1.39.75 2.08-1.79.46-3.65.99-5.58 1.64zm5.72-3.86c-.04-.15-.04-.3-.08-.44 2.07-.7 4.05-1.28 5.96-1.77.43.97.94 1.93 1.52 2.87-2.06.32-4.29.76-6.68 1.34-.26-.66-.54-1.32-.72-2zm10.55 4.81c-2.13.03-4.85.2-8.09.66-.58-.91-1.07-1.84-1.49-2.79 2.45-.6 4.75-1.05 6.86-1.37.78 1.19 1.71 2.35 2.72 3.5zm6.22-4.99c-2.22.04-5.07.21-8.47.69-.6-.96-1.13-1.94-1.56-2.93 2.56-.63 4.97-1.1 7.17-1.44.82 1.25 1.8 2.47 2.86 3.68zm-3.28-4.33c-2.16.34-4.5.8-7 1.41-.27-.69-.56-1.38-.75-2.09-.05-.16-.05-.32-.09-.47 2.17-.73 4.24-1.34 6.24-1.85.45 1.02.99 2.02 1.6 3zm17.54-6.29c-3.97 0-10.51.43-18.53 2.4-.29-.73-.59-1.46-.79-2.2-.05-.16-.05-.33-.09-.49 11.61-3.91 21.19-4.61 26.44-4.61 13.16 0 23.18 3.94 24.91 9.83.35 1.17.25 2.37-.06 3.57-.55.38-1.05.77-1.58 1.16-1.86 1.03-3.65 2.1-5.33 3.21.13-.97.13-1.93-.15-2.88-1.76-5.97-11.72-9.99-24.82-9.99zm31.42 9.91c-.08.17-.21.33-.3.5-.39.17-.81.33-1.19.5.31-.24.64-.48.97-.72.17-.09.35-.19.52-.28zm-9.26 5.91c.26-.2.53-.39.79-.59.16-.08.32-.17.48-.26-.07.15-.18.29-.25.43-.34.14-.69.27-1.02.42zm4.84-.69c-.12.1-.25.2-.37.29-1.08.54-2.21 1.07-3.41 1.6.15-.21.23-.43.37-.64.19-.2.38-.4.58-.59 1.1-.47 2.19-.94 3.34-1.37.05-.02.09-.05.14-.07-.22.26-.44.52-.65.78zm.11-1.35c-.49.19-.93.39-1.41.58.53-.47 1.09-.94 1.64-1.4.93-.45 1.84-.9 2.8-1.33-.48.5-.99.98-1.45 1.49-.55.22-1.02.45-1.58.66zm2.33.21c.2-.21.37-.41.56-.62.45-.19.9-.37 1.34-.56-.63.39-1.21.79-1.9 1.18zm5.66-3.85c-.11.09-.23.17-.33.26-1.16.58-2.36 1.14-3.64 1.7.18-.24.26-.48.41-.72.2-.19.39-.39.59-.59 1.15-.48 2.29-.97 3.5-1.43.07-.03.13-.06.2-.09-.25.29-.49.58-.73.87zm.13-1.42c-.55.21-1.05.44-1.58.65.57-.52 1.18-1.02 1.79-1.53.99-.48 1.97-.97 3.01-1.43-.53.54-1.08 1.07-1.59 1.63-.56.22-1.05.46-1.63.68zm2.33.26c.24-.23.43-.47.64-.7.52-.22 1.04-.43 1.54-.65-.72.45-1.38.91-2.18 1.35zm6-4.08c-.12.11-.26.21-.39.31-1.2.6-2.46 1.2-3.81 1.78.19-.26.28-.53.45-.79.21-.2.41-.41.62-.62 1.2-.5 2.38-1.01 3.64-1.49.1-.04.18-.08.28-.12-.27.31-.53.62-.79.93zm.11-1.44c-.6.22-1.15.47-1.74.71.62-.56 1.28-1.11 1.93-1.65 1.07-.52 2.12-1.04 3.23-1.54-.57.59-1.17 1.16-1.71 1.76-.59.23-1.1.48-1.71.72zm2.34.32c.27-.27.5-.55.74-.82.61-.25 1.22-.5 1.8-.75-.83.52-1.61 1.05-2.54 1.57zm6.34-4.3c-.13.11-.27.21-.41.32-1.27.64-2.6 1.26-4.02 1.88.21-.29.31-.57.49-.86.22-.22.43-.44.66-.66 1.24-.52 2.48-1.05 3.78-1.55.12-.05.23-.1.35-.14-.29.33-.57.67-.85 1.01zm.11-1.51c-.65.25-1.25.52-1.89.77.68-.61 1.39-1.2 2.1-1.8 1.14-.54 2.25-1.1 3.44-1.62-.63.63-1.28 1.25-1.87 1.9-.61.25-1.15.5-1.78.75zm2.36.38c.28-.28.5-.56.76-.84.66-.27 1.3-.55 1.94-.83-.88.56-1.72 1.12-2.7 1.67zm6.26-4.19c-1.34.67-2.75 1.33-4.26 1.98.23-.31.36-.62.56-.94.23-.23.45-.46.69-.7 1.29-.54 2.57-1.09 3.92-1.61.38-.14.73-.29 1.11-.44-.6.57-1.31 1.14-2.02 1.71zm2.89-1.46c.32-.31.57-.63.86-.94.76-.32 1.5-.64 2.24-.96-1 .64-1.97 1.28-3.1 1.9zm6.39-4.24c-1.37.68-2.83 1.35-4.36 2.01.42-.55.69-1.1 1-1.65 1.48-.63 2.95-1.26 4.49-1.85.42-.16.8-.32 1.2-.48-.68.66-1.49 1.32-2.33 1.97zm3.19-1.65c.37-.36.74-.73 1.07-1.09.89-.37 1.75-.74 2.6-1.12-1.14.74-2.35 1.48-3.67 2.21zm7.03-4.61c-1.55.77-3.2 1.52-4.93 2.27.46-.6.87-1.21 1.21-1.81 1.49-.63 2.97-1.27 4.53-1.87.49-.18.93-.37 1.4-.56-.67.66-1.4 1.32-2.21 1.97zm2.88-1.51c.41-.4.81-.79 1.17-1.19.98-.41 1.92-.82 2.84-1.23-1.24.81-2.56 1.62-4.01 2.42zm7.35-4.8c-1.62.8-3.34 1.59-5.16 2.37.5-.65.95-1.3 1.31-1.95 1.56-.66 3.1-1.32 4.73-1.94.52-.2 1-.4 1.51-.61-.73.71-1.51 1.42-2.39 2.13zm2.94-1.54c.46-.44.9-.88 1.3-1.33 1.09-.45 2.14-.91 3.17-1.37-1.38.91-2.86 1.81-4.47 2.7zm7.79-5.09c-1.71.86-3.54 1.69-5.46 2.52 2.6-3.36 3.51-6.75 2.54-10.03-2.4-8.13-16.02-13.6-33.89-13.6-11.18 0-37.01 2.34-65.16 20.72.83-.88 1.53-1.75 2.14-2.61 31.11-22.4 60.4-25.12 72.64-25.12 18.15 0 31.98 5.47 34.37 13.6 1.4 4.73-1.15 9.71-7.18 14.52zm-17.17-36.14c18.9 0 33.28 5.69 35.78 14.15 1.98 6.69-3.65 13.88-15.67 20.46 4.57-4.38 6.39-8.85 5.12-13.15-2.49-8.46-16.66-14.15-35.25-14.15-11.63 0-38.56 2.45-67.85 21.61.89-.94 1.64-1.87 2.28-2.79 32.38-23.31 62.85-26.13 75.59-26.13zm-74.1 24c-.09.07-.2.12-.29.19.79-1.49 1.23-2.93 1.34-4.32 1.35-.15 2.55-.43 3.64-.83-1.21 1.61-2.75 3.26-4.69 4.96zm5.49-6.09c-1.25.64-2.7 1.05-4.39 1.25-.01-1.38-.34-2.7-1.05-3.95-.86-1.52-2.32-2.88-4.16-4.12 3.74.88 7.13 1.38 10.08 1.38.58 0 1.09-.07 1.63-.1-.16 1.76-.85 3.61-2.11 5.54zm1.95-1.27c-.11.09-.25.16-.36.24.84-1.57 1.31-3.1 1.42-4.57 1.43-.15 2.71-.45 3.86-.88-1.26 1.69-2.88 3.43-4.92 5.21zm5.71-6.33c-1.3.66-2.83 1.09-4.59 1.3-.01-1.44-.35-2.82-1.09-4.12-.9-1.59-2.43-3.01-4.36-4.3 3.91.91 7.45 1.44 10.53 1.44.61 0 1.14-.07 1.71-.11-.16 1.84-.88 3.77-2.2 5.79zm2.03-1.33c-.13.11-.29.19-.43.29.9-1.66 1.39-3.26 1.51-4.81 1.51-.16 2.86-.49 4.08-.95-1.32 1.78-3.01 3.61-5.16 5.47zm5.95-6.59c-1.37.7-2.97 1.15-4.82 1.36 0-1.49-.36-2.93-1.13-4.28-.94-1.67-2.54-3.17-4.58-4.52 4.1.96 7.81 1.52 11.04 1.52.63 0 1.19-.07 1.78-.11-.16 1.91-.91 3.93-2.29 6.03zm2.1-1.37c-.15.12-.34.21-.49.33.95-1.74 1.47-3.43 1.59-5.05 1.59-.17 3.01-.51 4.29-1-1.38 1.85-3.14 3.76-5.39 5.72zm6.18-6.85c-1.43.73-3.1 1.2-5.03 1.42-.01-1.56-.37-3.06-1.18-4.48-.99-1.73-2.6-3.3-4.72-4.71 4.25 1 8.1 1.57 11.45 1.57h.01c.66 0 1.25-.07 1.86-.11-.16 2-.95 4.11-2.39 6.31zm2.2-1.44c-.18.16-.4.26-.58.4 1-1.84 1.56-3.62 1.68-5.33 1.69-.18 3.19-.54 4.54-1.06-1.44 1.95-3.28 3.95-5.64 5.99zm6.43-7.11c-1.5.76-3.25 1.25-5.27 1.48 0-1.63-.38-3.2-1.22-4.68-1.03-1.82-2.73-3.47-4.97-4.94 4.46 1.05 8.49 1.66 11.99 1.66.7 0 1.32-.08 1.97-.13-.17 2.1-.99 4.31-2.5 6.61zm2.29-1.5c-.2.17-.45.3-.67.46 1.08-1.94 1.66-3.82 1.79-5.62 1.79-.19 3.37-.58 4.79-1.14-1.51 2.05-3.44 4.15-5.91 6.3zm6.7-7.42c-1.57.8-3.4 1.31-5.53 1.55 0-1.7-.39-3.33-1.26-4.87-1.09-1.91-2.87-3.64-5.23-5.18 4.66 1.11 8.88 1.74 12.54 1.74.74 0 1.39-.08 2.07-.13-.17 2.19-1.02 4.49-2.59 6.89zm2.35-1.55c-.22.19-.49.33-.72.5 1.13-2.04 1.74-4.01 1.87-5.89 1.89-.2 3.55-.61 5.04-1.2-1.57 2.14-3.59 4.34-6.19 6.59zm6.97-7.71c-1.63.83-3.54 1.36-5.76 1.61 0-1.77-.41-3.47-1.32-5.07-1.13-2.01-3.02-3.82-5.5-5.43 4.88 1.16 9.3 1.82 13.13 1.82.77 0 1.46-.08 2.17-.13-.17 2.28-1.07 4.69-2.72 7.2zm2.49-1.62c-.26.22-.57.38-.85.58 1.21-2.15 1.86-4.23 1.99-6.22 1.99-.2 3.75-.64 5.32-1.27-1.63 2.24-3.75 4.55-6.46 6.91zm7.25-8.03c-1.71.87-3.72 1.43-6.05 1.69 0-1.85-.42-3.62-1.36-5.29-5.12-9.01-24.01-14.39-50.55-14.39-3.78 0-7.7.13-11.7.34-3.94-1.71-7.96-3.47-12.07-5.27-1.74-.76-3.53-1.54-5.29-2.31 12.95-1.84 25.42-2.81 36.81-2.81 27.24 0 46.59 5.44 51.75 14.55 2.26 3.98 1.68 8.56-1.54 13.49zm-42.13-39.24c28.33 0 48.47 5.68 53.84 15.16 3.61 6.32.43 14.07-9.16 22.4-.28.23-.61.4-.91.62 2.59-4.61 2.89-8.91.73-12.72-5.32-9.37-24.97-14.97-52.58-14.97-11.75 0-24.64 1.03-38.04 2.99-4.92-2.15-9.91-4.32-15.03-6.51 21.59-4.55 42.7-6.97 61.15-6.97zm-47.49 13.69c-6.73 1.01-13.56 2.23-20.45 3.7-4.38-1.86-8.85-3.73-13.37-5.58 6.76-1.81 13.11-3.33 18.9-4.57 5.07 2.16 10.03 4.31 14.92 6.45zm-269.12 72.26c23.65-42.23 50.45-90.1 91.78-105.33C355.64 2.84 368.87.65 383.26.65c39.61 0 83.8 16.43 121.95 32.65-5.79 1.25-12.12 2.79-18.86 4.61-33.4-13.56-70.36-25.78-103.97-25.78-13.95 0-26.8 2.14-38.17 6.33-40.02 14.76-65.86 60.88-88.64 101.59-4.83 8.62-9.46 16.88-14.12 24.72-2.88.39-5.74.72-8.54.94 6.42-10.33 12.65-21.45 19.24-33.22zm-19.7 33.98c2.79-.22 5.64-.54 8.52-.92-1.36 2.29-2.73 4.56-4.11 6.77-2.84.2-5.63.29-8.37.31 1.35-2.05 2.67-4.11 3.96-6.16zm-10.24.38c2.98 0 6.07-.11 9.18-.31-1.28 2.04-2.6 4.09-3.94 6.12-15.23-.02-28.71-2.88-40.4-8.48-.09-.07-.18-.15-.26-.22-1.6-1.91-3.23-3.62-4.9-5.09 11.89 5.27 25.4 7.98 40.32 7.98zm-43.23-9.38c.01.01.01.02.02.02.9 1.08 1.79 2.22 2.66 3.44-.65-.29-1.3-.58-1.95-.8-.73-1.05-1.47-2.1-2.17-3.2-.04-.08-.09-.14-.14-.21.52.27 1.06.5 1.58.75zm-1.8-2.08c-.4-.24-.8-.52-1.2-.74-.39-.56-.77-1.14-1.16-1.68.79.74 1.57 1.58 2.36 2.42zm-2.71-1.42c-.57-.26-1.14-.56-1.72-.77-.19-.12-.38-.25-.57-.37-.7-1-1.4-2-2.07-3.05-.19-.3-.39-.55-.58-.85.71.45 1.43.88 2.14 1.41.95 1.14 1.88 2.34 2.8 3.63zm-4.6-5.72c-.47-.28-.93-.6-1.4-.86-.45-.64-.88-1.31-1.33-1.91.92.84 1.83 1.79 2.73 2.77zm-2.89-1.53c-.75-.35-1.5-.68-2.26-.94-.79-1.13-1.59-2.26-2.34-3.45-.22-.34-.45-.63-.66-.96.77.48 1.54.94 2.3 1.51 1 1.2 1.99 2.48 2.96 3.84zm-4.73-5.91c-.53-.33-1.06-.69-1.59-.97-.48-.7-.95-1.43-1.44-2.1 1.02.94 2.03 1.98 3.03 3.07zm-3.08-1.65c-.79-.36-1.59-.72-2.38-.99-.83-1.17-1.65-2.35-2.44-3.59-.24-.37-.49-.69-.72-1.05.81.5 1.62.98 2.42 1.58 1.06 1.27 2.1 2.61 3.12 4.05zm-4.85-6.07c-.58-.36-1.15-.76-1.74-1.08-.52-.75-1.03-1.55-1.56-2.26 1.11 1.02 2.21 2.14 3.3 3.34zm-3.22-1.75c-.86-.4-1.71-.78-2.56-1.07-.87-1.23-1.74-2.46-2.55-3.75-.26-.41-.54-.76-.8-1.16.89.55 1.77 1.09 2.65 1.74 1.1 1.33 2.19 2.74 3.26 4.24zm-4.99-6.28c-.66-.42-1.31-.86-1.96-1.21-.57-.82-1.13-1.69-1.7-2.47 1.23 1.12 2.45 2.35 3.66 3.68zm-3.45-1.89c-3.24-1.51-6.51-2.37-9.76-2.37-7.81 0-14.41 4.55-18.09 12.48-7.38 15.9-1.87 41.52 24.43 65.67-1.25-.73-2.48-1.34-3.69-1.86-31.11-26.05-37.83-54.45-29.82-71.68 3.69-7.96 10.23-12.51 17.96-12.51 5.16 0 10.43 2.01 15.54 5.81 1.16 1.4 2.3 2.88 3.43 4.46zm-47.25-6.21c3.84-8.28 10.65-13.03 18.69-13.03 7.87 0 15.95 4.47 23.42 12.75-4.56-2.9-9.22-4.49-13.83-4.49-8.13 0-14.99 4.72-18.81 12.98-7.69 16.56-1.92 43.27 25.55 68.42-1.35-.79-2.68-1.47-3.99-2.03-32.38-27.11-39.37-56.66-31.03-74.6zm28.14 73.35c.11.08.18.18.29.26-1.94-.62-3.84-.99-5.67-1.07-.18-1.04-.57-1.96-1.09-2.83 2.1.95 4.24 2.1 6.47 3.64zm-7.9-4.3c.82.99 1.33 2.13 1.59 3.41-4.03.02-7.55 1.44-10.52 4.1 1.35-3.47 1.96-6.54 1.68-9.15 2.31.12 4.73.65 7.25 1.64zm-1.69-1.53c.14.1.23.22.36.32-2.05-.66-4.05-1.05-5.97-1.14-.2-1.09-.61-2.08-1.16-2.99 2.2.99 4.45 2.2 6.77 3.81zm-8.22-4.48c.87 1.04 1.41 2.24 1.68 3.58-4.23.01-7.91 1.51-11.01 4.31 1.42-3.64 2.07-6.86 1.77-9.59 2.41.12 4.93.67 7.56 1.7zm-1.75-1.59c.16.12.27.26.42.38-2.16-.71-4.26-1.12-6.29-1.2-.2-1.16-.64-2.21-1.24-3.17 2.31 1.04 4.67 2.3 7.11 3.99zm-8.54-4.65c.91 1.08 1.47 2.34 1.75 3.74-4.42.01-8.27 1.58-11.51 4.53 1.49-3.82 2.17-7.19 1.85-10.05 2.52.12 5.16.7 7.91 1.78zm-1.82-1.65c.15.11.25.24.39.35-2.25-.73-4.43-1.14-6.54-1.24-.22-1.26-.72-2.38-1.4-3.42 2.44 1.09 4.96 2.52 7.55 4.31zm-8.92-4.88c.97 1.14 1.56 2.47 1.86 3.95-4.63 0-8.65 1.64-12.04 4.74 1.58-4.03 2.3-7.57 1.94-10.57 2.63.12 5.38.75 8.24 1.88zm-1.87-1.68c.18.12.29.27.45.4-2.36-.78-4.66-1.21-6.87-1.31-.24-1.32-.76-2.5-1.47-3.58 2.56 1.13 5.19 2.62 7.89 4.49zm-9.27-5.07c1.01 1.19 1.63 2.57 1.93 4.12-4.84 0-9.05 1.73-12.58 4.98 1.66-4.21 2.41-7.92 2.04-11.06 2.74.13 5.62.78 8.61 1.96zm-1.96-1.76c.2.14.33.32.52.47-2.49-.82-4.9-1.29-7.22-1.38-.25-1.4-.81-2.65-1.56-3.8 2.67 1.19 5.43 2.74 8.26 4.71zm-9.65-5.28c1.06 1.24 1.71 2.7 2.03 4.32h-.03c-5.05 0-9.43 1.8-13.12 5.22 1.75-4.42 2.54-8.3 2.15-11.58 2.86.13 5.86.81 8.97 2.04zm-2.03-1.83c.23.16.38.36.59.53-2.61-.87-5.14-1.35-7.58-1.46-.26-1.47-.85-2.78-1.65-3.98 2.8 1.23 5.68 2.86 8.64 4.91zm-7.91-.97h-.05c-5.67 0-10.57 2.09-14.57 6.22-7.95 8.2-11.15 23.39-9.55 41.67-2.15 2.97-4.35 6.01-6.63 9.14-.94 1.29-1.91 2.62-2.86 3.93-6.28-26.88-4.01-50.41 6.71-61.48 3.96-4.1 8.83-6.19 14.41-6.19 3.3 0 6.78.75 10.42 2.19 1.11 1.3 1.79 2.82 2.12 4.52z"/></svg>