<svg xmlns="http://www.w3.org/2000/svg" width="518" height="90"><path fill="#353331" fill-rule="evenodd" d="M473.21 89.96c-19 0-35.23-11.89-41.73-28.66 6.63 7.75 16.96 12.32 28.8 12.32 6.24 0 12.42-1.29 18.37-3.82 10.21-4.34 18.38-11.84 23-21.13 4.65-9.35 5.15-19.38 1.42-28.25-4.93-11.7-16.36-19.3-30.3-20.42.14-.01.29-.02.44-.02 24.73 0 44.78 20.15 44.78 44.99 0 24.85-20.05 44.99-44.78 44.99zm27.63-68.59c3.46 8.2 2.97 17.51-1.36 26.22-3.25 6.53-8.38 12.14-14.79 16.27V19.11c0-.92-.75-1.66-1.66-1.66h-10.41c-.75 0-1.17.16-1.83.41l-13.44 6.95c-.82.33-1.16.83-1.16 1.67v7.57c0 .89.72 1.6 1.61 1.6h8.6v35.09c-2.03.29-4.07.44-6.12.44-14.01 0-25.75-6.76-31.05-17.73-.52-2.75-.81-5.58-.81-8.48 0-15.78 8.1-29.65 20.33-37.68.97-.5 1.95-.98 2.97-1.41 5.64-2.4 11.51-3.62 17.42-3.62 14.59 0 26.73 7.32 31.7 19.11zM418.09 42.6c-3.63 0-6.71.37-8.37.81v25.42c0 .56-.36.93-.89.93h-6.06c-.36 0-1.01-.37-1.01-.93V41.85c0-2.44 1.36-3.19 4.21-4.06 2.62-.88 6.83-1.5 10.22-1.56h1.01c.83 0 .83 0 1.25.18.23.13.53.38.53 1v4.06c0 .63-.06 1.13-.89 1.13zm-21.15 14.61h-19.9c0 2.87.77 4.43 2.38 5.74 1.54 1.32 3.8 1.88 7 1.88 3.69 0 6.48-.94 8.32-1.5.12-.06.18-.06.3-.06.35 0 .65.25.83.87l.77 3.19c0 .06.06.18.06.31 0 .5-.29.75-.71.94-2.02.87-6.07 2-10.75 2-11.64 0-16.21-4.81-16.21-17.05 0-11.75 3.08-17.37 14.66-17.37 6 0 9.69 1.63 11.82 4.63 2.02 2.81 2.68 6.8 2.68 11.99v2.99c0 .69-.36 1.44-1.25 1.44zm-7.13-10.74c-.77-3.43-2.55-4.56-6.05-4.56-3.99 0-5.65 1.25-6.3 4.37-.42 1.75-.42 3.56-.48 5.62l13.31-.06c0-2-.06-3.69-.48-5.37zM358.5 69.76c-.35 0-1.01-.37-1.01-.93V25.11c0-.81.24-1.12.95-1.25l5.88-1.06h.24c.53 0 .89.37.89 1v45.03c0 .56-.36.93-.89.93h-6.06zm-19.3 14.17c-4.16 0-8.5-.88-9.98-1.63-.36-.24-.66-.5-.66-1 0-.06 0-.18.06-.31l.6-3.37c.12-.56.53-.75.89-.75.12 0 .24 0 .35.06 1.31.38 4.9 1.13 7.81 1.13 5.69 0 7.81-2.29 8.22-8.66-1.06.33-4.16 1.18-8.19 1.18-10.45 0-13.18-6.31-13.18-17.37 0-12.74 3.68-17.05 15.32-17.05 3.98 0 7.31.63 9.92 1.38 3.39 1 3.56 3.06 3.56 4.87v25.06l-.02.01c-.12 10.98-3.36 16.45-14.7 16.45zm6.77-41.21s-2.56-.75-5.47-.75c-4.99 0-7.25 1.13-7.25 11.62 0 9.93 1.96 11.18 7.01 11.18 2.79 0 5.71-.69 5.71-.69V42.72zM321.4 57.21h-19.89c0 2.87.77 4.43 2.37 5.74 1.55 1.32 3.81 1.88 7.01 1.88 3.69 0 6.48-.94 8.32-1.5.12-.06.17-.06.3-.06.35 0 .64.25.82.87l.77 3.19c0 .06.07.18.07.31 0 .5-.3.75-.72.94-2.01.87-6.05 2-10.75 2-11.63 0-16.2-4.81-16.2-17.05 0-11.75 3.08-17.37 14.66-17.37 6 0 9.68 1.63 11.82 4.63 2.02 2.81 2.67 6.8 2.67 11.99v2.99c0 .69-.36 1.44-1.25 1.44zm-7.12-10.74c-.77-3.43-2.55-4.56-6.06-4.56-3.98 0-5.64 1.25-6.3 4.37-.41 1.75-.41 3.56-.47 5.62l13.3-.06c0-2-.06-3.69-.47-5.37zM282.9 69.69c-.54 0-.93-.37-.93-.94l.5-36.85-9.15 37.11-.02.04c-.12.35-.51.64-.86.64h-6.17c-.35 0-.74-.29-.87-.64v-.01l-.01-.03-9.65-37.11.49 36.85c0 .57-.39.94-.93.94h-6.04c-.49 0-.88-.37-.88-.94v-44.2c0-.5.44-.94.93-.94h11.24c.5 0 .94.38 1.1.87l7.7 32.31 7.7-32.31c.17-.49.61-.87 1.1-.87h10.73c.5 0 .94.44.94.94v44.2c0 .57-.39.94-.88.94h-6.04zM235.09 49.9c4.69.81 9.74 1.94 9.74 10.06 0 8.18-5.76 10.55-12.88 10.55-5.17 0-9.86-1.44-10.87-1.87-.24-.13-.6-.25-.6-.87v-.32l.72-3.56c.05-.5.29-.69.65-.69h.3c.71.19 4.99 1.57 9.03 1.57 3.26 0 5.76-1.06 5.76-4.06 0-3.69-2.38-3.75-5.88-4.37-3.62-.69-10.22-1.38-10.22-10 0-8.93 7.42-10.18 12.65-10.18 4.81 0 8.61 1.13 9.62 1.38.54.12.72.5.72.87 0 .06 0 .13-.07.19l-.59 3.75c-.06.43-.41.56-.71.56h-.24c-.65-.13-4.45-1-7.66-1-2.85 0-5.88.69-5.88 3.81 0 3.5 3.2 3.68 6.41 4.18zm-24.65 19.86c-.54 0-.95-.37-.95-.93V46.78c0-3.62-1.49-4.87-4.63-4.87-3.57 0-4.53 1.06-4.53 1.06v25.86c0 .56-.29.93-.89.93h-6.06c-.59 0-.94-.37-.94-.93V46.78c0-3.62-1.37-4.87-4.52-4.87-3.56 0-4.7 1.06-4.7 1.06v25.86c0 .56-.36.93-.89.93h-6.06c-.59 0-1.01-.37-1.01-.93V41.91c0-2.37 1.13-3.18 4.46-4.12 3.03-.88 5.23-1.63 9.03-1.63 3.74 0 6.35.88 7.96 2.19 1.66-.69 4.4-2.19 9.22-2.19 7.36 0 11.52 2 11.52 9.5v23.17c0 .56-.36.93-.89.93h-6.12zm-53.5.82c-13.13 0-14.79-7.63-14.79-17.18 0-9.62 1.66-17.24 14.79-17.24 13.18 0 14.79 7.62 14.79 17.24 0 9.55-1.61 17.18-14.79 17.18zm0-28.61c-6.35 0-6.6 3.94-6.6 11.43 0 7.43.25 11.37 6.6 11.37 6.36 0 6.65-3.94 6.65-11.37 0-7.49-.29-11.43-6.65-11.43zm-31.69 28.61c-11.64 0-15.33-4.31-15.33-17.05 0-11.06 2.73-17.37 13.19-17.37 3.49 0 6.28.64 7.66 1.02v-12c0-.76.29-1.19 1.01-1.32l5.76-1.06h.3c.53 0 .88.37.88 1v40.53c0 1.81-.17 3.87-3.56 4.87-2.61.75-5.94 1.38-9.91 1.38zm5.52-27.92s-2.91-.69-5.7-.69c-5.05 0-7.01 1.25-7.01 11.18 0 10.49 2.25 11.62 7.24 11.62 2.91 0 5.47-.75 5.47-.75V42.66zm-31.14 27.1c-.54 0-.96-.37-.96-.93V46.78c0-3.62-1.3-4.87-4.45-4.87-3.56 0-7.43 1.06-7.43 1.06v25.86c0 .56-.35.93-.88.93h-6.06c-.6 0-1.01-.37-1.01-.93V41.91c0-2.37 1.12-3.18 4.45-4.12 3.03-.88 8.02-1.63 11.82-1.63 7.43 0 11.52 2 11.52 9.5v23.17c0 .56-.36.93-.89.93h-6.11zM74 57.21H54.1c0 2.87.77 4.43 2.38 5.74 1.54 1.32 3.81 1.88 7.01 1.88 3.68 0 6.47-.94 8.31-1.5.12-.06.18-.06.3-.06.36 0 .66.25.83.87l.77 3.19c0 .06.06.18.06.31 0 .5-.3.75-.71.94-2.02.87-6.06 2-10.75 2-11.64 0-16.22-4.81-16.22-17.05 0-11.75 3.09-17.37 14.68-17.37 5.99 0 9.67 1.63 11.81 4.63 2.03 2.81 2.68 6.8 2.68 11.99v2.99c0 .69-.36 1.44-1.25 1.44zm-7.13-10.74c-.77-3.43-2.55-4.56-6.06-4.56-3.97 0-5.64 1.25-6.29 4.37-.42 1.75-.42 3.56-.48 5.62l13.31-.06c0-2-.06-3.69-.48-5.37zM35.93 69.76c-.53 0-.95-.37-.95-.93V38.47c0-.56.42-.93.95-.93h6.06c.54 0 .89.37.89.93v30.36c0 .56-.35.93-.89.93h-6.06zm5.53-37.03h-4.99c-.96 0-1.43-.44-1.43-1.44v-7.05c0-1 .47-1.44 1.43-1.44h4.99c.95 0 1.42.44 1.42 1.44v7.05c0 1-.47 1.44-1.42 1.44zM1.01 69.76c-.53 0-1.01-.44-1.01-1V24.61c0-.56.48-1 1.01-1H29.4c.59 0 .95.44.95.94v4.87c0 .56-.36 1-.95 1H8.5v12.12h20c.54 0 .96.43.96.99v4.94c0 .5-.42.93-.96.93h-20v13.62h20.96c.53 0 .95.44.95.93v4.81c0 .56-.42 1-.95 1H1.01z"/></svg>