<svg xmlns="http://www.w3.org/2000/svg" width="706" height="54"><path fill="#353331" fill-rule="evenodd" d="M705.47 52.59c-.35.41-.83.62-1.45.62h-1.99c-.61 0-1.11-.19-1.48-.58-.38-.39-.77-.96-1.16-1.73l-16.8-34.31c-.23-.41-.46-.56-.7-.46-.24.1-.36.36-.36.77v34c0 .72-.18 1.28-.53 1.69-.35.41-.84.62-1.46.62h-2.31c-.62 0-1.1-.21-1.46-.62-.35-.41-.53-.97-.53-1.69V3.1c0-.72.18-1.28.53-1.7.36-.41.84-.61 1.46-.61h2.58c.66 0 1.21.14 1.65.42.44.28.84.79 1.19 1.5l16.08 32.61c.17.31.38.44.62.39.25-.05.37-.28.37-.69V3.1c0-.72.17-1.28.53-1.7.35-.41.83-.61 1.45-.61h2.32c.62 0 1.1.2 1.45.61.36.42.53.98.53 1.7v47.8c0 .72-.17 1.28-.53 1.69zm-45.11.62h-23.15c-.62 0-1.1-.21-1.46-.62-.35-.41-.52-.97-.52-1.69V3.1c0-.72.17-1.28.52-1.7.36-.41.84-.61 1.46-.61h21.83c.62 0 1.1.2 1.45.61.36.42.53.98.53 1.7v2.31c0 .72-.17 1.29-.53 1.7-.35.41-.83.62-1.45.62h-16.87c-.44 0-.66.25-.66.77v13.87c0 .52.22.77.66.77h15.55c.61 0 1.1.21 1.45.62.35.41.53.98.53 1.7v2.31c0 .72-.18 1.28-.53 1.69-.35.42-.84.62-1.45.62h-15.55c-.44 0-.66.26-.66.77V45.5c0 .51.22.77.66.77h18.19c.62 0 1.1.21 1.46.62.35.41.53.97.53 1.69v2.32c0 .72-.18 1.28-.53 1.69-.36.41-.84.62-1.46.62zm-38.3 0h-3.04c-1.1 0-1.92-.7-2.45-2.08l-9.59-23.36c-.13-.31-.31-.48-.53-.5-.22-.03-.44.09-.66.35l-3.84 5.62c-.57.83-.86 1.78-.86 2.85V50.9c0 .72-.17 1.28-.53 1.69-.35.41-.83.62-1.45.62h-2.32c-.61 0-1.1-.21-1.45-.62-.36-.41-.53-.97-.53-1.69V3.1c0-.72.17-1.28.53-1.7.35-.41.84-.61 1.45-.61h2.32c.62 0 1.1.2 1.45.61.36.42.53.98.53 1.7v18.89c0 .41.12.66.37.77.24.1.47-.03.69-.39l13.69-20.35c.53-.82 1.37-1.23 2.52-1.23h3.57c.62 0 1.02.24 1.22.73.2.49.12.96-.23 1.43l-11.18 16.11c-.57.82-.68 1.67-.33 2.54l11.97 28.83c.31.77.34 1.43.07 1.97-.26.54-.73.81-1.39.81zm-40.41 0h-3.05c-1.1 0-1.92-.7-2.45-2.08l-9.59-23.36c-.13-.31-.3-.48-.52-.5-.23-.03-.45.09-.67.35l-3.83 5.62c-.58.83-.86 1.78-.86 2.85V50.9c0 .72-.18 1.28-.53 1.69-.36.41-.84.62-1.46.62h-2.31c-.62 0-1.11-.21-1.46-.62-.35-.41-.53-.97-.53-1.69V3.1c0-.72.18-1.28.53-1.7.35-.41.84-.61 1.46-.61h2.31c.62 0 1.1.2 1.46.61.35.42.53.98.53 1.7v18.89c0 .41.12.66.36.77.24.1.47-.03.7-.39l13.69-20.35c.53-.82 1.36-1.23 2.51-1.23h3.57c.62 0 1.03.24 1.23.73.2.49.12.96-.23 1.43l-11.18 16.11c-.58.82-.69 1.67-.33 2.54l11.97 28.83c.31.77.33 1.43.06 1.97-.26.54-.72.81-1.38.81zm-43.46 0h-2.32c-.62 0-1.1-.21-1.45-.62-.36-.41-.53-.97-.53-1.69V3.1c0-.72.17-1.28.53-1.7.35-.41.83-.61 1.45-.61h2.32c.61 0 1.1.2 1.45.61.36.42.53.98.53 1.7v47.8c0 .72-.17 1.28-.53 1.69-.35.41-.84.62-1.45.62zm-17.13 0h-3.05c-1.1 0-1.92-.7-2.45-2.08l-7.8-19.58c-.27-.72-.73-1.08-1.39-1.08h-6.28c-.45 0-.67.25-.67.77V50.9c0 .72-.17 1.28-.52 1.69-.36.41-.84.62-1.46.62h-2.31c-.62 0-1.11-.21-1.46-.62-.35-.41-.53-.97-.53-1.69V3.1c0-.72.18-1.28.53-1.7.35-.41.84-.61 1.46-.61h13.56c1.76 0 3.41.37 4.96 1.12 1.54.74 2.87 1.77 4 3.08 1.12 1.31 2 2.86 2.64 4.66.64 1.8.96 3.73.96 5.78 0 2.93-.6 5.53-1.8 7.79-1.2 2.26-2.71 3.98-4.55 5.17-.7.46-.86 1.2-.46 2.23l7.94 19.81c.31.77.33 1.43.06 1.97-.26.54-.72.81-1.38.81zm-6.59-34.5c.38-1 .57-2.09.57-3.28 0-1.18-.19-2.24-.57-3.19-.37-.96-.87-1.77-1.48-2.43-.62-.67-1.34-1.18-2.15-1.55-.82-.35-1.67-.53-2.55-.53h-8.14c-.44 0-.66.25-.66.77v14.26c0 .51.22.77.66.77h8.14c.88 0 1.73-.2 2.55-.58.81-.39 1.53-.94 2.15-1.66.61-.72 1.11-1.58 1.48-2.58zm-36.97 30.3c-1.17 1.31-2.54 2.33-4.1 3.08-1.57.74-3.23 1.12-5 1.12h-13.89c-.62 0-1.1-.21-1.45-.62-.36-.41-.53-.97-.53-1.69V3.1c0-.72.17-1.28.53-1.7.35-.41.83-.61 1.45-.61h11.25c1.76 0 3.43.37 4.99 1.12 1.57.74 2.93 1.77 4.1 3.08 1.17 1.31 2.1 2.86 2.78 4.66.68 1.8 1.03 3.73 1.03 5.78 0 1.85-.29 3.58-.86 5.17-.58 1.59-1.37 3.06-2.38 4.39-.4.52-.36 1.01.13 1.47 1.85 1.59 3.27 3.38 4.26 5.36 1 1.97 1.49 4.22 1.49 6.74 0 2.11-.34 4.05-1.02 5.82-.69 1.77-1.61 3.32-2.78 4.63zm-5.79-37.12c-.44-.98-1-1.77-1.69-2.39-.68-.62-1.44-1.07-2.28-1.35-.84-.28-1.65-.42-2.45-.42h-5.82c-.44 0-.66.25-.66.77v14.26c0 .51.22.77.66.77h5.82c.8 0 1.61-.17 2.45-.5.84-.34 1.6-.82 2.28-1.47.69-.64 1.25-1.47 1.69-2.5.44-1.03.66-2.24.66-3.63 0-1.38-.22-2.57-.66-3.54zm2.65 23.05c-.45-1.03-1.01-1.86-1.69-2.51-.68-.64-1.44-1.13-2.28-1.46-.84-.34-1.66-.5-2.45-.5h-8.47c-.44 0-.66.25-.66.77V45.5c0 .51.22.77.66.77h8.47c.79 0 1.61-.14 2.45-.42.84-.29 1.6-.74 2.28-1.35.68-.62 1.24-1.42 1.69-2.39.44-.98.66-2.16.66-3.55 0-1.39-.22-2.59-.66-3.62zm-35.33 18.27c-.44.41-.93.59-1.48.54-.56-.05-1.07-.23-1.56-.54L416.74 40.1c-.31-.2-.58-.2-.82 0-.25.21-.41.47-.5.77l-2.71 10.49c-.31 1.23-1.06 1.85-2.25 1.85h-3.24c-1.28 0-1.75-.72-1.39-2.16l13.23-48.18c.22-.82.52-1.38.89-1.66s.87-.42 1.49-.42h4.63c.62 0 1.11.14 1.49.42.37.28.67.84.89 1.66l12.64 46.1c.3 1.18.13 2.11-.53 2.77l-1.53 1.47zm-6.88-12.34l-7.73-30.29c-.14-.57-.36-.85-.67-.85-.3 0-.52.28-.66.85l-5.22 20.35c-.18.67-.2 1.17-.07 1.5.13.34.35.61.66.81l12.44 8.48c.48.36.83.4 1.06.12.22-.29.28-.61.19-.97zM396.63 7.73h-18.19c-.44 0-.66.25-.66.77v14.64c0 .52.22.77.66.77h15.55c.62 0 1.1.21 1.45.62.36.41.53.98.53 1.7v2.31c0 .72-.17 1.28-.53 1.7-.35.41-.83.61-1.45.61h-15.55c-.44 0-.66.26-.66.77V50.9c0 .72-.18 1.28-.53 1.69-.35.41-.84.62-1.45.62h-2.32c-.62 0-1.1-.21-1.45-.62-.36-.41-.53-.97-.53-1.69V3.1c0-.72.17-1.28.53-1.7.35-.41.83-.61 1.45-.61h23.15c.62 0 1.11.2 1.46.61.35.42.53.98.53 1.7v2.31c0 .72-.18 1.29-.53 1.7-.35.41-.84.62-1.46.62zM356.4 52.82c-.41.39-.88.68-1.41.87-.52.19-1.06.29-1.59.29-.88 0-1.61-.14-2.19-.42-.57-.28-1.03-.65-1.38-1.12-.15-.2-.23-.44-.24-.71-.01-.26.07-.5.24-.7l.52-.74c.33-.44.72-.43 1.18.04.21.2.46.38.76.55.3.17.66.25 1.08.25.52 0 .95-.13 1.29-.4.35-.27.52-.63.52-1.07 0-.43-.15-.79-.45-1.11-.29-.31-.84-.7-1.65-1.17-.52-.29-.98-.59-1.38-.9-.4-.32-.74-.66-1.02-1.02-.28-.37-.49-.78-.64-1.23-.16-.44-.23-.97-.23-1.57 0-.6.09-1.17.28-1.71.19-.54.47-1 .82-1.41.36-.4.79-.72 1.3-.95.5-.23 1.07-.35 1.71-.35.76 0 1.44.17 2.04.5.59.33 1.02.67 1.29 1 .15.23.23.47.24.72.01.26-.07.49-.24.69l-.52.64c-.17.2-.35.33-.53.38-.18.06-.37-.02-.56-.25-.52-.56-1.09-.84-1.72-.84-.56 0-.97.15-1.23.44-.25.29-.38.67-.38 1.14 0 .45.18.82.54 1.14.37.31.83.61 1.38.9.54.27 1.02.56 1.45.87.43.32.8.66 1.11 1.02.31.37.55.79.72 1.24.17.46.26.99.26 1.59 0 .74-.13 1.39-.38 1.96-.25.57-.58 1.05-.99 1.44zm-4.57-25.78c-1.15 1.41-2.51 2.53-4.1 3.35-1.59.82-3.26 1.23-5.03 1.23h-8.93c-.44 0-.66.26-.66.77V50.9c0 .72-.17 1.28-.53 1.69-.35.41-.84.62-1.45.62h-2.32c-.62 0-1.1-.21-1.45-.62-.36-.41-.53-.97-.53-1.69V3.1c0-.72.17-1.28.53-1.7.35-.41.83-.61 1.45-.61h13.89c1.77 0 3.44.41 5.03 1.23 1.59.82 2.95 1.94 4.1 3.35 1.15 1.42 2.06 3.06 2.75 4.94.68 1.87 1.02 3.84 1.02 5.9 0 2.1-.34 4.08-1.02 5.93-.69 1.85-1.6 3.48-2.75 4.9zm-3.14-14.5c-.42-1.05-.96-1.94-1.62-2.66-.66-.72-1.41-1.25-2.25-1.62-.84-.35-1.7-.53-2.58-.53h-8.47c-.44 0-.66.25-.66.77v15.41c0 .52.22.77.66.77h8.47c.88 0 1.74-.17 2.58-.54.84-.35 1.59-.89 2.25-1.61.66-.72 1.2-1.61 1.62-2.66.42-1.06.63-2.28.63-3.66 0-1.39-.21-2.61-.63-3.67zm-35.36 40.67c-.44.41-.93.59-1.48.54-.55-.05-1.07-.23-1.56-.54L291.04 40.1c-.31-.2-.58-.2-.82 0-.25.21-.41.47-.5.77l-2.71 10.49c-.31 1.23-1.06 1.85-2.25 1.85h-3.24c-1.28 0-1.74-.72-1.39-2.16l13.23-48.18c.22-.82.52-1.38.89-1.66.38-.28.87-.42 1.49-.42h4.63c.62 0 1.11.14 1.49.42.37.28.67.84.89 1.66l12.64 46.1c.3 1.18.13 2.11-.53 2.77l-1.53 1.47zm-6.87-12.34l-7.74-30.29c-.14-.57-.36-.85-.67-.85-.3 0-.52.28-.66.85l-5.22 20.35c-.18.67-.2 1.17-.07 1.5.13.34.35.61.66.81l12.44 8.48c.48.36.84.4 1.06.12.22-.29.28-.61.2-.97zm-36.12 12.34h-3.04c-1.11 0-1.92-.7-2.45-2.08l-9.59-23.36c-.14-.31-.31-.48-.53-.5-.22-.03-.44.09-.66.35l-3.84 5.62c-.57.83-.86 1.78-.86 2.85V50.9c0 .72-.18 1.28-.53 1.69-.35.41-.84.62-1.45.62h-2.32c-.62 0-1.1-.21-1.46-.62-.35-.41-.52-.97-.52-1.69V3.1c0-.72.17-1.28.52-1.7.36-.41.84-.61 1.46-.61h2.32c.61 0 1.1.2 1.45.61.35.42.53.98.53 1.7v18.89c0 .41.12.66.36.77.25.1.48-.03.7-.39l13.69-20.35c.53-.82 1.37-1.23 2.51-1.23h3.58c.61 0 1.02.24 1.22.73.2.49.12.96-.23 1.43l-11.18 16.11c-.57.82-.68 1.67-.33 2.54l11.97 28.83c.31.77.33 1.43.07 1.97-.27.54-.73.81-1.39.81zm-44.12-3.59c-1.24 1.31-2.68 2.37-4.33 3.16-1.66.8-3.41 1.2-5.26 1.2-3 0-5.35-.53-7.05-1.58-1.69-1.06-3.18-2.4-4.46-4.05-.36-.41-.55-.92-.6-1.54-.04-.62.16-1.18.6-1.7l1.45-1.69c.44-.52.92-.75 1.43-.7.5.06.96.29 1.35.7.35.36.75.76 1.19 1.19.44.44.95.84 1.52 1.2.58.36 1.24.65 1.99.88.75.24 1.61.35 2.58.35 2.12 0 3.86-.68 5.22-2.04 1.37-1.36 2.05-3.07 2.05-5.13 0-2.31-.6-4.16-1.81-5.55-1.22-1.39-3.15-2.82-5.79-4.32-1.68-.92-3.19-1.9-4.53-2.93-1.35-1.02-2.51-2.18-3.48-3.46-.97-1.29-1.71-2.74-2.21-4.36-.51-1.62-.76-3.48-.76-5.59 0-1.75.28-3.44.86-5.09.57-1.64 1.41-3.09 2.51-4.35 1.1-1.26 2.44-2.28 4-3.05 1.57-.77 3.32-1.15 5.26-1.15 2.52 0 4.66.56 6.45 1.69s3.21 2.32 4.27 3.55c.92 1.08.92 2.16 0 3.24l-1.52 1.85c-.44.51-.86.78-1.26.81-.4.02-.86-.25-1.39-.81-.57-.62-1.45-1.34-2.65-2.16-1.19-.82-2.49-1.23-3.9-1.23-.97 0-1.86.19-2.68.57-.81.39-1.52.89-2.11 1.5-.6.62-1.06 1.33-1.39 2.13-.33.79-.5 1.63-.5 2.5 0 1.13.14 2.13.43 3.01.29.87.73 1.68 1.32 2.43.6.74 1.37 1.45 2.32 2.12.95.66 2.1 1.33 3.47 2 1.81.92 3.42 1.9 4.83 2.93 1.41 1.03 2.6 2.17 3.57 3.43.97 1.26 1.71 2.7 2.22 4.32.5 1.62.76 3.48.76 5.59 0 1.95-.35 3.8-1.06 5.55-.71 1.74-1.68 3.27-2.91 4.58zm-35.39 3.59h-23.15c-.62 0-1.1-.21-1.46-.62-.35-.41-.52-.97-.52-1.69V3.1c0-.72.17-1.28.52-1.7.36-.41.84-.61 1.46-.61h21.83c.62 0 1.1.2 1.45.61.36.42.53.98.53 1.7v2.31c0 .72-.17 1.29-.53 1.7-.35.41-.83.62-1.45.62h-16.87c-.44 0-.66.25-.66.77v13.87c0 .52.22.77.66.77h15.55c.61 0 1.1.21 1.45.62.35.41.53.98.53 1.7v2.31c0 .72-.18 1.28-.53 1.69-.35.42-.84.62-1.45.62h-15.55c-.44 0-.66.26-.66.77V45.5c0 .51.22.77.66.77h18.19c.62 0 1.1.21 1.46.62.35.41.53.97.53 1.69v2.32c0 .72-.18 1.28-.53 1.69-.36.41-.84.62-1.46.62zm-41.31-3.97c-1.34 1.51-2.95 2.68-4.83 3.5-1.87.83-3.93 1.24-6.18 1.24-2.16 0-4.15-.45-5.95-1.35-1.81-.9-3.38-2.16-4.7-3.78-1.32-1.62-2.35-3.57-3.08-5.86-.72-2.28-1.09-4.79-1.09-7.51V18.52c0-2.67.39-5.15 1.16-7.44.77-2.29 1.83-4.24 3.17-5.86 1.35-1.62 2.95-2.89 4.8-3.82 1.85-.92 3.86-1.38 6.02-1.38 1.45 0 2.78.16 3.97.5 1.19.33 2.27.76 3.24 1.27.97.51 1.82 1.09 2.55 1.73.72.65 1.33 1.25 1.82 1.82.92 1.07.92 2.15 0 3.23l-1.53 1.78c-.44.51-.86.78-1.25.81-.4.02-.86-.25-1.39-.81-.58-.62-1.45-1.34-2.61-2.16-1.17-.82-2.77-1.23-4.8-1.23-1.41 0-2.66.29-3.74.88-1.08.59-2.01 1.42-2.78 2.47-.77 1.05-1.35 2.28-1.75 3.7-.4 1.41-.59 2.92-.59 4.51v16.96c0 3.44.72 6.23 2.18 8.36 1.45 2.13 3.57 3.2 6.35 3.2 3 0 5.25-.96 6.75-2.89 1.49-1.93 2.25-4.43 2.25-7.52v-.61c0-.41-.05-.7-.14-.85-.09-.15-.24-.28-.46-.39l-11.44-7.55c-.49-.36-.81-.82-.96-1.39-.16-.56-.08-1.16.23-1.77l.99-2.01c.27-.61.65-1.01 1.16-1.19.5-.18 1-.09 1.49.27l14.02 9.4c.57.42.95.81 1.12 1.2.18.38.27.94.27 1.66v3.23c0 2.62-.38 5-1.13 7.13-.75 2.14-1.79 3.96-3.14 5.48zm-41.37 3.97h-1.99c-.61 0-1.11-.19-1.48-.58-.38-.39-.77-.96-1.16-1.73l-16.8-34.31c-.23-.41-.46-.56-.7-.46-.24.1-.36.36-.36.77v34c0 .72-.18 1.28-.53 1.69-.35.41-.84.62-1.46.62h-2.31c-.62 0-1.11-.21-1.46-.62-.35-.41-.53-.97-.53-1.69V3.1c0-.72.18-1.28.53-1.7.35-.41.84-.61 1.46-.61h2.58c.66 0 1.21.14 1.65.42.44.28.84.79 1.19 1.5l16.08 32.61c.17.31.38.44.62.39.25-.05.37-.28.37-.69V3.1c0-.72.17-1.28.53-1.7.35-.41.83-.61 1.45-.61h2.32c.62 0 1.1.2 1.45.61.36.42.53.98.53 1.7v47.8c0 .72-.17 1.28-.53 1.69-.35.41-.83.62-1.45.62zm-43.66 0H41.34c-.62 0-1.11-.21-1.46-.62-.35-.41-.53-.97-.53-1.69V3.1c0-.72.18-1.28.53-1.7.35-.41.84-.61 1.46-.61h21.83c.61 0 1.1.2 1.45.61.36.42.53.98.53 1.7v2.31c0 .72-.17 1.29-.53 1.7-.35.41-.84.62-1.45.62H46.3c-.44 0-.66.25-.66.77v13.87c0 .52.22.77.66.77h15.54c.62 0 1.1.21 1.46.62.35.41.53.98.53 1.7v2.31c0 .72-.18 1.28-.53 1.69-.36.42-.84.62-1.46.62H46.3c-.44 0-.66.26-.66.77V45.5c0 .51.22.77.66.77h18.19c.62 0 1.1.21 1.46.62.35.41.52.97.52 1.69v2.32c0 .72-.17 1.28-.52 1.69-.36.41-.84.62-1.46.62zM25 27.04c-1.15 1.41-2.51 2.53-4.1 3.35-1.59.82-3.26 1.23-5.03 1.23H6.94c-.44 0-.66.26-.66.77V50.9c0 .72-.18 1.28-.53 1.69-.35.41-.84.62-1.45.62H1.98c-.62 0-1.1-.21-1.45-.62-.36-.41-.53-.97-.53-1.69V3.1c0-.72.17-1.28.53-1.7.35-.41.83-.61 1.45-.61h13.89c1.77 0 3.44.41 5.03 1.23 1.59.82 2.95 1.94 4.1 3.35 1.15 1.42 2.06 3.06 2.75 4.94.68 1.87 1.02 3.84 1.02 5.9 0 2.1-.34 4.08-1.02 5.93-.69 1.85-1.6 3.48-2.75 4.9zm-3.14-14.5c-.42-1.05-.96-1.94-1.62-2.66-.66-.72-1.41-1.25-2.25-1.62-.84-.35-1.7-.53-2.58-.53H6.94c-.44 0-.66.25-.66.77v15.41c0 .52.22.77.66.77h8.47c.88 0 1.74-.17 2.58-.54.84-.35 1.59-.89 2.25-1.61.66-.72 1.2-1.61 1.62-2.66.42-1.06.63-2.28.63-3.66 0-1.39-.21-2.61-.63-3.67z"/></svg>