<svg xmlns="http://www.w3.org/2000/svg" width="428" height="52"><path fill="#353331" fill-rule="evenodd" d="M352.11 49.42V11.39l-.13-.12-10.62 38.15h-11.37l-10-38.46-.13.12v38.34h-11.01V3.96h19.95l7.44 30.78h.13l7.18-30.78h19.61v45.46h-11.05zm-71.76.94c-11.46 0-21.6-4.96-21.73-17.62V3.96h12.59v28.15c.19 5.8 3.21 9.43 9.14 9.43 5.93 0 8.93-3.63 9.12-9.43V3.96h12.62v28.78c-.12 12.66-10.26 17.62-21.74 17.62zM239.23 3.87h12.59v45.46h-12.59V3.87zm-40.06 10.67h-.12v34.79H187.7V3.87h17.65l15.24 33.89.12-.12V3.87h11.34v45.46h-17.44l-15.44-34.79zm-31.52 25.91h-18.48l-2.96 8.88h-12.6l17.97-45.46h15.36l17.96 45.46h-14.25l-3-8.88zm-8.91-27.7h-.18l-6.17 18.9h12.16l-5.81-18.9zM133.5 36.97c0 13.24-16.88 12.36-17.32 12.36H94.83V3.87h21.79c8.57.06 15.75 3.94 15.75 11.92 0 5.61-4.72 8.99-9.82 9.92v.13c6.04.82 10.95 4.69 10.95 11.13zm-19.2-24.29h-6.87v9.28l6.43-.06c3.39 0 5.6-1.35 5.6-4.8 0-2.56-2.21-4.42-5.16-4.42zm1.38 18.04h-8.25v9.8h7.38c3.15 0 5.46-1.88 5.46-4.74 0-2.5-1.75-4.88-4.59-5.06zM75.64 49.33l-7.67-17.36h-4.72v17.36h-12.6V3.87h21.04c7.69 0 17.64 4.15 17.64 13.78 0 5.76-3.76 9.74-8.77 11.27-.04.01-.08.03-.08.03l9.07 20.38H75.64zm-7.48-36.65h-4.91v10.47h4.91c4.03 0 7.94-.56 7.94-5.23 0-4.63-3.91-5.24-7.94-5.24zM21.73 50.27C10.26 50.27.13 45.31 0 32.65V3.87h12.6v28.16c.19 5.8 3.21 9.43 9.13 9.43 5.92 0 8.94-3.63 9.13-9.43V3.87h12.6v28.78c-.12 12.66-10.25 17.62-21.73 17.62zM395.91 52l-19.98-15.8V3.95L407.9 0l19.98 15.8v32.25L395.91 52zm-2.82-10.69v-4.67l-5.11.63 5.11 4.04zm7.58 3.15l15.13-1.87-9.58-7.57-5.55.68v8.76zM380.41 7.79v0zm3.09 23.08l9.59-1.18v-7.83l-9.59-7.59v16.6zm19.92-23.1L388.4 9.62l9.19 7.27 5.83-.72v-8.4zm0 15.64l-2.75.34v5l2.75-.34v-5zm-2.75 9.74l7.23-.9-7.23.9zm10.02-22.44v4.56l5-.62-5-3.94zm9.92 7.81h-.01v.01l.01 1.48v-1.49zm0 2.77l-9.92 1.22v7.56l9.92 7.84V21.29zm4.46-3.32l-3.27.41 3.28-.4-.01-.01z"/></svg>