<?xml version="1.0" encoding="utf-8"?>
<svg xmlns="http://www.w3.org/2000/svg"
	xmlns:xlink="http://www.w3.org/1999/xlink"
	width="518px" height="90px">
<path fill="rgb(53,51,49)" fill-rule="evenodd" d="M 473.21 89.96C 454.21 89.96 437.98 78.07 431.48 61.3 438.11 69.05 448.44 73.62 460.28 73.62 466.52 73.62 472.7 72.33 478.65 69.8 488.86 65.46 497.03 57.96 501.65 48.67 506.3 39.32 506.8 29.29 503.07 20.42 498.14 8.72 486.71 1.12 472.77-0 472.91-0.01 473.06-0.02 473.21-0.02 497.94-0.02 517.99 20.13 517.99 44.97 517.99 69.82 497.94 89.96 473.21 89.96ZM 500.84 21.37C 504.3 29.57 503.81 38.88 499.48 47.59 496.23 54.12 491.1 59.73 484.69 63.86 484.69 63.86 484.69 19.11 484.69 19.11 484.69 18.19 483.94 17.45 483.03 17.45 483.03 17.45 472.62 17.45 472.62 17.45 471.87 17.45 471.45 17.61 470.79 17.86 470.79 17.86 457.35 24.81 457.35 24.81 456.53 25.14 456.19 25.64 456.19 26.48 456.19 26.48 456.19 34.05 456.19 34.05 456.19 34.94 456.91 35.65 457.8 35.65 457.8 35.65 466.4 35.65 466.4 35.65 466.4 35.65 466.4 70.74 466.4 70.74 464.37 71.03 462.33 71.18 460.28 71.18 446.27 71.18 434.53 64.42 429.23 53.45 428.71 50.7 428.42 47.87 428.42 44.97 428.42 29.19 436.52 15.32 448.75 7.29 449.72 6.79 450.7 6.31 451.72 5.88 457.36 3.48 463.23 2.26 469.14 2.26 483.73 2.26 495.87 9.58 500.84 21.37ZM 418.09 42.6C 414.46 42.6 411.38 42.97 409.72 43.41 409.72 43.41 409.72 68.83 409.72 68.83 409.72 69.39 409.36 69.76 408.83 69.76 408.83 69.76 402.77 69.76 402.77 69.76 402.41 69.76 401.76 69.39 401.76 68.83 401.76 68.83 401.76 41.85 401.76 41.85 401.76 39.41 403.12 38.66 405.97 37.79 408.59 36.91 412.8 36.29 416.19 36.23 416.19 36.23 417.2 36.23 417.2 36.23 418.03 36.23 418.03 36.23 418.45 36.41 418.68 36.54 418.98 36.79 418.98 37.41 418.98 37.41 418.98 41.47 418.98 41.47 418.98 42.1 418.92 42.6 418.09 42.6ZM 396.94 57.21C 396.94 57.21 377.04 57.21 377.04 57.21 377.04 60.08 377.81 61.64 379.42 62.95 380.96 64.27 383.22 64.83 386.42 64.83 390.11 64.83 392.9 63.89 394.74 63.33 394.86 63.27 394.92 63.27 395.04 63.27 395.39 63.27 395.69 63.52 395.87 64.14 395.87 64.14 396.64 67.33 396.64 67.33 396.64 67.39 396.7 67.51 396.7 67.64 396.7 68.14 396.41 68.39 395.99 68.58 393.97 69.45 389.92 70.58 385.24 70.58 373.6 70.58 369.03 65.77 369.03 53.53 369.03 41.78 372.11 36.16 383.69 36.16 389.69 36.16 393.38 37.79 395.51 40.79 397.53 43.6 398.19 47.59 398.19 52.78 398.19 52.78 398.19 55.77 398.19 55.77 398.19 56.46 397.83 57.21 396.94 57.21ZM 389.81 46.47C 389.04 43.04 387.26 41.91 383.76 41.91 379.77 41.91 378.11 43.16 377.46 46.28 377.04 48.03 377.04 49.84 376.98 51.9 376.98 51.9 390.29 51.84 390.29 51.84 390.29 49.84 390.23 48.15 389.81 46.47ZM 358.5 69.76C 358.15 69.76 357.49 69.39 357.49 68.83 357.49 68.83 357.49 25.11 357.49 25.11 357.49 24.3 357.73 23.99 358.44 23.86 358.44 23.86 364.32 22.8 364.32 22.8 364.32 22.8 364.56 22.8 364.56 22.8 365.09 22.8 365.45 23.17 365.45 23.8 365.45 23.8 365.45 68.83 365.45 68.83 365.45 69.39 365.09 69.76 364.56 69.76 364.56 69.76 358.5 69.76 358.5 69.76ZM 339.2 83.93C 335.04 83.93 330.7 83.05 329.22 82.3 328.86 82.06 328.56 81.8 328.56 81.3 328.56 81.24 328.56 81.12 328.62 80.99 328.62 80.99 329.22 77.62 329.22 77.62 329.34 77.06 329.75 76.87 330.11 76.87 330.23 76.87 330.35 76.87 330.46 76.93 331.77 77.31 335.36 78.06 338.27 78.06 343.96 78.06 346.08 75.77 346.49 69.4 345.43 69.73 342.33 70.58 338.3 70.58 327.85 70.58 325.12 64.27 325.12 53.21 325.12 40.47 328.8 36.16 340.44 36.16 344.42 36.16 347.75 36.79 350.36 37.54 353.75 38.54 353.92 40.6 353.92 42.41 353.92 42.41 353.92 67.47 353.92 67.47 353.92 67.47 353.9 67.48 353.9 67.48 353.78 78.46 350.54 83.93 339.2 83.93ZM 345.97 42.72C 345.97 42.72 343.41 41.97 340.5 41.97 335.51 41.97 333.25 43.1 333.25 53.59 333.25 63.52 335.21 64.77 340.26 64.77 343.05 64.77 345.97 64.08 345.97 64.08 345.97 64.08 345.97 42.72 345.97 42.72ZM 321.4 57.21C 321.4 57.21 301.51 57.21 301.51 57.21 301.51 60.08 302.28 61.64 303.88 62.95 305.43 64.27 307.69 64.83 310.89 64.83 314.58 64.83 317.37 63.89 319.21 63.33 319.33 63.27 319.38 63.27 319.51 63.27 319.86 63.27 320.15 63.52 320.33 64.14 320.33 64.14 321.1 67.33 321.1 67.33 321.1 67.39 321.17 67.51 321.17 67.64 321.17 68.14 320.87 68.39 320.45 68.58 318.44 69.45 314.4 70.58 309.7 70.58 298.07 70.58 293.5 65.77 293.5 53.53 293.5 41.78 296.58 36.16 308.16 36.16 314.16 36.16 317.84 37.79 319.98 40.79 322 43.6 322.65 47.59 322.65 52.78 322.65 52.78 322.65 55.77 322.65 55.77 322.65 56.46 322.29 57.21 321.4 57.21ZM 314.28 46.47C 313.51 43.04 311.73 41.91 308.22 41.91 304.24 41.91 302.58 43.16 301.92 46.28 301.51 48.03 301.51 49.84 301.45 51.9 301.45 51.9 314.75 51.84 314.75 51.84 314.75 49.84 314.69 48.15 314.28 46.47ZM 282.9 69.69C 282.36 69.69 281.97 69.32 281.97 68.75 281.97 68.75 282.47 31.9 282.47 31.9 282.47 31.9 273.32 69.01 273.32 69.01 273.32 69.01 273.3 69.05 273.3 69.05 273.18 69.4 272.79 69.69 272.44 69.69 272.44 69.69 266.27 69.69 266.27 69.69 265.92 69.69 265.53 69.4 265.4 69.05 265.4 69.05 265.4 69.04 265.4 69.04 265.4 69.04 265.39 69.01 265.39 69.01 265.39 69.01 255.74 31.9 255.74 31.9 255.74 31.9 256.23 68.75 256.23 68.75 256.23 69.32 255.84 69.69 255.3 69.69 255.3 69.69 249.26 69.69 249.26 69.69 248.77 69.69 248.38 69.32 248.38 68.75 248.38 68.75 248.38 24.55 248.38 24.55 248.38 24.05 248.82 23.61 249.31 23.61 249.31 23.61 260.55 23.61 260.55 23.61 261.05 23.61 261.49 23.99 261.65 24.48 261.65 24.48 269.35 56.79 269.35 56.79 269.35 56.79 277.05 24.48 277.05 24.48 277.22 23.99 277.66 23.61 278.15 23.61 278.15 23.61 288.88 23.61 288.88 23.61 289.38 23.61 289.82 24.05 289.82 24.55 289.82 24.55 289.82 68.75 289.82 68.75 289.82 69.32 289.43 69.69 288.94 69.69 288.94 69.69 282.9 69.69 282.9 69.69ZM 235.09 49.9C 239.78 50.71 244.83 51.84 244.83 59.96 244.83 68.14 239.07 70.51 231.95 70.51 226.78 70.51 222.09 69.07 221.08 68.64 220.84 68.51 220.48 68.39 220.48 67.77 220.48 67.77 220.48 67.45 220.48 67.45 220.48 67.45 221.2 63.89 221.2 63.89 221.25 63.39 221.49 63.2 221.85 63.2 221.85 63.2 222.15 63.2 222.15 63.2 222.86 63.39 227.14 64.77 231.18 64.77 234.44 64.77 236.94 63.71 236.94 60.71 236.94 57.02 234.56 56.96 231.06 56.34 227.44 55.65 220.84 54.96 220.84 46.34 220.84 37.41 228.26 36.16 233.49 36.16 238.3 36.16 242.1 37.29 243.11 37.54 243.65 37.66 243.83 38.04 243.83 38.41 243.83 38.47 243.83 38.54 243.76 38.6 243.76 38.6 243.17 42.35 243.17 42.35 243.11 42.78 242.76 42.91 242.46 42.91 242.46 42.91 242.22 42.91 242.22 42.91 241.57 42.78 237.77 41.91 234.56 41.91 231.71 41.91 228.68 42.6 228.68 45.72 228.68 49.22 231.88 49.4 235.09 49.9ZM 210.44 69.76C 209.9 69.76 209.49 69.39 209.49 68.83 209.49 68.83 209.49 46.78 209.49 46.78 209.49 43.16 208 41.91 204.86 41.91 201.29 41.91 200.33 42.97 200.33 42.97 200.33 42.97 200.33 68.83 200.33 68.83 200.33 69.39 200.04 69.76 199.44 69.76 199.44 69.76 193.38 69.76 193.38 69.76 192.79 69.76 192.44 69.39 192.44 68.83 192.44 68.83 192.44 46.78 192.44 46.78 192.44 43.16 191.07 41.91 187.92 41.91 184.36 41.91 183.22 42.97 183.22 42.97 183.22 42.97 183.22 68.83 183.22 68.83 183.22 69.39 182.86 69.76 182.33 69.76 182.33 69.76 176.27 69.76 176.27 69.76 175.68 69.76 175.26 69.39 175.26 68.83 175.26 68.83 175.26 41.91 175.26 41.91 175.26 39.54 176.39 38.73 179.72 37.79 182.75 36.91 184.95 36.16 188.75 36.16 192.49 36.16 195.1 37.04 196.71 38.35 198.37 37.66 201.11 36.16 205.93 36.16 213.29 36.16 217.45 38.16 217.45 45.66 217.45 45.66 217.45 68.83 217.45 68.83 217.45 69.39 217.09 69.76 216.56 69.76 216.56 69.76 210.44 69.76 210.44 69.76ZM 156.94 70.58C 143.81 70.58 142.15 62.95 142.15 53.4 142.15 43.78 143.81 36.16 156.94 36.16 170.12 36.16 171.73 43.78 171.73 53.4 171.73 62.95 170.12 70.58 156.94 70.58ZM 156.94 41.97C 150.59 41.97 150.34 45.91 150.34 53.4 150.34 60.83 150.59 64.77 156.94 64.77 163.3 64.77 163.59 60.83 163.59 53.4 163.59 45.91 163.3 41.97 156.94 41.97ZM 125.25 70.58C 113.61 70.58 109.92 66.27 109.92 53.53 109.92 42.47 112.65 36.16 123.11 36.16 126.6 36.16 129.39 36.8 130.77 37.18 130.77 37.18 130.77 25.18 130.77 25.18 130.77 24.42 131.06 23.99 131.78 23.86 131.78 23.86 137.54 22.8 137.54 22.8 137.54 22.8 137.84 22.8 137.84 22.8 138.37 22.8 138.72 23.17 138.72 23.8 138.72 23.8 138.72 64.33 138.72 64.33 138.72 66.14 138.55 68.2 135.16 69.2 132.55 69.95 129.22 70.58 125.25 70.58ZM 130.77 42.66C 130.77 42.66 127.86 41.97 125.07 41.97 120.02 41.97 118.06 43.22 118.06 53.15 118.06 63.64 120.31 64.77 125.3 64.77 128.21 64.77 130.77 64.02 130.77 64.02 130.77 64.02 130.77 42.66 130.77 42.66ZM 99.63 69.76C 99.09 69.76 98.67 69.39 98.67 68.83 98.67 68.83 98.67 46.78 98.67 46.78 98.67 43.16 97.37 41.91 94.22 41.91 90.66 41.91 86.79 42.97 86.79 42.97 86.79 42.97 86.79 68.83 86.79 68.83 86.79 69.39 86.44 69.76 85.91 69.76 85.91 69.76 79.85 69.76 79.85 69.76 79.25 69.76 78.84 69.39 78.84 68.83 78.84 68.83 78.84 41.91 78.84 41.91 78.84 39.54 79.96 38.73 83.29 37.79 86.32 36.91 91.31 36.16 95.11 36.16 102.54 36.16 106.63 38.16 106.63 45.66 106.63 45.66 106.63 68.83 106.63 68.83 106.63 69.39 106.27 69.76 105.74 69.76 105.74 69.76 99.63 69.76 99.63 69.76ZM 74 57.21C 74 57.21 54.1 57.21 54.1 57.21 54.1 60.08 54.87 61.64 56.48 62.95 58.02 64.27 60.29 64.83 63.49 64.83 67.17 64.83 69.96 63.89 71.8 63.33 71.92 63.27 71.98 63.27 72.1 63.27 72.46 63.27 72.76 63.52 72.93 64.14 72.93 64.14 73.7 67.33 73.7 67.33 73.7 67.39 73.76 67.51 73.76 67.64 73.76 68.14 73.46 68.39 73.05 68.58 71.03 69.45 66.99 70.58 62.3 70.58 50.66 70.58 46.08 65.77 46.08 53.53 46.08 41.78 49.17 36.16 60.76 36.16 66.75 36.16 70.43 37.79 72.57 40.79 74.6 43.6 75.25 47.59 75.25 52.78 75.25 52.78 75.25 55.77 75.25 55.77 75.25 56.46 74.89 57.21 74 57.21ZM 66.87 46.47C 66.1 43.04 64.32 41.91 60.81 41.91 56.84 41.91 55.17 43.16 54.52 46.28 54.1 48.03 54.1 49.84 54.04 51.9 54.04 51.9 67.35 51.84 67.35 51.84 67.35 49.84 67.29 48.15 66.87 46.47ZM 35.93 69.76C 35.4 69.76 34.98 69.39 34.98 68.83 34.98 68.83 34.98 38.47 34.98 38.47 34.98 37.91 35.4 37.54 35.93 37.54 35.93 37.54 41.99 37.54 41.99 37.54 42.53 37.54 42.88 37.91 42.88 38.47 42.88 38.47 42.88 68.83 42.88 68.83 42.88 69.39 42.53 69.76 41.99 69.76 41.99 69.76 35.93 69.76 35.93 69.76ZM 41.46 32.73C 41.46 32.73 36.47 32.73 36.47 32.73 35.51 32.73 35.04 32.29 35.04 31.29 35.04 31.29 35.04 24.24 35.04 24.24 35.04 23.24 35.51 22.8 36.47 22.8 36.47 22.8 41.46 22.8 41.46 22.8 42.41 22.8 42.88 23.24 42.88 24.24 42.88 24.24 42.88 31.29 42.88 31.29 42.88 32.29 42.41 32.73 41.46 32.73ZM 1.01 69.76C 0.48 69.76 0 69.32 0 68.76 0 68.76 0 24.61 0 24.61 0 24.05 0.48 23.61 1.01 23.61 1.01 23.61 29.4 23.61 29.4 23.61 29.99 23.61 30.35 24.05 30.35 24.55 30.35 24.55 30.35 29.42 30.35 29.42 30.35 29.98 29.99 30.42 29.4 30.42 29.4 30.42 8.5 30.42 8.5 30.42 8.5 30.42 8.5 42.54 8.5 42.54 8.5 42.54 28.5 42.54 28.5 42.54 29.04 42.54 29.46 42.97 29.46 43.53 29.46 43.53 29.46 48.47 29.46 48.47 29.46 48.97 29.04 49.4 28.5 49.4 28.5 49.4 8.5 49.4 8.5 49.4 8.5 49.4 8.5 63.02 8.5 63.02 8.5 63.02 29.46 63.02 29.46 63.02 29.99 63.02 30.41 63.46 30.41 63.95 30.41 63.95 30.41 68.76 30.41 68.76 30.41 69.32 29.99 69.76 29.46 69.76 29.46 69.76 1.01 69.76 1.01 69.76Z"/>
</svg>