<?xml version="1.0" encoding="utf-8"?>
<svg xmlns="http://www.w3.org/2000/svg"
	xmlns:xlink="http://www.w3.org/1999/xlink"
	width="706px" height="54px">
<path fill="rgb(235,237,232)" fill-rule="evenodd" d="M 705.47 52.59C 705.12 53 704.64 53.21 704.02 53.21 704.02 53.21 702.03 53.21 702.03 53.21 701.42 53.21 700.92 53.02 700.55 52.63 700.17 52.24 699.78 51.67 699.39 50.9 699.39 50.9 682.59 16.59 682.59 16.59 682.36 16.18 682.13 16.03 681.89 16.13 681.65 16.23 681.53 16.49 681.53 16.9 681.53 16.9 681.53 50.9 681.53 50.9 681.53 51.62 681.35 52.18 681 52.59 680.65 53 680.16 53.21 679.54 53.21 679.54 53.21 677.23 53.21 677.23 53.21 676.61 53.21 676.13 53 675.77 52.59 675.42 52.18 675.24 51.62 675.24 50.9 675.24 50.9 675.24 3.1 675.24 3.1 675.24 2.38 675.42 1.82 675.77 1.4 676.13 0.99 676.61 0.79 677.23 0.79 677.23 0.79 679.81 0.79 679.81 0.79 680.47 0.79 681.02 0.93 681.46 1.21 681.9 1.49 682.3 2 682.65 2.71 682.65 2.71 698.73 35.32 698.73 35.32 698.9 35.63 699.11 35.76 699.35 35.71 699.6 35.66 699.72 35.43 699.72 35.02 699.72 35.02 699.72 3.1 699.72 3.1 699.72 2.38 699.89 1.82 700.25 1.4 700.6 0.99 701.08 0.79 701.7 0.79 701.7 0.79 704.02 0.79 704.02 0.79 704.64 0.79 705.12 0.99 705.47 1.4 705.83 1.82 706 2.38 706 3.1 706 3.1 706 50.9 706 50.9 706 51.62 705.83 52.18 705.47 52.59ZM 660.36 53.21C 660.36 53.21 637.21 53.21 637.21 53.21 636.59 53.21 636.11 53 635.75 52.59 635.4 52.18 635.23 51.62 635.23 50.9 635.23 50.9 635.23 3.1 635.23 3.1 635.23 2.38 635.4 1.82 635.75 1.4 636.11 0.99 636.59 0.79 637.21 0.79 637.21 0.79 659.04 0.79 659.04 0.79 659.66 0.79 660.14 0.99 660.49 1.4 660.85 1.82 661.02 2.38 661.02 3.1 661.02 3.1 661.02 5.41 661.02 5.41 661.02 6.13 660.85 6.7 660.49 7.11 660.14 7.52 659.66 7.73 659.04 7.73 659.04 7.73 642.17 7.73 642.17 7.73 641.73 7.73 641.51 7.98 641.51 8.5 641.51 8.5 641.51 22.37 641.51 22.37 641.51 22.89 641.73 23.14 642.17 23.14 642.17 23.14 657.72 23.14 657.72 23.14 658.33 23.14 658.82 23.35 659.17 23.76 659.52 24.17 659.7 24.74 659.7 25.46 659.7 25.46 659.7 27.77 659.7 27.77 659.7 28.49 659.52 29.05 659.17 29.46 658.82 29.88 658.33 30.08 657.72 30.08 657.72 30.08 642.17 30.08 642.17 30.08 641.73 30.08 641.51 30.34 641.51 30.85 641.51 30.85 641.51 45.5 641.51 45.5 641.51 46.01 641.73 46.27 642.17 46.27 642.17 46.27 660.36 46.27 660.36 46.27 660.98 46.27 661.46 46.48 661.82 46.89 662.17 47.3 662.35 47.86 662.35 48.58 662.35 48.58 662.35 50.9 662.35 50.9 662.35 51.62 662.17 52.18 661.82 52.59 661.46 53 660.98 53.21 660.36 53.21ZM 622.06 53.21C 622.06 53.21 619.02 53.21 619.02 53.21 617.92 53.21 617.1 52.51 616.57 51.13 616.57 51.13 606.98 27.77 606.98 27.77 606.85 27.46 606.67 27.29 606.45 27.27 606.23 27.24 606.01 27.36 605.79 27.62 605.79 27.62 601.95 33.24 601.95 33.24 601.38 34.07 601.09 35.02 601.09 36.09 601.09 36.09 601.09 50.9 601.09 50.9 601.09 51.62 600.92 52.18 600.56 52.59 600.21 53 599.73 53.21 599.11 53.21 599.11 53.21 596.79 53.21 596.79 53.21 596.18 53.21 595.69 53 595.34 52.59 594.98 52.18 594.81 51.62 594.81 50.9 594.81 50.9 594.81 3.1 594.81 3.1 594.81 2.38 594.98 1.82 595.34 1.4 595.69 0.99 596.18 0.79 596.79 0.79 596.79 0.79 599.11 0.79 599.11 0.79 599.73 0.79 600.21 0.99 600.56 1.4 600.92 1.82 601.09 2.38 601.09 3.1 601.09 3.1 601.09 21.99 601.09 21.99 601.09 22.4 601.21 22.65 601.46 22.76 601.7 22.86 601.93 22.73 602.15 22.37 602.15 22.37 615.84 2.02 615.84 2.02 616.37 1.2 617.21 0.79 618.36 0.79 618.36 0.79 621.93 0.79 621.93 0.79 622.55 0.79 622.95 1.03 623.15 1.52 623.35 2.01 623.27 2.48 622.92 2.95 622.92 2.95 611.74 19.06 611.74 19.06 611.17 19.88 611.06 20.73 611.41 21.6 611.41 21.6 623.38 50.43 623.38 50.43 623.69 51.2 623.72 51.86 623.45 52.4 623.19 52.94 622.72 53.21 622.06 53.21ZM 581.65 53.21C 581.65 53.21 578.6 53.21 578.6 53.21 577.5 53.21 576.68 52.51 576.15 51.13 576.15 51.13 566.56 27.77 566.56 27.77 566.43 27.46 566.26 27.29 566.04 27.27 565.81 27.24 565.59 27.36 565.37 27.62 565.37 27.62 561.54 33.24 561.54 33.24 560.96 34.07 560.68 35.02 560.68 36.09 560.68 36.09 560.68 50.9 560.68 50.9 560.68 51.62 560.5 52.18 560.15 52.59 559.79 53 559.31 53.21 558.69 53.21 558.69 53.21 556.38 53.21 556.38 53.21 555.76 53.21 555.27 53 554.92 52.59 554.57 52.18 554.39 51.62 554.39 50.9 554.39 50.9 554.39 3.1 554.39 3.1 554.39 2.38 554.57 1.82 554.92 1.4 555.27 0.99 555.76 0.79 556.38 0.79 556.38 0.79 558.69 0.79 558.69 0.79 559.31 0.79 559.79 0.99 560.15 1.4 560.5 1.82 560.68 2.38 560.68 3.1 560.68 3.1 560.68 21.99 560.68 21.99 560.68 22.4 560.8 22.65 561.04 22.76 561.28 22.86 561.51 22.73 561.74 22.37 561.74 22.37 575.43 2.02 575.43 2.02 575.96 1.2 576.79 0.79 577.94 0.79 577.94 0.79 581.51 0.79 581.51 0.79 582.13 0.79 582.54 1.03 582.74 1.52 582.94 2.01 582.86 2.48 582.51 2.95 582.51 2.95 571.33 19.06 571.33 19.06 570.75 19.88 570.64 20.73 571 21.6 571 21.6 582.97 50.43 582.97 50.43 583.28 51.2 583.3 51.86 583.03 52.4 582.77 52.94 582.31 53.21 581.65 53.21ZM 538.19 53.21C 538.19 53.21 535.87 53.21 535.87 53.21 535.25 53.21 534.77 53 534.42 52.59 534.06 52.18 533.89 51.62 533.89 50.9 533.89 50.9 533.89 3.1 533.89 3.1 533.89 2.38 534.06 1.82 534.42 1.4 534.77 0.99 535.25 0.79 535.87 0.79 535.87 0.79 538.19 0.79 538.19 0.79 538.8 0.79 539.29 0.99 539.64 1.4 540 1.82 540.17 2.38 540.17 3.1 540.17 3.1 540.17 50.9 540.17 50.9 540.17 51.62 540 52.18 539.64 52.59 539.29 53 538.8 53.21 538.19 53.21ZM 521.06 53.21C 521.06 53.21 518.01 53.21 518.01 53.21 516.91 53.21 516.09 52.51 515.56 51.13 515.56 51.13 507.76 31.55 507.76 31.55 507.49 30.83 507.03 30.47 506.37 30.47 506.37 30.47 500.09 30.47 500.09 30.47 499.64 30.47 499.42 30.72 499.42 31.24 499.42 31.24 499.42 50.9 499.42 50.9 499.42 51.62 499.25 52.18 498.9 52.59 498.54 53 498.06 53.21 497.44 53.21 497.44 53.21 495.13 53.21 495.13 53.21 494.51 53.21 494.02 53 493.67 52.59 493.32 52.18 493.14 51.62 493.14 50.9 493.14 50.9 493.14 3.1 493.14 3.1 493.14 2.38 493.32 1.82 493.67 1.4 494.02 0.99 494.51 0.79 495.13 0.79 495.13 0.79 508.69 0.79 508.69 0.79 510.45 0.79 512.1 1.16 513.65 1.91 515.19 2.65 516.52 3.68 517.65 4.99 518.77 6.3 519.65 7.85 520.29 9.65 520.93 11.45 521.25 13.38 521.25 15.43 521.25 18.36 520.65 20.96 519.45 23.22 518.25 25.48 516.74 27.2 514.9 28.39 514.2 28.85 514.04 29.59 514.44 30.62 514.44 30.62 522.38 50.43 522.38 50.43 522.69 51.2 522.71 51.86 522.44 52.4 522.18 52.94 521.72 53.21 521.06 53.21ZM 514.47 18.71C 514.85 17.71 515.04 16.62 515.04 15.43 515.04 14.25 514.85 13.19 514.47 12.24 514.1 11.28 513.6 10.47 512.99 9.81 512.37 9.14 511.65 8.63 510.84 8.26 510.02 7.91 509.17 7.73 508.29 7.73 508.29 7.73 500.15 7.73 500.15 7.73 499.71 7.73 499.49 7.98 499.49 8.5 499.49 8.5 499.49 22.76 499.49 22.76 499.49 23.27 499.71 23.53 500.15 23.53 500.15 23.53 508.29 23.53 508.29 23.53 509.17 23.53 510.02 23.33 510.84 22.95 511.65 22.56 512.37 22.01 512.99 21.29 513.6 20.57 514.1 19.71 514.47 18.71ZM 477.5 49.01C 476.33 50.32 474.96 51.34 473.4 52.09 471.83 52.83 470.17 53.21 468.4 53.21 468.4 53.21 454.51 53.21 454.51 53.21 453.89 53.21 453.41 53 453.06 52.59 452.7 52.18 452.53 51.62 452.53 50.9 452.53 50.9 452.53 3.1 452.53 3.1 452.53 2.38 452.7 1.82 453.06 1.4 453.41 0.99 453.89 0.79 454.51 0.79 454.51 0.79 465.76 0.79 465.76 0.79 467.52 0.79 469.19 1.16 470.75 1.91 472.32 2.65 473.68 3.68 474.85 4.99 476.02 6.3 476.95 7.85 477.63 9.65 478.31 11.45 478.66 13.38 478.66 15.43 478.66 17.28 478.37 19.01 477.8 20.6 477.22 22.19 476.43 23.66 475.42 24.99 475.02 25.51 475.06 26 475.55 26.46 477.4 28.05 478.82 29.84 479.81 31.82 480.81 33.79 481.3 36.04 481.3 38.56 481.3 40.67 480.96 42.61 480.28 44.38 479.59 46.15 478.67 47.7 477.5 49.01ZM 471.71 11.89C 471.27 10.91 470.71 10.12 470.02 9.5 469.34 8.88 468.58 8.43 467.74 8.15 466.9 7.87 466.09 7.73 465.29 7.73 465.29 7.73 459.47 7.73 459.47 7.73 459.03 7.73 458.81 7.98 458.81 8.5 458.81 8.5 458.81 22.76 458.81 22.76 458.81 23.27 459.03 23.53 459.47 23.53 459.47 23.53 465.29 23.53 465.29 23.53 466.09 23.53 466.9 23.36 467.74 23.03 468.58 22.69 469.34 22.21 470.02 21.56 470.71 20.92 471.27 20.09 471.71 19.06 472.15 18.03 472.37 16.82 472.37 15.43 472.37 14.05 472.15 12.86 471.71 11.89ZM 474.36 34.94C 473.91 33.91 473.35 33.08 472.67 32.43 471.99 31.79 471.23 31.3 470.39 30.97 469.55 30.63 468.73 30.47 467.94 30.47 467.94 30.47 459.47 30.47 459.47 30.47 459.03 30.47 458.81 30.72 458.81 31.24 458.81 31.24 458.81 45.5 458.81 45.5 458.81 46.01 459.03 46.27 459.47 46.27 459.47 46.27 467.94 46.27 467.94 46.27 468.73 46.27 469.55 46.13 470.39 45.85 471.23 45.56 471.99 45.11 472.67 44.5 473.35 43.88 473.91 43.08 474.36 42.11 474.8 41.13 475.02 39.95 475.02 38.56 475.02 37.17 474.8 35.97 474.36 34.94ZM 439.03 53.21C 438.59 53.62 438.1 53.8 437.55 53.75 436.99 53.7 436.48 53.52 435.99 53.21 435.99 53.21 416.74 40.1 416.74 40.1 416.43 39.9 416.16 39.9 415.92 40.1 415.67 40.31 415.51 40.57 415.42 40.87 415.42 40.87 412.71 51.36 412.71 51.36 412.4 52.59 411.65 53.21 410.46 53.21 410.46 53.21 407.22 53.21 407.22 53.21 405.94 53.21 405.47 52.49 405.83 51.05 405.83 51.05 419.06 2.87 419.06 2.87 419.28 2.05 419.58 1.49 419.95 1.21 420.32 0.93 420.82 0.79 421.44 0.79 421.44 0.79 426.07 0.79 426.07 0.79 426.69 0.79 427.18 0.93 427.56 1.21 427.93 1.49 428.23 2.05 428.45 2.87 428.45 2.87 441.09 48.97 441.09 48.97 441.39 50.15 441.22 51.08 440.56 51.74 440.56 51.74 439.03 53.21 439.03 53.21ZM 432.15 40.87C 432.15 40.87 424.42 10.58 424.42 10.58 424.28 10.01 424.06 9.73 423.75 9.73 423.45 9.73 423.23 10.01 423.09 10.58 423.09 10.58 417.87 30.93 417.87 30.93 417.69 31.6 417.67 32.1 417.8 32.43 417.93 32.77 418.15 33.04 418.46 33.24 418.46 33.24 430.9 41.72 430.9 41.72 431.38 42.08 431.73 42.12 431.96 41.84 432.18 41.55 432.24 41.23 432.15 40.87ZM 396.63 7.73C 396.63 7.73 378.44 7.73 378.44 7.73 378 7.73 377.78 7.98 377.78 8.5 377.78 8.5 377.78 23.14 377.78 23.14 377.78 23.66 378 23.91 378.44 23.91 378.44 23.91 393.99 23.91 393.99 23.91 394.61 23.91 395.09 24.12 395.44 24.53 395.8 24.94 395.97 25.51 395.97 26.23 395.97 26.23 395.97 28.54 395.97 28.54 395.97 29.26 395.8 29.82 395.44 30.24 395.09 30.65 394.61 30.85 393.99 30.85 393.99 30.85 378.44 30.85 378.44 30.85 378 30.85 377.78 31.11 377.78 31.62 377.78 31.62 377.78 50.9 377.78 50.9 377.78 51.62 377.6 52.18 377.25 52.59 376.9 53 376.41 53.21 375.8 53.21 375.8 53.21 373.48 53.21 373.48 53.21 372.86 53.21 372.38 53 372.03 52.59 371.67 52.18 371.5 51.62 371.5 50.9 371.5 50.9 371.5 3.1 371.5 3.1 371.5 2.38 371.67 1.82 372.03 1.4 372.38 0.99 372.86 0.79 373.48 0.79 373.48 0.79 396.63 0.79 396.63 0.79 397.25 0.79 397.74 0.99 398.09 1.4 398.44 1.82 398.62 2.38 398.62 3.1 398.62 3.1 398.62 5.41 398.62 5.41 398.62 6.13 398.44 6.7 398.09 7.11 397.74 7.52 397.25 7.73 396.63 7.73ZM 356.4 52.82C 355.99 53.21 355.52 53.5 354.99 53.69 354.47 53.88 353.93 53.98 353.4 53.98 352.52 53.98 351.79 53.84 351.21 53.56 350.64 53.28 350.18 52.91 349.83 52.44 349.68 52.24 349.6 52 349.59 51.73 349.58 51.47 349.66 51.23 349.83 51.03 349.83 51.03 350.35 50.29 350.35 50.29 350.68 49.85 351.07 49.86 351.53 50.33 351.74 50.53 351.99 50.71 352.29 50.88 352.59 51.05 352.95 51.13 353.37 51.13 353.89 51.13 354.32 51 354.66 50.73 355.01 50.46 355.18 50.1 355.18 49.66 355.18 49.23 355.03 48.87 354.73 48.55 354.44 48.24 353.89 47.85 353.08 47.38 352.56 47.09 352.1 46.79 351.7 46.48 351.3 46.16 350.96 45.82 350.68 45.46 350.4 45.09 350.19 44.68 350.04 44.23 349.88 43.79 349.81 43.26 349.81 42.66 349.81 42.06 349.9 41.49 350.09 40.95 350.28 40.41 350.56 39.95 350.91 39.54 351.27 39.14 351.7 38.82 352.21 38.59 352.71 38.36 353.28 38.24 353.92 38.24 354.68 38.24 355.36 38.41 355.96 38.74 356.55 39.07 356.98 39.41 357.25 39.74 357.4 39.97 357.48 40.21 357.49 40.46 357.5 40.72 357.42 40.95 357.25 41.15 357.25 41.15 356.73 41.79 356.73 41.79 356.56 41.99 356.38 42.12 356.2 42.17 356.02 42.23 355.83 42.15 355.64 41.92 355.12 41.36 354.55 41.08 353.92 41.08 353.36 41.08 352.95 41.23 352.69 41.52 352.44 41.81 352.31 42.19 352.31 42.66 352.31 43.11 352.49 43.48 352.85 43.8 353.22 44.11 353.68 44.41 354.23 44.7 354.77 44.97 355.25 45.26 355.68 45.57 356.11 45.89 356.48 46.23 356.79 46.59 357.1 46.96 357.34 47.38 357.51 47.83 357.68 48.29 357.77 48.82 357.77 49.42 357.77 50.16 357.64 50.81 357.39 51.38 357.14 51.95 356.81 52.43 356.4 52.82ZM 351.83 27.04C 350.68 28.45 349.32 29.57 347.73 30.39 346.14 31.21 344.47 31.62 342.7 31.62 342.7 31.62 333.77 31.62 333.77 31.62 333.33 31.62 333.11 31.88 333.11 32.39 333.11 32.39 333.11 50.9 333.11 50.9 333.11 51.62 332.94 52.18 332.58 52.59 332.23 53 331.74 53.21 331.13 53.21 331.13 53.21 328.81 53.21 328.81 53.21 328.19 53.21 327.71 53 327.36 52.59 327 52.18 326.83 51.62 326.83 50.9 326.83 50.9 326.83 3.1 326.83 3.1 326.83 2.38 327 1.82 327.36 1.4 327.71 0.99 328.19 0.79 328.81 0.79 328.81 0.79 342.7 0.79 342.7 0.79 344.47 0.79 346.14 1.2 347.73 2.02 349.32 2.84 350.68 3.96 351.83 5.37 352.98 6.79 353.89 8.43 354.58 10.31 355.26 12.18 355.6 14.15 355.6 16.21 355.6 18.31 355.26 20.29 354.58 22.14 353.89 23.99 352.98 25.62 351.83 27.04ZM 348.69 12.54C 348.27 11.49 347.73 10.6 347.07 9.88 346.41 9.16 345.66 8.63 344.82 8.26 343.98 7.91 343.12 7.73 342.24 7.73 342.24 7.73 333.77 7.73 333.77 7.73 333.33 7.73 333.11 7.98 333.11 8.5 333.11 8.5 333.11 23.91 333.11 23.91 333.11 24.43 333.33 24.68 333.77 24.68 333.77 24.68 342.24 24.68 342.24 24.68 343.12 24.68 343.98 24.51 344.82 24.14 345.66 23.79 346.41 23.25 347.07 22.53 347.73 21.81 348.27 20.92 348.69 19.87 349.11 18.81 349.32 17.59 349.32 16.21 349.32 14.82 349.11 13.6 348.69 12.54ZM 313.33 53.21C 312.89 53.62 312.4 53.8 311.85 53.75 311.3 53.7 310.78 53.52 310.29 53.21 310.29 53.21 291.04 40.1 291.04 40.1 290.73 39.9 290.46 39.9 290.22 40.1 289.97 40.31 289.81 40.57 289.72 40.87 289.72 40.87 287.01 51.36 287.01 51.36 286.7 52.59 285.95 53.21 284.76 53.21 284.76 53.21 281.52 53.21 281.52 53.21 280.24 53.21 279.78 52.49 280.13 51.05 280.13 51.05 293.36 2.87 293.36 2.87 293.58 2.05 293.88 1.49 294.25 1.21 294.63 0.93 295.12 0.79 295.74 0.79 295.74 0.79 300.37 0.79 300.37 0.79 300.99 0.79 301.48 0.93 301.86 1.21 302.23 1.49 302.53 2.05 302.75 2.87 302.75 2.87 315.39 48.97 315.39 48.97 315.69 50.15 315.52 51.08 314.86 51.74 314.86 51.74 313.33 53.21 313.33 53.21ZM 306.46 40.87C 306.46 40.87 298.72 10.58 298.72 10.58 298.58 10.01 298.36 9.73 298.05 9.73 297.75 9.73 297.53 10.01 297.39 10.58 297.39 10.58 292.17 30.93 292.17 30.93 291.99 31.6 291.97 32.1 292.1 32.43 292.23 32.77 292.45 33.04 292.76 33.24 292.76 33.24 305.2 41.72 305.2 41.72 305.68 42.08 306.04 42.12 306.26 41.84 306.48 41.55 306.54 41.23 306.46 40.87ZM 270.34 53.21C 270.34 53.21 267.3 53.21 267.3 53.21 266.19 53.21 265.38 52.51 264.85 51.13 264.85 51.13 255.26 27.77 255.26 27.77 255.12 27.46 254.95 27.29 254.73 27.27 254.51 27.24 254.29 27.36 254.07 27.62 254.07 27.62 250.23 33.24 250.23 33.24 249.66 34.07 249.37 35.02 249.37 36.09 249.37 36.09 249.37 50.9 249.37 50.9 249.37 51.62 249.19 52.18 248.84 52.59 248.49 53 248 53.21 247.39 53.21 247.39 53.21 245.07 53.21 245.07 53.21 244.45 53.21 243.97 53 243.61 52.59 243.26 52.18 243.09 51.62 243.09 50.9 243.09 50.9 243.09 3.1 243.09 3.1 243.09 2.38 243.26 1.82 243.61 1.4 243.97 0.99 244.45 0.79 245.07 0.79 245.07 0.79 247.39 0.79 247.39 0.79 248 0.79 248.49 0.99 248.84 1.4 249.19 1.82 249.37 2.38 249.37 3.1 249.37 3.1 249.37 21.99 249.37 21.99 249.37 22.4 249.49 22.65 249.73 22.76 249.98 22.86 250.21 22.73 250.43 22.37 250.43 22.37 264.12 2.02 264.12 2.02 264.65 1.2 265.49 0.79 266.63 0.79 266.63 0.79 270.21 0.79 270.21 0.79 270.82 0.79 271.23 1.03 271.43 1.52 271.63 2.01 271.55 2.48 271.2 2.95 271.2 2.95 260.02 19.06 260.02 19.06 259.45 19.88 259.34 20.73 259.69 21.6 259.69 21.6 271.66 50.43 271.66 50.43 271.97 51.2 271.99 51.86 271.73 52.4 271.46 52.94 271 53.21 270.34 53.21ZM 226.22 49.62C 224.98 50.93 223.54 51.99 221.89 52.78 220.23 53.58 218.48 53.98 216.63 53.98 213.63 53.98 211.28 53.45 209.58 52.4 207.89 51.34 206.4 50 205.12 48.35 204.76 47.94 204.57 47.43 204.52 46.81 204.48 46.19 204.68 45.63 205.12 45.11 205.12 45.11 206.57 43.42 206.57 43.42 207.01 42.9 207.49 42.67 208 42.72 208.5 42.78 208.96 43.01 209.35 43.42 209.7 43.78 210.1 44.18 210.54 44.61 210.98 45.05 211.49 45.45 212.06 45.81 212.64 46.17 213.3 46.46 214.05 46.69 214.8 46.93 215.66 47.04 216.63 47.04 218.75 47.04 220.49 46.36 221.85 45 223.22 43.64 223.9 41.93 223.9 39.87 223.9 37.56 223.3 35.71 222.09 34.32 220.87 32.93 218.94 31.5 216.3 30 214.62 29.08 213.11 28.1 211.77 27.07 210.42 26.05 209.26 24.89 208.29 23.61 207.32 22.32 206.58 20.87 206.08 19.25 205.57 17.63 205.32 15.77 205.32 13.66 205.32 11.91 205.6 10.22 206.18 8.57 206.75 6.93 207.59 5.48 208.69 4.22 209.79 2.96 211.13 1.94 212.69 1.17 214.26 0.4 216.01 0.02 217.95 0.02 220.47 0.02 222.61 0.58 224.4 1.71 226.19 2.84 227.61 4.03 228.67 5.26 229.59 6.34 229.59 7.42 228.67 8.5 228.67 8.5 227.15 10.35 227.15 10.35 226.71 10.86 226.29 11.13 225.89 11.16 225.49 11.18 225.03 10.91 224.5 10.35 223.93 9.73 223.05 9.01 221.85 8.19 220.66 7.37 219.36 6.96 217.95 6.96 216.98 6.96 216.09 7.15 215.27 7.53 214.46 7.92 213.75 8.42 213.16 9.03 212.56 9.65 212.1 10.36 211.77 11.16 211.44 11.95 211.27 12.79 211.27 13.66 211.27 14.79 211.41 15.79 211.7 16.67 211.99 17.54 212.43 18.35 213.02 19.1 213.62 19.84 214.39 20.55 215.34 21.22 216.29 21.88 217.44 22.55 218.81 23.22 220.62 24.14 222.23 25.12 223.64 26.15 225.05 27.18 226.24 28.32 227.21 29.58 228.18 30.84 228.92 32.28 229.43 33.9 229.93 35.52 230.19 37.38 230.19 39.49 230.19 41.44 229.84 43.29 229.13 45.04 228.42 46.78 227.45 48.31 226.22 49.62ZM 190.83 53.21C 190.83 53.21 167.68 53.21 167.68 53.21 167.06 53.21 166.58 53 166.22 52.59 165.87 52.18 165.7 51.62 165.7 50.9 165.7 50.9 165.7 3.1 165.7 3.1 165.7 2.38 165.87 1.82 166.22 1.4 166.58 0.99 167.06 0.79 167.68 0.79 167.68 0.79 189.51 0.79 189.51 0.79 190.13 0.79 190.61 0.99 190.96 1.4 191.32 1.82 191.49 2.38 191.49 3.1 191.49 3.1 191.49 5.41 191.49 5.41 191.49 6.13 191.32 6.7 190.96 7.11 190.61 7.52 190.13 7.73 189.51 7.73 189.51 7.73 172.64 7.73 172.64 7.73 172.2 7.73 171.98 7.98 171.98 8.5 171.98 8.5 171.98 22.37 171.98 22.37 171.98 22.89 172.2 23.14 172.64 23.14 172.64 23.14 188.19 23.14 188.19 23.14 188.8 23.14 189.29 23.35 189.64 23.76 189.99 24.17 190.17 24.74 190.17 25.46 190.17 25.46 190.17 27.77 190.17 27.77 190.17 28.49 189.99 29.05 189.64 29.46 189.29 29.88 188.8 30.08 188.19 30.08 188.19 30.08 172.64 30.08 172.64 30.08 172.2 30.08 171.98 30.34 171.98 30.85 171.98 30.85 171.98 45.5 171.98 45.5 171.98 46.01 172.2 46.27 172.64 46.27 172.64 46.27 190.83 46.27 190.83 46.27 191.45 46.27 191.93 46.48 192.29 46.89 192.64 47.3 192.82 47.86 192.82 48.58 192.82 48.58 192.82 50.9 192.82 50.9 192.82 51.62 192.64 52.18 192.29 52.59 191.93 53 191.45 53.21 190.83 53.21ZM 149.52 49.24C 148.18 50.75 146.57 51.92 144.69 52.74 142.82 53.57 140.76 53.98 138.51 53.98 136.35 53.98 134.36 53.53 132.56 52.63 130.75 51.73 129.18 50.47 127.86 48.85 126.54 47.23 125.51 45.28 124.78 42.99 124.06 40.71 123.69 38.2 123.69 35.48 123.69 35.48 123.69 18.52 123.69 18.52 123.69 15.85 124.08 13.37 124.85 11.08 125.62 8.79 126.68 6.84 128.02 5.22 129.37 3.6 130.97 2.33 132.82 1.4 134.67 0.48 136.68 0.02 138.84 0.02 140.29 0.02 141.62 0.18 142.81 0.52 144 0.85 145.08 1.28 146.05 1.79 147.02 2.3 147.87 2.88 148.6 3.52 149.32 4.17 149.93 4.77 150.42 5.34 151.34 6.41 151.34 7.49 150.42 8.57 150.42 8.57 148.89 10.35 148.89 10.35 148.45 10.86 148.03 11.13 147.64 11.16 147.24 11.18 146.78 10.91 146.25 10.35 145.67 9.73 144.8 9.01 143.64 8.19 142.47 7.37 140.87 6.96 138.84 6.96 137.43 6.96 136.18 7.25 135.1 7.84 134.02 8.43 133.09 9.26 132.32 10.31 131.55 11.36 130.97 12.59 130.57 14.01 130.17 15.42 129.98 16.93 129.98 18.52 129.98 18.52 129.98 35.48 129.98 35.48 129.98 38.92 130.7 41.71 132.16 43.84 133.61 45.97 135.73 47.04 138.51 47.04 141.51 47.04 143.76 46.08 145.26 44.15 146.75 42.22 147.51 39.72 147.51 36.63 147.51 36.63 147.51 36.02 147.51 36.02 147.51 35.61 147.46 35.32 147.37 35.17 147.28 35.02 147.13 34.89 146.91 34.78 146.91 34.78 135.47 27.23 135.47 27.23 134.98 26.87 134.66 26.41 134.51 25.84 134.35 25.28 134.43 24.68 134.74 24.07 134.74 24.07 135.73 22.06 135.73 22.06 136 21.45 136.38 21.05 136.89 20.87 137.39 20.69 137.89 20.78 138.38 21.14 138.38 21.14 152.4 30.54 152.4 30.54 152.97 30.96 153.35 31.35 153.52 31.74 153.7 32.12 153.79 32.68 153.79 33.4 153.79 33.4 153.79 36.63 153.79 36.63 153.79 39.25 153.41 41.63 152.66 43.76 151.91 45.9 150.87 47.72 149.52 49.24ZM 108.15 53.21C 108.15 53.21 106.16 53.21 106.16 53.21 105.55 53.21 105.05 53.02 104.68 52.63 104.3 52.24 103.91 51.67 103.52 50.9 103.52 50.9 86.72 16.59 86.72 16.59 86.49 16.18 86.26 16.03 86.02 16.13 85.78 16.23 85.66 16.49 85.66 16.9 85.66 16.9 85.66 50.9 85.66 50.9 85.66 51.62 85.48 52.18 85.13 52.59 84.78 53 84.29 53.21 83.67 53.21 83.67 53.21 81.36 53.21 81.36 53.21 80.74 53.21 80.25 53 79.9 52.59 79.55 52.18 79.37 51.62 79.37 50.9 79.37 50.9 79.37 3.1 79.37 3.1 79.37 2.38 79.55 1.82 79.9 1.4 80.25 0.99 80.74 0.79 81.36 0.79 81.36 0.79 83.94 0.79 83.94 0.79 84.6 0.79 85.15 0.93 85.59 1.21 86.03 1.49 86.43 2 86.78 2.71 86.78 2.71 102.86 35.32 102.86 35.32 103.03 35.63 103.24 35.76 103.48 35.71 103.73 35.66 103.85 35.43 103.85 35.02 103.85 35.02 103.85 3.1 103.85 3.1 103.85 2.38 104.02 1.82 104.38 1.4 104.73 0.99 105.21 0.79 105.83 0.79 105.83 0.79 108.15 0.79 108.15 0.79 108.77 0.79 109.25 0.99 109.6 1.4 109.96 1.82 110.13 2.38 110.13 3.1 110.13 3.1 110.13 50.9 110.13 50.9 110.13 51.62 109.96 52.18 109.6 52.59 109.25 53 108.77 53.21 108.15 53.21ZM 64.49 53.21C 64.49 53.21 41.34 53.21 41.34 53.21 40.72 53.21 40.23 53 39.88 52.59 39.53 52.18 39.35 51.62 39.35 50.9 39.35 50.9 39.35 3.1 39.35 3.1 39.35 2.38 39.53 1.82 39.88 1.4 40.23 0.99 40.72 0.79 41.34 0.79 41.34 0.79 63.17 0.79 63.17 0.79 63.78 0.79 64.27 0.99 64.62 1.4 64.98 1.82 65.15 2.38 65.15 3.1 65.15 3.1 65.15 5.41 65.15 5.41 65.15 6.13 64.98 6.7 64.62 7.11 64.27 7.52 63.78 7.73 63.17 7.73 63.17 7.73 46.3 7.73 46.3 7.73 45.86 7.73 45.64 7.98 45.64 8.5 45.64 8.5 45.64 22.37 45.64 22.37 45.64 22.89 45.86 23.14 46.3 23.14 46.3 23.14 61.84 23.14 61.84 23.14 62.46 23.14 62.94 23.35 63.3 23.76 63.65 24.17 63.83 24.74 63.83 25.46 63.83 25.46 63.83 27.77 63.83 27.77 63.83 28.49 63.65 29.05 63.3 29.46 62.94 29.88 62.46 30.08 61.84 30.08 61.84 30.08 46.3 30.08 46.3 30.08 45.86 30.08 45.64 30.34 45.64 30.85 45.64 30.85 45.64 45.5 45.64 45.5 45.64 46.01 45.86 46.27 46.3 46.27 46.3 46.27 64.49 46.27 64.49 46.27 65.11 46.27 65.59 46.48 65.95 46.89 66.3 47.3 66.47 47.86 66.47 48.58 66.47 48.58 66.47 50.9 66.47 50.9 66.47 51.62 66.3 52.18 65.95 52.59 65.59 53 65.11 53.21 64.49 53.21ZM 25 27.04C 23.85 28.45 22.49 29.57 20.9 30.39 19.31 31.21 17.64 31.62 15.87 31.62 15.87 31.62 6.94 31.62 6.94 31.62 6.5 31.62 6.28 31.88 6.28 32.39 6.28 32.39 6.28 50.9 6.28 50.9 6.28 51.62 6.1 52.18 5.75 52.59 5.4 53 4.91 53.21 4.3 53.21 4.3 53.21 1.98 53.21 1.98 53.21 1.36 53.21 0.88 53 0.53 52.59 0.17 52.18-0 51.62-0 50.9-0 50.9-0 3.1-0 3.1-0 2.38 0.17 1.82 0.53 1.4 0.88 0.99 1.36 0.79 1.98 0.79 1.98 0.79 15.87 0.79 15.87 0.79 17.64 0.79 19.31 1.2 20.9 2.02 22.49 2.84 23.85 3.96 25 5.37 26.15 6.79 27.06 8.43 27.75 10.31 28.43 12.18 28.77 14.15 28.77 16.21 28.77 18.31 28.43 20.29 27.75 22.14 27.06 23.99 26.15 25.62 25 27.04ZM 21.86 12.54C 21.44 11.49 20.9 10.6 20.24 9.88 19.58 9.16 18.83 8.63 17.99 8.26 17.15 7.91 16.29 7.73 15.41 7.73 15.41 7.73 6.94 7.73 6.94 7.73 6.5 7.73 6.28 7.98 6.28 8.5 6.28 8.5 6.28 23.91 6.28 23.91 6.28 24.43 6.5 24.68 6.94 24.68 6.94 24.68 15.41 24.68 15.41 24.68 16.29 24.68 17.15 24.51 17.99 24.14 18.83 23.79 19.58 23.25 20.24 22.53 20.9 21.81 21.44 20.92 21.86 19.87 22.28 18.81 22.49 17.59 22.49 16.21 22.49 14.82 22.28 13.6 21.86 12.54Z"/>
</svg>