<?xml version="1.0" encoding="utf-8"?>
<svg xmlns="http://www.w3.org/2000/svg"
	xmlns:xlink="http://www.w3.org/1999/xlink"
	width="428px" height="52px">
<path fill="rgb(53,51,49)" fill-rule="evenodd" d="M 352.11 49.42C 352.11 49.42 352.11 11.39 352.11 11.39 352.11 11.39 351.98 11.27 351.98 11.27 351.98 11.27 341.36 49.42 341.36 49.42 341.36 49.42 329.99 49.42 329.99 49.42 329.99 49.42 319.99 10.96 319.99 10.96 319.99 10.96 319.86 11.08 319.86 11.08 319.86 11.08 319.86 49.42 319.86 49.42 319.86 49.42 308.85 49.42 308.85 49.42 308.85 49.42 308.85 3.96 308.85 3.96 308.85 3.96 328.8 3.96 328.8 3.96 328.8 3.96 336.24 34.74 336.24 34.74 336.24 34.74 336.37 34.74 336.37 34.74 336.37 34.74 343.55 3.96 343.55 3.96 343.55 3.96 363.16 3.96 363.16 3.96 363.16 3.96 363.16 49.42 363.16 49.42 363.16 49.42 352.11 49.42 352.11 49.42ZM 280.35 50.36C 268.89 50.36 258.75 45.4 258.62 32.74 258.62 32.74 258.62 3.96 258.62 3.96 258.62 3.96 271.21 3.96 271.21 3.96 271.21 3.96 271.21 32.11 271.21 32.11 271.4 37.91 274.42 41.54 280.35 41.54 286.28 41.54 289.28 37.91 289.47 32.11 289.47 32.11 289.47 3.96 289.47 3.96 289.47 3.96 302.09 3.96 302.09 3.96 302.09 3.96 302.09 32.74 302.09 32.74 301.97 45.4 291.83 50.36 280.35 50.36ZM 239.23 3.87C 239.23 3.87 251.82 3.87 251.82 3.87 251.82 3.87 251.82 49.33 251.82 49.33 251.82 49.33 239.23 49.33 239.23 49.33 239.23 49.33 239.23 3.87 239.23 3.87ZM 199.17 14.54C 199.17 14.54 199.05 14.54 199.05 14.54 199.05 14.54 199.05 49.33 199.05 49.33 199.05 49.33 187.7 49.33 187.7 49.33 187.7 49.33 187.7 3.87 187.7 3.87 187.7 3.87 205.35 3.87 205.35 3.87 205.35 3.87 220.59 37.76 220.59 37.76 220.59 37.76 220.71 37.64 220.71 37.64 220.71 37.64 220.71 3.87 220.71 3.87 220.71 3.87 232.05 3.87 232.05 3.87 232.05 3.87 232.05 49.33 232.05 49.33 232.05 49.33 214.61 49.33 214.61 49.33 214.61 49.33 199.17 14.54 199.17 14.54ZM 167.65 40.45C 167.65 40.45 149.17 40.45 149.17 40.45 149.17 40.45 146.21 49.33 146.21 49.33 146.21 49.33 133.61 49.33 133.61 49.33 133.61 49.33 151.58 3.87 151.58 3.87 151.58 3.87 166.94 3.87 166.94 3.87 166.94 3.87 184.9 49.33 184.9 49.33 184.9 49.33 170.65 49.33 170.65 49.33 170.65 49.33 167.65 40.45 167.65 40.45ZM 158.74 12.75C 158.74 12.75 158.56 12.75 158.56 12.75 158.56 12.75 152.39 31.65 152.39 31.65 152.39 31.65 164.55 31.65 164.55 31.65 164.55 31.65 158.74 12.75 158.74 12.75ZM 133.5 36.97C 133.5 50.21 116.62 49.33 116.18 49.33 116.18 49.33 94.83 49.33 94.83 49.33 94.83 49.33 94.83 3.87 94.83 3.87 94.83 3.87 116.62 3.87 116.62 3.87 125.19 3.93 132.37 7.81 132.37 15.79 132.37 21.4 127.65 24.78 122.55 25.71 122.55 25.71 122.55 25.84 122.55 25.84 128.59 26.66 133.5 30.53 133.5 36.97ZM 114.3 12.68C 114.3 12.68 107.43 12.68 107.43 12.68 107.43 12.68 107.43 21.96 107.43 21.96 107.43 21.96 113.86 21.9 113.86 21.9 117.25 21.9 119.46 20.55 119.46 17.1 119.46 14.54 117.25 12.68 114.3 12.68ZM 115.68 30.72C 115.68 30.72 107.43 30.72 107.43 30.72 107.43 30.72 107.43 40.52 107.43 40.52 107.43 40.52 114.81 40.52 114.81 40.52 117.96 40.52 120.27 38.64 120.27 35.78 120.27 33.28 118.52 30.9 115.68 30.72ZM 75.64 49.33C 75.64 49.33 67.97 31.97 67.97 31.97 67.97 31.97 63.25 31.97 63.25 31.97 63.25 31.97 63.25 49.33 63.25 49.33 63.25 49.33 50.65 49.33 50.65 49.33 50.65 49.33 50.65 3.87 50.65 3.87 50.65 3.87 71.69 3.87 71.69 3.87 79.38 3.87 89.33 8.02 89.33 17.65 89.33 23.41 85.57 27.39 80.56 28.92 80.52 28.93 80.48 28.95 80.48 28.95 80.48 28.95 89.55 49.33 89.55 49.33 89.55 49.33 75.64 49.33 75.64 49.33ZM 68.16 12.68C 68.16 12.68 63.25 12.68 63.25 12.68 63.25 12.68 63.25 23.15 63.25 23.15 63.25 23.15 68.16 23.15 68.16 23.15 72.19 23.15 76.1 22.59 76.1 17.92 76.1 13.29 72.19 12.68 68.16 12.68ZM 21.73 50.27C 10.26 50.27 0.13 45.31 0 32.65 0 32.65 0 3.87 0 3.87 0 3.87 12.6 3.87 12.6 3.87 12.6 3.87 12.6 32.03 12.6 32.03 12.79 37.83 15.81 41.46 21.73 41.46 27.65 41.46 30.67 37.83 30.86 32.03 30.86 32.03 30.86 3.87 30.86 3.87 30.86 3.87 43.46 3.87 43.46 3.87 43.46 3.87 43.46 32.65 43.46 32.65 43.34 45.31 33.21 50.27 21.73 50.27Z"/>
<path fill="rgb(53,51,49)" fill-rule="evenodd" d="M 395.91 52C 395.91 52 375.93 36.2 375.93 36.2 375.93 36.2 375.93 3.95 375.93 3.95 375.93 3.95 407.9 0 407.9 0 407.9 0 427.88 15.8 427.88 15.8 427.88 15.8 427.88 48.05 427.88 48.05 427.88 48.05 395.91 52 395.91 52ZM 393.09 41.31C 393.09 41.31 393.09 36.64 393.09 36.64 393.09 36.64 387.98 37.27 387.98 37.27 387.98 37.27 393.09 41.31 393.09 41.31ZM 400.67 44.46C 400.67 44.46 415.8 42.59 415.8 42.59 415.8 42.59 406.22 35.02 406.22 35.02 406.22 35.02 400.67 35.7 400.67 35.7 400.67 35.7 400.67 44.46 400.67 44.46ZM 380.41 7.79C 380.41 7.79 380.41 7.79 380.41 7.79 380.41 7.79 380.41 31.25 380.41 31.25 380.41 31.25 380.41 31.25 380.41 31.25 380.41 31.25 380.41 7.79 380.41 7.79ZM 383.5 30.87C 383.5 30.87 393.09 29.69 393.09 29.69 393.09 29.69 393.09 21.86 393.09 21.86 393.09 21.86 383.5 14.27 383.5 14.27 383.5 14.27 383.5 30.87 383.5 30.87ZM 403.42 7.77C 403.42 7.77 388.4 9.62 388.4 9.62 388.4 9.62 397.59 16.89 397.59 16.89 397.59 16.89 403.42 16.17 403.42 16.17 403.42 16.17 403.42 7.77 403.42 7.77ZM 403.42 23.41C 403.42 23.41 400.67 23.75 400.67 23.75 400.67 23.75 400.67 28.75 400.67 28.75 400.67 28.75 403.42 28.41 403.42 28.41 403.42 28.41 403.42 23.41 403.42 23.41ZM 400.67 33.15C 400.67 33.15 400.67 33.15 400.67 33.15 400.67 33.15 407.9 32.25 407.9 32.25 407.9 32.25 400.67 33.15 400.67 33.15ZM 410.69 10.71C 410.69 10.71 410.69 15.27 410.69 15.27 410.69 15.27 415.69 14.65 415.69 14.65 415.69 14.65 410.69 10.71 410.69 10.71ZM 420.61 18.52C 420.61 18.52 420.6 18.52 420.6 18.52 420.6 18.52 420.6 18.53 420.6 18.53 420.6 18.53 420.61 20.01 420.61 20.01 420.61 20.01 420.61 18.52 420.61 18.52ZM 420.61 21.29C 420.61 21.29 410.69 22.51 410.69 22.51 410.69 22.51 410.69 30.07 410.69 30.07 410.69 30.07 420.61 37.91 420.61 37.91 420.61 37.91 420.61 21.29 420.61 21.29ZM 425.07 17.97C 425.07 17.97 421.8 18.38 421.8 18.38 421.8 18.38 425.08 17.98 425.08 17.98 425.08 17.98 425.07 17.97 425.07 17.97Z"/>
</svg>